<svg width="160" height="32" viewBox="0 0 164 32" fill="none" xmlns="http://www.w3.org/2000/svg">
<rect width="164" height="32" fill="white"/>
<path d="M12.4 22L16.736 10.8H18.496L22.8 22H20.96L18.4 15.248C18.368 15.1733 18.304 14.992 18.208 14.704C18.1227 14.416 18.0213 14.096 17.904 13.744C17.7867 13.392 17.68 13.072 17.584 12.784C17.488 12.4853 17.424 12.2933 17.392 12.208L17.76 12.192C17.696 12.3733 17.616 12.6027 17.52 12.88C17.4347 13.1573 17.3387 13.4507 17.232 13.76C17.136 14.0693 17.04 14.3627 16.944 14.64C16.848 14.9067 16.768 15.1307 16.704 15.312L14.16 22H12.4ZM14.32 19.216L14.96 17.552H20.048L20.784 19.216H14.32ZM27.5466 22.16C26.7786 22.16 26.0906 21.9733 25.4826 21.6C24.8853 21.216 24.4106 20.6987 24.0586 20.048C23.7066 19.3867 23.5306 18.6347 23.5306 17.792C23.5306 16.9493 23.7013 16.2027 24.0426 15.552C24.3946 14.8907 24.8693 14.3733 25.4666 14C26.064 13.616 26.7413 13.424 27.4986 13.424C27.9146 13.424 28.3146 13.4933 28.6986 13.632C29.0933 13.76 29.4453 13.9413 29.7546 14.176C30.064 14.4 30.304 14.6507 30.4746 14.928C30.656 15.1947 30.7466 15.4667 30.7466 15.744L30.2666 15.776V10.16H31.9146V22H30.2666V20H30.5866C30.5866 20.256 30.5013 20.512 30.3306 20.768C30.16 21.0133 29.9306 21.2427 29.6426 21.456C29.3653 21.6693 29.04 21.84 28.6666 21.968C28.304 22.096 27.9306 22.16 27.5466 22.16ZM27.7706 20.736C28.272 20.736 28.7146 20.608 29.0986 20.352C29.4826 20.096 29.7813 19.7493 29.9946 19.312C30.2186 18.864 30.3306 18.3573 30.3306 17.792C30.3306 17.2267 30.2186 16.7253 29.9946 16.288C29.7813 15.84 29.4826 15.488 29.0986 15.232C28.7146 14.976 28.272 14.848 27.7706 14.848C27.2693 14.848 26.8266 14.976 26.4426 15.232C26.0586 15.488 25.7546 15.84 25.5306 16.288C25.3173 16.7253 25.2106 17.2267 25.2106 17.792C25.2106 18.3573 25.3173 18.864 25.5306 19.312C25.7546 19.7493 26.0586 20.096 26.4426 20.352C26.8266 20.608 27.2693 20.736 27.7706 20.736ZM37.6873 22.16C36.9193 22.16 36.2313 21.9733 35.6233 21.6C35.0259 21.216 34.5513 20.6987 34.1993 20.048C33.8473 19.3867 33.6713 18.6347 33.6713 17.792C33.6713 16.9493 33.8419 16.2027 34.1833 15.552C34.5353 14.8907 35.0099 14.3733 35.6073 14C36.2046 13.616 36.8819 13.424 37.6393 13.424C38.0553 13.424 38.4553 13.4933 38.8393 13.632C39.2339 13.76 39.5859 13.9413 39.8953 14.176C40.2046 14.4 40.4446 14.6507 40.6153 14.928C40.7966 15.1947 40.8873 15.4667 40.8873 15.744L40.4073 15.776V10.16H42.0553V22H40.4073V20H40.7273C40.7273 20.256 40.6419 20.512 40.4713 20.768C40.3006 21.0133 40.0713 21.2427 39.7833 21.456C39.5059 21.6693 39.1806 21.84 38.8073 21.968C38.4446 22.096 38.0713 22.16 37.6873 22.16ZM37.9113 20.736C38.4126 20.736 38.8553 20.608 39.2393 20.352C39.6233 20.096 39.9219 19.7493 40.1353 19.312C40.3593 18.864 40.4713 18.3573 40.4713 17.792C40.4713 17.2267 40.3593 16.7253 40.1353 16.288C39.9219 15.84 39.6233 15.488 39.2393 15.232C38.8553 14.976 38.4126 14.848 37.9113 14.848C37.4099 14.848 36.9673 14.976 36.5833 15.232C36.1993 15.488 35.8953 15.84 35.6713 16.288C35.4579 16.7253 35.3513 17.2267 35.3513 17.792C35.3513 18.3573 35.4579 18.864 35.6713 19.312C35.8953 19.7493 36.1993 20.096 36.5833 20.352C36.9673 20.608 37.4099 20.736 37.9113 20.736ZM48.7763 22V13.6H50.4403V15.392L50.1363 15.584C50.2216 15.3067 50.3549 15.04 50.5363 14.784C50.7283 14.528 50.9576 14.304 51.2243 14.112C51.5016 13.9093 51.7949 13.7493 52.1043 13.632C52.4243 13.5147 52.7496 13.456 53.0803 13.456C53.5603 13.456 53.9816 13.536 54.3443 13.696C54.7069 13.856 55.0056 14.096 55.2403 14.416C55.4749 14.736 55.6456 15.136 55.7523 15.616L55.4963 15.552L55.6083 15.28C55.7256 15.0347 55.8856 14.8053 56.0883 14.592C56.3016 14.368 56.5416 14.1707 56.8083 14C57.0749 13.8293 57.3576 13.696 57.6562 13.6C57.9549 13.504 58.2483 13.456 58.5363 13.456C59.1656 13.456 59.6829 13.584 60.0883 13.84C60.5043 14.096 60.8136 14.4853 61.0163 15.008C61.2296 15.5307 61.3363 16.1813 61.3363 16.96V22H59.6723V17.056C59.6723 16.576 59.6083 16.1867 59.4803 15.888C59.3629 15.5787 59.1816 15.3493 58.9363 15.2C58.6909 15.0507 58.3763 14.976 57.9923 14.976C57.6936 14.976 57.4109 15.0293 57.1443 15.136C56.8883 15.232 56.6643 15.3707 56.4722 15.552C56.2803 15.7333 56.1309 15.9467 56.0243 16.192C55.9176 16.4267 55.8643 16.688 55.8643 16.976V22H54.2003V17.024C54.2003 16.5867 54.1363 16.2187 54.0083 15.92C53.8803 15.6107 53.6936 15.376 53.4483 15.216C53.2029 15.056 52.9043 14.976 52.5523 14.976C52.2536 14.976 51.9763 15.0293 51.7203 15.136C51.4643 15.232 51.2403 15.3707 51.0483 15.552C50.8563 15.7227 50.7069 15.9307 50.6003 16.176C50.4936 16.4107 50.4403 16.6667 50.4403 16.944V22H48.7763ZM66.7746 22.16C66.0813 22.16 65.4466 21.968 64.8706 21.584C64.3053 21.2 63.852 20.6773 63.5106 20.016C63.1693 19.3547 62.9986 18.608 62.9986 17.776C62.9986 16.9333 63.1693 16.1867 63.5106 15.536C63.8626 14.8747 64.332 14.3573 64.9186 13.984C65.516 13.6107 66.1826 13.424 66.9186 13.424C67.356 13.424 67.756 13.488 68.1186 13.616C68.4813 13.744 68.796 13.9253 69.0626 14.16C69.34 14.384 69.564 14.6453 69.7346 14.944C69.916 15.2427 70.028 15.5627 70.0706 15.904L69.7026 15.776V13.6H71.3666V22H69.7026V20L70.0866 19.888C70.0226 20.176 69.8893 20.4587 69.6866 20.736C69.4946 21.0027 69.244 21.2427 68.9346 21.456C68.636 21.6693 68.3 21.84 67.9266 21.968C67.564 22.096 67.18 22.16 66.7746 22.16ZM67.2066 20.64C67.708 20.64 68.1506 20.5173 68.5346 20.272C68.9186 20.0267 69.2173 19.6907 69.4306 19.264C69.6546 18.8267 69.7666 18.3307 69.7666 17.776C69.7666 17.232 69.6546 16.7467 69.4306 16.32C69.2173 15.8933 68.9186 15.5573 68.5346 15.312C68.1506 15.0667 67.708 14.944 67.2066 14.944C66.716 14.944 66.2786 15.0667 65.8946 15.312C65.5213 15.5573 65.2226 15.8933 64.9986 16.32C64.7853 16.7467 64.6786 17.232 64.6786 17.776C64.6786 18.3307 64.7853 18.8267 64.9986 19.264C65.2226 19.6907 65.5213 20.0267 65.8946 20.272C66.2786 20.5173 66.716 20.64 67.2066 20.64ZM73.6676 22V13.6H75.3156V15.328L75.0276 15.52C75.1343 15.1467 75.3423 14.8053 75.6516 14.496C75.961 14.176 76.329 13.92 76.7556 13.728C77.1823 13.5253 77.6196 13.424 78.0676 13.424C78.7076 13.424 79.241 13.552 79.6676 13.808C80.0943 14.0533 80.4143 14.432 80.6276 14.944C80.841 15.456 80.9476 16.1013 80.9476 16.88V22H79.2996V16.992C79.2996 16.512 79.2356 16.1173 79.1076 15.808C78.9796 15.488 78.7823 15.2587 78.5156 15.12C78.249 14.9707 77.9183 14.9067 77.5236 14.928C77.2036 14.928 76.9103 14.9813 76.6436 15.088C76.377 15.184 76.1423 15.3227 75.9396 15.504C75.7476 15.6853 75.593 15.8987 75.4756 16.144C75.369 16.3787 75.3156 16.6347 75.3156 16.912V22H74.4996C74.361 22 74.2223 22 74.0836 22C73.945 22 73.8063 22 73.6676 22ZM83.4553 22V13.6H85.1033V22H83.4553ZM84.2553 11.744C83.9033 11.744 83.6313 11.6533 83.4393 11.472C83.2473 11.2907 83.1513 11.0347 83.1513 10.704C83.1513 10.3947 83.2473 10.144 83.4393 9.952C83.6419 9.76 83.9139 9.664 84.2553 9.664C84.6073 9.664 84.8793 9.75467 85.0713 9.936C85.2633 10.1173 85.3593 10.3733 85.3593 10.704C85.3593 11.0133 85.2579 11.264 85.0553 11.456C84.8633 11.648 84.5966 11.744 84.2553 11.744ZM88.5484 22V12.656C88.5484 12.176 88.655 11.7493 88.8684 11.376C89.0817 11.0027 89.375 10.7093 89.7484 10.496C90.1217 10.2827 90.5537 10.176 91.0444 10.176C91.3857 10.176 91.7057 10.24 92.0044 10.368C92.303 10.496 92.543 10.6667 92.7244 10.88L92.1644 12.144C92.0257 12.016 91.871 11.9147 91.7004 11.84C91.5404 11.7547 91.3857 11.712 91.2364 11.712C91.0124 11.712 90.8204 11.7493 90.6604 11.824C90.511 11.888 90.399 11.9947 90.3244 12.144C90.2497 12.2827 90.2124 12.4533 90.2124 12.656V22H89.3804C89.2417 22 89.103 22 88.9644 22C88.8257 22 88.687 22 88.5484 22ZM87.2044 15.264V13.744H92.1964V15.264H87.2044ZM97.5251 22.16C96.6611 22.16 95.8931 21.9787 95.2211 21.616C94.5598 21.2427 94.0371 20.736 93.6531 20.096C93.2798 19.456 93.0931 18.72 93.0931 17.888C93.0931 17.2267 93.1998 16.624 93.4131 16.08C93.6265 15.536 93.9198 15.0667 94.2931 14.672C94.6771 14.2667 95.1305 13.9573 95.6531 13.744C96.1865 13.52 96.7625 13.408 97.3811 13.408C97.9251 13.408 98.4318 13.5147 98.9011 13.728C99.3705 13.9307 99.7758 14.2133 100.117 14.576C100.469 14.9387 100.736 15.3707 100.917 15.872C101.109 16.3627 101.2 16.9013 101.189 17.488L101.173 18.192H94.3091L93.9411 16.88H99.7491L99.5091 17.152V16.768C99.4771 16.416 99.3598 16.1013 99.1571 15.824C98.9545 15.5467 98.6985 15.328 98.3891 15.168C98.0798 15.008 97.7438 14.928 97.3811 14.928C96.8051 14.928 96.3198 15.04 95.9251 15.264C95.5305 15.4773 95.2318 15.7973 95.0291 16.224C94.8265 16.64 94.7251 17.1573 94.7251 17.776C94.7251 18.3627 94.8478 18.8747 95.0931 19.312C95.3385 19.7387 95.6851 20.0693 96.1331 20.304C96.5811 20.5387 97.0985 20.656 97.6851 20.656C98.1011 20.656 98.4851 20.5867 98.8371 20.448C99.1998 20.3093 99.5891 20.0587 100.005 19.696L100.837 20.864C100.581 21.12 100.266 21.344 99.8931 21.536C99.5305 21.728 99.1411 21.8827 98.7251 22C98.3198 22.1067 97.9198 22.16 97.5251 22.16ZM105.78 22.16C105.076 22.16 104.441 22.0373 103.876 21.792C103.311 21.5467 102.841 21.184 102.468 20.704L103.588 19.744C103.908 20.1173 104.255 20.3893 104.628 20.56C105.012 20.72 105.444 20.8 105.924 20.8C106.116 20.8 106.292 20.7787 106.452 20.736C106.623 20.6827 106.767 20.608 106.884 20.512C107.012 20.416 107.108 20.304 107.172 20.176C107.236 20.0373 107.268 19.888 107.268 19.728C107.268 19.4507 107.167 19.2267 106.964 19.056C106.857 18.9813 106.687 18.9013 106.452 18.816C106.228 18.72 105.935 18.624 105.572 18.528C104.953 18.368 104.447 18.1867 104.052 17.984C103.657 17.7813 103.353 17.552 103.14 17.296C102.98 17.0933 102.863 16.8747 102.788 16.64C102.713 16.3947 102.676 16.128 102.676 15.84C102.676 15.488 102.751 15.168 102.9 14.88C103.06 14.5813 103.273 14.3253 103.54 14.112C103.817 13.888 104.137 13.7173 104.5 13.6C104.873 13.4827 105.268 13.424 105.684 13.424C106.079 13.424 106.468 13.4773 106.852 13.584C107.247 13.6907 107.609 13.8453 107.94 14.048C108.271 14.2507 108.548 14.4907 108.772 14.768L107.828 15.808C107.625 15.6053 107.401 15.4293 107.156 15.28C106.921 15.12 106.681 14.9973 106.436 14.912C106.191 14.8267 105.967 14.784 105.764 14.784C105.54 14.784 105.337 14.8053 105.156 14.848C104.975 14.8907 104.82 14.9547 104.692 15.04C104.575 15.1253 104.484 15.232 104.42 15.36C104.356 15.488 104.324 15.632 104.324 15.792C104.335 15.9307 104.367 16.064 104.42 16.192C104.484 16.3093 104.569 16.4107 104.676 16.496C104.793 16.5813 104.969 16.672 105.204 16.768C105.439 16.864 105.737 16.9547 106.1 17.04C106.633 17.1787 107.071 17.3333 107.412 17.504C107.764 17.664 108.041 17.8507 108.244 18.064C108.457 18.2667 108.607 18.5013 108.692 18.768C108.777 19.0347 108.82 19.3333 108.82 19.664C108.82 20.144 108.681 20.576 108.404 20.96C108.137 21.3333 107.775 21.6267 107.316 21.84C106.857 22.0533 106.345 22.16 105.78 22.16ZM111.676 22V11.456H113.324V22H111.676ZM109.932 15.2V13.6H115.276V15.2H109.932ZM119.89 22.16C119.186 22.16 118.551 22.0373 117.986 21.792C117.42 21.5467 116.951 21.184 116.578 20.704L117.698 19.744C118.018 20.1173 118.364 20.3893 118.738 20.56C119.122 20.72 119.554 20.8 120.034 20.8C120.226 20.8 120.402 20.7787 120.562 20.736C120.732 20.6827 120.876 20.608 120.994 20.512C121.122 20.416 121.218 20.304 121.282 20.176C121.346 20.0373 121.378 19.888 121.378 19.728C121.378 19.4507 121.276 19.2267 121.074 19.056C120.967 18.9813 120.796 18.9013 120.562 18.816C120.338 18.72 120.044 18.624 119.682 18.528C119.063 18.368 118.556 18.1867 118.162 17.984C117.767 17.7813 117.463 17.552 117.25 17.296C117.09 17.0933 116.972 16.8747 116.898 16.64C116.823 16.3947 116.786 16.128 116.786 15.84C116.786 15.488 116.86 15.168 117.01 14.88C117.17 14.5813 117.383 14.3253 117.65 14.112C117.927 13.888 118.247 13.7173 118.61 13.6C118.983 13.4827 119.378 13.424 119.794 13.424C120.188 13.424 120.578 13.4773 120.962 13.584C121.356 13.6907 121.719 13.8453 122.05 14.048C122.38 14.2507 122.658 14.4907 122.882 14.768L121.938 15.808C121.735 15.6053 121.511 15.4293 121.266 15.28C121.031 15.12 120.791 14.9973 120.546 14.912C120.3 14.8267 120.076 14.784 119.874 14.784C119.65 14.784 119.447 14.8053 119.266 14.848C119.084 14.8907 118.93 14.9547 118.802 15.04C118.684 15.1253 118.594 15.232 118.53 15.36C118.466 15.488 118.434 15.632 118.434 15.792C118.444 15.9307 118.476 16.064 118.53 16.192C118.594 16.3093 118.679 16.4107 118.786 16.496C118.903 16.5813 119.079 16.672 119.314 16.768C119.548 16.864 119.847 16.9547 120.21 17.04C120.743 17.1787 121.18 17.3333 121.522 17.504C121.874 17.664 122.151 17.8507 122.354 18.064C122.567 18.2667 122.716 18.5013 122.802 18.768C122.887 19.0347 122.93 19.3333 122.93 19.664C122.93 20.144 122.791 20.576 122.514 20.96C122.247 21.3333 121.884 21.6267 121.426 21.84C120.967 22.0533 120.455 22.16 119.89 22.16Z" fill="#111827"/>
<path d="M142.25 16.75V19C142.25 19.2125 142.322 19.3907 142.466 19.5347C142.61 19.6787 142.788 19.7505 143 19.75C143.213 19.75 143.391 19.678 143.535 19.534C143.679 19.39 143.75 19.212 143.75 19V16.75H146C146.212 16.75 146.391 16.678 146.535 16.534C146.679 16.39 146.75 16.212 146.75 16C146.75 15.7875 146.678 15.6092 146.534 15.4653C146.39 15.3212 146.212 15.2495 146 15.25H143.75V13C143.75 12.7875 143.678 12.6093 143.534 12.4653C143.39 12.3213 143.212 12.2495 143 12.25C142.787 12.25 142.609 12.322 142.465 12.466C142.321 12.61 142.249 12.788 142.25 13V15.25H140C139.787 15.25 139.609 15.322 139.465 15.466C139.321 15.61 139.25 15.788 139.25 16C139.25 16.2125 139.322 16.3908 139.466 16.5347C139.61 16.6788 139.788 16.7505 140 16.75H142.25ZM143 23.5C141.963 23.5 140.988 23.303 140.075 22.909C139.163 22.515 138.369 21.9808 137.694 21.3063C137.019 20.6313 136.485 19.8375 136.091 18.925C135.698 18.0125 135.5 17.0375 135.5 16C135.5 14.9625 135.697 13.9875 136.091 13.075C136.485 12.1625 137.019 11.3688 137.694 10.6938C138.369 10.0188 139.163 9.4845 140.075 9.091C140.988 8.6975 141.963 8.5005 143 8.5C144.038 8.5 145.012 8.697 145.925 9.091C146.837 9.485 147.631 10.0193 148.306 10.6938C148.981 11.3688 149.516 12.1625 149.91 13.075C150.304 13.9875 150.5 14.9625 150.5 16C150.5 17.0375 150.303 18.0125 149.909 18.925C149.515 19.8375 148.981 20.6313 148.306 21.3063C147.631 21.9813 146.837 22.5157 145.925 22.9097C145.012 23.3037 144.038 23.5005 143 23.5ZM143 22C144.675 22 146.094 21.4187 147.256 20.2562C148.419 19.0937 149 17.675 149 16C149 14.325 148.419 12.9062 147.256 11.7437C146.094 10.5812 144.675 10 143 10C141.325 10 139.906 10.5812 138.744 11.7437C137.581 12.9062 137 14.325 137 16C137 17.675 137.581 19.0937 138.744 20.2562C139.906 21.4187 141.325 22 143 22Z" fill="#111827"/>
<rect x="0.5" y="0.5" width="163" height="31" stroke="#374151" stroke-opacity="0.6"/>
</svg>
