<svg width="71" height="25" viewBox="0 0 71 25" fill="none" xmlns="http://www.w3.org/2000/svg">
<path d="M12.25 20.9792L5.22918 13.9792C5.14585 13.8958 5.08668 13.8056 5.05168 13.7083C5.01668 13.6111 4.99946 13.5069 5.00001 13.3958C5.00001 13.2847 5.01751 13.1806 5.05251 13.0833C5.08751 12.9861 5.1464 12.8958 5.22918 12.8125L12.25 5.79167C12.4445 5.59722 12.6875 5.5 12.9792 5.5C13.2708 5.5 13.5208 5.60417 13.7292 5.8125C13.9375 6.02083 14.0417 6.26389 14.0417 6.54167C14.0417 6.81944 13.9375 7.0625 13.7292 7.27083L7.60418 13.3958L13.7292 19.5208C13.9236 19.7153 14.0208 19.955 14.0208 20.24C14.0208 20.525 13.9167 20.7714 13.7083 20.9792C13.5 21.1875 13.257 21.2917 12.9792 21.2917C12.7014 21.2917 12.4583 21.1875 12.25 20.9792Z" fill="#111827"/>
<path d="M23.96 20V6H29.8C30.6933 6 31.4467 6.13333 32.06 6.4C32.6733 6.66667 33.1333 7.06667 33.44 7.6C33.76 8.12 33.92 8.76 33.92 9.52C33.92 10.28 33.7067 10.9267 33.28 11.46C32.8667 11.9933 32.2867 12.36 31.54 12.56V12.16C32.1667 12.2933 32.7133 12.5333 33.18 12.88C33.6467 13.2133 34.0067 13.6333 34.26 14.14C34.5267 14.6467 34.66 15.2267 34.66 15.88C34.66 16.5467 34.5533 17.14 34.34 17.66C34.14 18.1667 33.8333 18.5933 33.42 18.94C33.02 19.2867 32.5333 19.5533 31.96 19.74C31.3867 19.9133 30.7333 20 30 20H23.96ZM26.12 17.92H29.88C30.4267 17.92 30.8867 17.84 31.26 17.68C31.6467 17.52 31.94 17.2867 32.14 16.98C32.3533 16.66 32.46 16.28 32.46 15.84C32.46 15.4267 32.3467 15.0733 32.12 14.78C31.9067 14.4867 31.6 14.2667 31.2 14.12C30.8 13.96 30.3267 13.88 29.78 13.88H26.12V17.92ZM26.12 11.8H29.68C30.08 11.8 30.4333 11.72 30.74 11.56C31.06 11.4 31.3067 11.18 31.48 10.9C31.6667 10.62 31.76 10.3 31.76 9.94C31.76 9.34 31.56 8.88 31.16 8.56C30.76 8.24 30.1867 8.08 29.44 8.08H26.12V11.8ZM41.0738 20.2C40.2071 20.2 39.4138 19.96 38.6938 19.48C37.9871 19 37.4204 18.3467 36.9938 17.52C36.5671 16.6933 36.3538 15.76 36.3538 14.72C36.3538 13.6667 36.5671 12.7333 36.9938 11.92C37.4338 11.0933 38.0204 10.4467 38.7538 9.98C39.5004 9.51333 40.3338 9.28 41.2538 9.28C41.8004 9.28 42.3004 9.36 42.7538 9.52C43.2071 9.68 43.6004 9.90667 43.9338 10.2C44.2804 10.48 44.5604 10.8067 44.7738 11.18C45.0004 11.5533 45.1404 11.9533 45.1938 12.38L44.7338 12.22V9.5H46.8138V20H44.7338V17.5L45.2138 17.36C45.1338 17.72 44.9671 18.0733 44.7138 18.42C44.4738 18.7533 44.1604 19.0533 43.7738 19.32C43.4004 19.5867 42.9804 19.8 42.5138 19.96C42.0604 20.12 41.5804 20.2 41.0738 20.2ZM41.6138 18.3C42.2404 18.3 42.7938 18.1467 43.2738 17.84C43.7538 17.5333 44.1271 17.1133 44.3938 16.58C44.6738 16.0333 44.8138 15.4133 44.8138 14.72C44.8138 14.04 44.6738 13.4333 44.3938 12.9C44.1271 12.3667 43.7538 11.9467 43.2738 11.64C42.7938 11.3333 42.2404 11.18 41.6138 11.18C41.0004 11.18 40.4538 11.3333 39.9738 11.64C39.5071 11.9467 39.1338 12.3667 38.8538 12.9C38.5871 13.4333 38.4538 14.04 38.4538 14.72C38.4538 15.4133 38.5871 16.0333 38.8538 16.58C39.1338 17.1133 39.5071 17.5333 39.9738 17.84C40.4538 18.1467 41.0004 18.3 41.6138 18.3ZM54.15 20.2C53.1767 20.2 52.3033 19.96 51.53 19.48C50.77 19 50.1633 18.3467 49.71 17.52C49.27 16.6933 49.05 15.7667 49.05 14.74C49.05 13.7133 49.27 12.7867 49.71 11.96C50.1633 11.1333 50.77 10.48 51.53 10C52.3033 9.52 53.1767 9.28 54.15 9.28C55.0833 9.28 55.93 9.47333 56.69 9.86C57.4633 10.2333 58.05 10.7467 58.45 11.4L57.31 12.8C57.0967 12.4933 56.8233 12.2133 56.49 11.96C56.1567 11.7067 55.8033 11.5067 55.43 11.36C55.0567 11.2133 54.6967 11.14 54.35 11.14C53.71 11.14 53.1367 11.3 52.63 11.62C52.1367 11.9267 51.7433 12.3533 51.45 12.9C51.1567 13.4467 51.01 14.06 51.01 14.74C51.01 15.42 51.1633 16.0333 51.47 16.58C51.7767 17.1133 52.1833 17.54 52.69 17.86C53.1967 18.18 53.7567 18.34 54.37 18.34C54.73 18.34 55.0767 18.28 55.41 18.16C55.7567 18.04 56.09 17.86 56.41 17.62C56.73 17.38 57.03 17.0867 57.31 16.74L58.45 18.14C58.0233 18.74 57.41 19.2333 56.61 19.62C55.8233 20.0067 55.0033 20.2 54.15 20.2ZM62.2731 16.72L62.1731 14.48L67.1931 9.5H69.9731L62.2731 16.72ZM60.3931 20V5.2H62.4531V20H60.3931ZM67.4731 20L63.5131 15.38L64.9731 14.04L70.1131 20H67.4731Z" fill="#111827"/>
</svg>
