<svg width="64" height="54" viewBox="0 0 64 54" fill="none" xmlns="http://www.w3.org/2000/svg">
<path d="M2.83301 14.375C2.83301 12.1675 2.83301 11.065 3.03717 10.145C3.47241 8.1696 4.59216 6.3525 6.25032 4.93076C7.90849 3.50903 10.0281 2.54868 12.3326 2.175C13.4088 2 14.698 2 17.2705 2C18.3963 2 18.9622 2 19.5047 2.0425C21.8411 2.23058 24.057 3.0182 25.863 4.3025C26.283 4.6 26.6797 4.94 27.4788 5.625L29.083 7C31.463 9.04 32.653 10.06 34.0763 10.7375C34.8586 11.1112 35.6886 11.4065 36.5497 11.6175C38.1188 12 39.8018 12 43.1647 12H44.2555C51.9322 12 55.7734 12 58.2672 13.925C58.4976 14.1 58.7163 14.2875 58.9205 14.485C61.1663 16.6225 61.1663 19.915 61.1663 26.495V32C61.1663 41.4275 61.1663 46.1425 57.748 49.07C54.3326 52 48.8318 52 37.833 52H26.1663C15.1676 52 9.66676 52 6.25134 49.07C2.83301 46.1425 2.83301 41.4275 2.83301 32V14.375Z" stroke="#023E8A" stroke-width="4"/>
</svg>
