<svg width="253" height="30" viewBox="0 0 313 30" fill="none" xmlns="http://www.w3.org/2000/svg">
<path d="M9.384 24.24C8.168 24.24 7.056 24.032 6.048 23.616C5.04 23.2 4.168 22.608 3.432 21.84C2.696 21.056 2.12 20.136 1.704 19.08C1.304 18.008 1.104 16.84 1.104 15.576C1.104 14.36 1.32 13.232 1.752 12.192C2.184 11.152 2.784 10.24 3.552 9.456C4.32 8.672 5.216 8.064 6.24 7.632C7.264 7.2 8.376 6.984 9.576 6.984C10.392 6.984 11.184 7.104 11.952 7.344C12.72 7.584 13.424 7.92 14.064 8.352C14.704 8.768 15.24 9.256 15.672 9.816L13.68 12C13.264 11.568 12.832 11.208 12.384 10.92C11.952 10.616 11.496 10.392 11.016 10.248C10.552 10.088 10.072 10.008 9.576 10.008C8.84 10.008 8.144 10.144 7.488 10.416C6.848 10.688 6.288 11.072 5.808 11.568C5.344 12.064 4.976 12.656 4.704 13.344C4.432 14.016 4.296 14.768 4.296 15.6C4.296 16.448 4.424 17.216 4.68 17.904C4.952 18.592 5.328 19.184 5.808 19.68C6.304 20.176 6.888 20.56 7.56 20.832C8.248 21.088 9 21.216 9.816 21.216C10.344 21.216 10.856 21.144 11.352 21C11.848 20.856 12.304 20.656 12.72 20.4C13.152 20.128 13.544 19.816 13.896 19.464L15.432 21.936C15.048 22.368 14.536 22.76 13.896 23.112C13.256 23.464 12.536 23.744 11.736 23.952C10.952 24.144 10.168 24.24 9.384 24.24ZM18.1343 24V11.352H21.0383L21.0863 15.384L20.6783 14.472C20.8543 13.832 21.1583 13.256 21.5903 12.744C22.0223 12.232 22.5183 11.832 23.0783 11.544C23.6543 11.24 24.2543 11.088 24.8783 11.088C25.1503 11.088 25.4063 11.112 25.6463 11.16C25.9023 11.208 26.1103 11.264 26.2703 11.328L25.4783 14.568C25.3023 14.472 25.0863 14.392 24.8303 14.328C24.5743 14.264 24.3183 14.232 24.0623 14.232C23.6623 14.232 23.2783 14.312 22.9103 14.472C22.5583 14.616 22.2463 14.824 21.9743 15.096C21.7023 15.368 21.4863 15.688 21.3263 16.056C21.1823 16.408 21.1103 16.808 21.1103 17.256V24H18.1343ZM33.6248 24.24C32.2968 24.24 31.1208 23.96 30.0968 23.4C29.0888 22.84 28.2968 22.08 27.7208 21.12C27.1608 20.144 26.8808 19.032 26.8808 17.784C26.8808 16.792 27.0408 15.888 27.3608 15.072C27.6808 14.256 28.1208 13.552 28.6808 12.96C29.2568 12.352 29.9368 11.888 30.7208 11.568C31.5208 11.232 32.3928 11.064 33.3368 11.064C34.1688 11.064 34.9448 11.224 35.6648 11.544C36.3848 11.864 37.0088 12.304 37.5368 12.864C38.0648 13.408 38.4648 14.064 38.7368 14.832C39.0248 15.584 39.1608 16.408 39.1448 17.304L39.1208 18.336H28.8728L28.3208 16.32H36.6488L36.2648 16.728V16.2C36.2168 15.704 36.0568 15.272 35.7848 14.904C35.5128 14.52 35.1608 14.224 34.7288 14.016C34.3128 13.792 33.8488 13.68 33.3368 13.68C32.5528 13.68 31.8888 13.832 31.3448 14.136C30.8168 14.44 30.4168 14.88 30.1448 15.456C29.8728 16.016 29.7368 16.72 29.7368 17.568C29.7368 18.384 29.9048 19.096 30.2408 19.704C30.5928 20.312 31.0808 20.784 31.7048 21.12C32.3448 21.44 33.0888 21.6 33.9368 21.6C34.5288 21.6 35.0728 21.504 35.5688 21.312C36.0648 21.12 36.6008 20.776 37.1768 20.28L38.6407 22.32C38.2088 22.72 37.7128 23.064 37.1528 23.352C36.6088 23.624 36.0328 23.84 35.4248 24C34.8168 24.16 34.2168 24.24 33.6248 24.24ZM46.5353 24.24C45.4953 24.24 44.5513 23.952 43.7033 23.376C42.8553 22.8 42.1753 22.016 41.6633 21.024C41.1513 20.032 40.8953 18.904 40.8953 17.64C40.8953 16.376 41.1513 15.248 41.6633 14.256C42.1753 13.264 42.8713 12.488 43.7513 11.928C44.6313 11.368 45.6233 11.088 46.7273 11.088C47.3673 11.088 47.9513 11.184 48.4793 11.376C49.0073 11.552 49.4713 11.808 49.8713 12.144C50.2713 12.48 50.5993 12.864 50.8553 13.296C51.1273 13.728 51.3113 14.192 51.4073 14.688L50.7593 14.52V11.352H53.7353V24H50.7353V20.976L51.4313 20.856C51.3193 21.288 51.1113 21.712 50.8073 22.128C50.5193 22.528 50.1513 22.888 49.7033 23.208C49.2713 23.512 48.7833 23.76 48.2393 23.952C47.7113 24.144 47.1433 24.24 46.5353 24.24ZM47.3513 21.624C48.0393 21.624 48.6473 21.456 49.1753 21.12C49.7033 20.784 50.1113 20.32 50.3993 19.728C50.7033 19.12 50.8553 18.424 50.8553 17.64C50.8553 16.872 50.7033 16.192 50.3993 15.6C50.1113 15.008 49.7033 14.544 49.1753 14.208C48.6473 13.872 48.0393 13.704 47.3513 13.704C46.6633 13.704 46.0553 13.872 45.5273 14.208C45.0153 14.544 44.6153 15.008 44.3273 15.6C44.0393 16.192 43.8953 16.872 43.8953 17.64C43.8953 18.424 44.0393 19.12 44.3273 19.728C44.6153 20.32 45.0153 20.784 45.5273 21.12C46.0553 21.456 46.6633 21.624 47.3513 21.624ZM58.5257 24V8.136H61.4777V24H58.5257ZM56.0297 14.088V11.352H64.2377V14.088H56.0297ZM72.2966 24.24C70.9686 24.24 69.7926 23.96 68.7686 23.4C67.7606 22.84 66.9686 22.08 66.3926 21.12C65.8326 20.144 65.5526 19.032 65.5526 17.784C65.5526 16.792 65.7126 15.888 66.0326 15.072C66.3526 14.256 66.7926 13.552 67.3526 12.96C67.9286 12.352 68.6086 11.888 69.3926 11.568C70.1926 11.232 71.0646 11.064 72.0086 11.064C72.8406 11.064 73.6166 11.224 74.3366 11.544C75.0566 11.864 75.6806 12.304 76.2086 12.864C76.7366 13.408 77.1366 14.064 77.4086 14.832C77.6966 15.584 77.8326 16.408 77.8166 17.304L77.7926 18.336H67.5446L66.9926 16.32H75.3206L74.9366 16.728V16.2C74.8886 15.704 74.7286 15.272 74.4566 14.904C74.1846 14.52 73.8326 14.224 73.4006 14.016C72.9846 13.792 72.5206 13.68 72.0086 13.68C71.2246 13.68 70.5606 13.832 70.0166 14.136C69.4886 14.44 69.0886 14.88 68.8166 15.456C68.5446 16.016 68.4086 16.72 68.4086 17.568C68.4086 18.384 68.5766 19.096 68.9126 19.704C69.2646 20.312 69.7526 20.784 70.3766 21.12C71.0166 21.44 71.7606 21.6 72.6086 21.6C73.2006 21.6 73.7446 21.504 74.2406 21.312C74.7366 21.12 75.2726 20.776 75.8486 20.28L77.3126 22.32C76.8806 22.72 76.3846 23.064 75.8246 23.352C75.2806 23.624 74.7046 23.84 74.0966 24C73.4886 24.16 72.8886 24.24 72.2966 24.24ZM88.8538 24V8.136H91.8058V24H88.8538ZM86.3578 14.088V11.352H94.5658V14.088H86.3578ZM101.473 24.24C100.433 24.24 99.4888 23.952 98.6408 23.376C97.7928 22.8 97.1128 22.016 96.6008 21.024C96.0888 20.032 95.8328 18.904 95.8328 17.64C95.8328 16.376 96.0888 15.248 96.6008 14.256C97.1128 13.264 97.8088 12.488 98.6888 11.928C99.5688 11.368 100.561 11.088 101.665 11.088C102.305 11.088 102.889 11.184 103.417 11.376C103.945 11.552 104.409 11.808 104.809 12.144C105.209 12.48 105.537 12.864 105.793 13.296C106.065 13.728 106.249 14.192 106.345 14.688L105.697 14.52V11.352H108.673V24H105.673V20.976L106.369 20.856C106.257 21.288 106.049 21.712 105.745 22.128C105.457 22.528 105.089 22.888 104.641 23.208C104.209 23.512 103.721 23.76 103.177 23.952C102.649 24.144 102.081 24.24 101.473 24.24ZM102.289 21.624C102.977 21.624 103.585 21.456 104.113 21.12C104.641 20.784 105.049 20.32 105.337 19.728C105.641 19.12 105.793 18.424 105.793 17.64C105.793 16.872 105.641 16.192 105.337 15.6C105.049 15.008 104.641 14.544 104.113 14.208C103.585 13.872 102.977 13.704 102.289 13.704C101.601 13.704 100.993 13.872 100.465 14.208C99.9528 14.544 99.5528 15.008 99.2648 15.6C98.9768 16.192 98.8328 16.872 98.8328 17.64C98.8328 18.424 98.9768 19.12 99.2648 19.728C99.5528 20.32 99.9528 20.784 100.465 21.12C100.993 21.456 101.601 21.624 102.289 21.624ZM116.319 24.24C115.199 24.24 114.191 24.056 113.295 23.688C112.415 23.304 111.695 22.76 111.135 22.056L113.055 20.4C113.535 20.944 114.071 21.336 114.663 21.576C115.255 21.816 115.879 21.936 116.535 21.936C116.807 21.936 117.047 21.904 117.255 21.84C117.479 21.776 117.671 21.68 117.831 21.552C117.991 21.424 118.111 21.28 118.191 21.12C118.287 20.944 118.335 20.752 118.335 20.544C118.335 20.16 118.191 19.856 117.903 19.632C117.743 19.52 117.487 19.4 117.135 19.272C116.799 19.144 116.359 19.016 115.815 18.888C114.951 18.664 114.231 18.408 113.655 18.12C113.079 17.816 112.631 17.48 112.311 17.112C112.039 16.808 111.831 16.464 111.687 16.08C111.559 15.696 111.495 15.28 111.495 14.832C111.495 14.272 111.615 13.768 111.855 13.32C112.111 12.856 112.455 12.456 112.887 12.12C113.319 11.784 113.823 11.528 114.399 11.352C114.975 11.176 115.575 11.088 116.199 11.088C116.839 11.088 117.455 11.168 118.047 11.328C118.655 11.488 119.215 11.72 119.727 12.024C120.255 12.312 120.703 12.664 121.071 13.08L119.439 14.88C119.135 14.592 118.799 14.336 118.431 14.112C118.079 13.888 117.719 13.712 117.351 13.584C116.983 13.44 116.639 13.368 116.319 13.368C116.015 13.368 115.743 13.4 115.503 13.464C115.263 13.512 115.063 13.592 114.903 13.704C114.743 13.816 114.615 13.96 114.519 14.136C114.439 14.296 114.399 14.488 114.399 14.712C114.415 14.904 114.463 15.088 114.543 15.264C114.639 15.424 114.767 15.56 114.927 15.672C115.103 15.784 115.367 15.912 115.719 16.056C116.071 16.2 116.527 16.336 117.087 16.464C117.871 16.672 118.527 16.904 119.055 17.16C119.583 17.416 119.999 17.712 120.303 18.048C120.607 18.336 120.823 18.672 120.951 19.056C121.079 19.44 121.143 19.864 121.143 20.328C121.143 21.08 120.927 21.752 120.495 22.344C120.079 22.936 119.503 23.4 118.767 23.736C118.047 24.072 117.231 24.24 116.319 24.24ZM126.504 20.136L125.928 17.376L131.928 11.352H135.864L126.504 20.136ZM123.744 24V6.24H126.696V24H123.744ZM132.288 24L127.632 18.36L129.72 16.584L135.936 24H132.288Z" fill="#111827"/>
<path d="M302.165 15.4565L306.491 19.413C307.018 19.8949 307.136 20.4463 306.844 21.0672C306.552 21.688 306.033 21.999 305.285 22H296.716C295.968 22 295.447 21.6891 295.156 21.0672C294.864 20.4453 294.982 19.8939 295.51 19.413L299.836 15.4565C300.002 15.3043 300.183 15.1902 300.377 15.1141C300.571 15.038 300.779 15 301.001 15C301.223 15 301.431 15.038 301.625 15.1141C301.819 15.1902 301.999 15.3043 302.165 15.4565Z" fill="#111827"/>
</svg>
