<svg width="253" height="30" viewBox="0 0 313 30" fill="none" xmlns="http://www.w3.org/2000/svg">
<path d="M9.384 24.24C8.168 24.24 7.056 24.032 6.048 23.616C5.04 23.2 4.168 22.608 3.432 21.84C2.696 21.056 2.12 20.136 1.704 19.08C1.304 18.008 1.104 16.84 1.104 15.576C1.104 14.36 1.32 13.232 1.752 12.192C2.184 11.152 2.784 10.24 3.552 9.456C4.32 8.672 5.216 8.064 6.24 7.632C7.264 7.2 8.376 6.984 9.576 6.984C10.392 6.984 11.184 7.104 11.952 7.344C12.72 7.584 13.424 7.92 14.064 8.352C14.704 8.768 15.24 9.256 15.672 9.816L13.68 12C13.264 11.568 12.832 11.208 12.384 10.92C11.952 10.616 11.496 10.392 11.016 10.248C10.552 10.088 10.072 10.008 9.576 10.008C8.84 10.008 8.144 10.144 7.488 10.416C6.848 10.688 6.288 11.072 5.808 11.568C5.344 12.064 4.976 12.656 4.704 13.344C4.432 14.016 4.296 14.768 4.296 15.6C4.296 16.448 4.424 17.216 4.68 17.904C4.952 18.592 5.328 19.184 5.808 19.68C6.304 20.176 6.888 20.56 7.56 20.832C8.248 21.088 9 21.216 9.816 21.216C10.344 21.216 10.856 21.144 11.352 21C11.848 20.856 12.304 20.656 12.72 20.4C13.152 20.128 13.544 19.816 13.896 19.464L15.432 21.936C15.048 22.368 14.536 22.76 13.896 23.112C13.256 23.464 12.536 23.744 11.736 23.952C10.952 24.144 10.168 24.24 9.384 24.24ZM18.1343 24V11.352H21.0383L21.0863 15.384L20.6783 14.472C20.8543 13.832 21.1583 13.256 21.5903 12.744C22.0223 12.232 22.5183 11.832 23.0783 11.544C23.6543 11.24 24.2543 11.088 24.8783 11.088C25.1503 11.088 25.4063 11.112 25.6463 11.16C25.9023 11.208 26.1103 11.264 26.2703 11.328L25.4783 14.568C25.3023 14.472 25.0863 14.392 24.8303 14.328C24.5743 14.264 24.3183 14.232 24.0623 14.232C23.6623 14.232 23.2783 14.312 22.9103 14.472C22.5583 14.616 22.2463 14.824 21.9743 15.096C21.7023 15.368 21.4863 15.688 21.3263 16.056C21.1823 16.408 21.1103 16.808 21.1103 17.256V24H18.1343ZM33.6248 24.24C32.2968 24.24 31.1208 23.96 30.0968 23.4C29.0888 22.84 28.2968 22.08 27.7208 21.12C27.1608 20.144 26.8808 19.032 26.8808 17.784C26.8808 16.792 27.0408 15.888 27.3608 15.072C27.6808 14.256 28.1208 13.552 28.6808 12.96C29.2568 12.352 29.9368 11.888 30.7208 11.568C31.5208 11.232 32.3928 11.064 33.3368 11.064C34.1688 11.064 34.9448 11.224 35.6648 11.544C36.3848 11.864 37.0088 12.304 37.5368 12.864C38.0648 13.408 38.4648 14.064 38.7368 14.832C39.0248 15.584 39.1608 16.408 39.1448 17.304L39.1208 18.336H28.8728L28.3208 16.32H36.6488L36.2648 16.728V16.2C36.2168 15.704 36.0568 15.272 35.7848 14.904C35.5128 14.52 35.1608 14.224 34.7288 14.016C34.3128 13.792 33.8488 13.68 33.3368 13.68C32.5528 13.68 31.8888 13.832 31.3448 14.136C30.8168 14.44 30.4168 14.88 30.1448 15.456C29.8728 16.016 29.7368 16.72 29.7368 17.568C29.7368 18.384 29.9048 19.096 30.2408 19.704C30.5928 20.312 31.0808 20.784 31.7048 21.12C32.3448 21.44 33.0888 21.6 33.9368 21.6C34.5288 21.6 35.0728 21.504 35.5688 21.312C36.0648 21.12 36.6008 20.776 37.1768 20.28L38.6407 22.32C38.2088 22.72 37.7128 23.064 37.1528 23.352C36.6088 23.624 36.0328 23.84 35.4248 24C34.8168 24.16 34.2168 24.24 33.6248 24.24ZM46.5353 24.24C45.4953 24.24 44.5513 23.952 43.7033 23.376C42.8553 22.8 42.1753 22.016 41.6633 21.024C41.1513 20.032 40.8953 18.904 40.8953 17.64C40.8953 16.376 41.1513 15.248 41.6633 14.256C42.1753 13.264 42.8713 12.488 43.7513 11.928C44.6313 11.368 45.6233 11.088 46.7273 11.088C47.3673 11.088 47.9513 11.184 48.4793 11.376C49.0073 11.552 49.4713 11.808 49.8713 12.144C50.2713 12.48 50.5993 12.864 50.8553 13.296C51.1273 13.728 51.3113 14.192 51.4073 14.688L50.7593 14.52V11.352H53.7353V24H50.7353V20.976L51.4313 20.856C51.3193 21.288 51.1113 21.712 50.8073 22.128C50.5193 22.528 50.1513 22.888 49.7033 23.208C49.2713 23.512 48.7833 23.76 48.2393 23.952C47.7113 24.144 47.1433 24.24 46.5353 24.24ZM47.3513 21.624C48.0393 21.624 48.6473 21.456 49.1753 21.12C49.7033 20.784 50.1113 20.32 50.3993 19.728C50.7033 19.12 50.8553 18.424 50.8553 17.64C50.8553 16.872 50.7033 16.192 50.3993 15.6C50.1113 15.008 49.7033 14.544 49.1753 14.208C48.6473 13.872 48.0393 13.704 47.3513 13.704C46.6633 13.704 46.0553 13.872 45.5273 14.208C45.0153 14.544 44.6153 15.008 44.3273 15.6C44.0393 16.192 43.8953 16.872 43.8953 17.64C43.8953 18.424 44.0393 19.12 44.3273 19.728C44.6153 20.32 45.0153 20.784 45.5273 21.12C46.0553 21.456 46.6633 21.624 47.3513 21.624ZM58.5257 24V8.136H61.4777V24H58.5257ZM56.0297 14.088V11.352H64.2377V14.088H56.0297ZM72.2966 24.24C70.9686 24.24 69.7926 23.96 68.7686 23.4C67.7606 22.84 66.9686 22.08 66.3926 21.12C65.8326 20.144 65.5526 19.032 65.5526 17.784C65.5526 16.792 65.7126 15.888 66.0326 15.072C66.3526 14.256 66.7926 13.552 67.3526 12.96C67.9286 12.352 68.6086 11.888 69.3926 11.568C70.1926 11.232 71.0646 11.064 72.0086 11.064C72.8406 11.064 73.6166 11.224 74.3366 11.544C75.0566 11.864 75.6806 12.304 76.2086 12.864C76.7366 13.408 77.1366 14.064 77.4086 14.832C77.6966 15.584 77.8326 16.408 77.8166 17.304L77.7926 18.336H67.5446L66.9926 16.32H75.3206L74.9366 16.728V16.2C74.8886 15.704 74.7286 15.272 74.4566 14.904C74.1846 14.52 73.8326 14.224 73.4006 14.016C72.9846 13.792 72.5206 13.68 72.0086 13.68C71.2246 13.68 70.5606 13.832 70.0166 14.136C69.4886 14.44 69.0886 14.88 68.8166 15.456C68.5446 16.016 68.4086 16.72 68.4086 17.568C68.4086 18.384 68.5766 19.096 68.9126 19.704C69.2646 20.312 69.7526 20.784 70.3766 21.12C71.0166 21.44 71.7606 21.6 72.6086 21.6C73.2006 21.6 73.7446 21.504 74.2406 21.312C74.7366 21.12 75.2726 20.776 75.8486 20.28L77.3126 22.32C76.8806 22.72 76.3846 23.064 75.8246 23.352C75.2806 23.624 74.7046 23.84 74.0966 24C73.4886 24.16 72.8886 24.24 72.2966 24.24ZM92.9098 24.24C91.7258 24.24 90.6618 23.952 89.7178 23.376C88.7738 22.8 88.0298 22.016 87.4858 21.024C86.9418 20.032 86.6698 18.912 86.6698 17.664C86.6698 16.416 86.9418 15.296 87.4858 14.304C88.0298 13.312 88.7738 12.528 89.7178 11.952C90.6618 11.376 91.7258 11.088 92.9098 11.088C94.0458 11.088 95.0778 11.304 96.0058 11.736C96.9338 12.168 97.6538 12.768 98.1658 13.536L96.5338 15.504C96.2938 15.168 95.9898 14.864 95.6218 14.592C95.2538 14.32 94.8618 14.104 94.4458 13.944C94.0298 13.784 93.6138 13.704 93.1978 13.704C92.4938 13.704 91.8618 13.88 91.3018 14.232C90.7578 14.568 90.3258 15.04 90.0058 15.648C89.6858 16.24 89.5258 16.912 89.5258 17.664C89.5258 18.416 89.6858 19.088 90.0058 19.68C90.3418 20.272 90.7898 20.744 91.3498 21.096C91.9098 21.448 92.5338 21.624 93.2218 21.624C93.6378 21.624 94.0378 21.56 94.4218 21.432C94.8218 21.288 95.1978 21.088 95.5498 20.832C95.9018 20.576 96.2298 20.256 96.5338 19.872L98.1658 21.864C97.6218 22.568 96.8698 23.144 95.9098 23.592C94.9658 24.024 93.9658 24.24 92.9098 24.24ZM100.447 24V6.24H103.423V24H100.447ZM112.442 24.24C111.178 24.24 110.05 23.96 109.058 23.4C108.066 22.824 107.282 22.04 106.706 21.048C106.13 20.056 105.842 18.928 105.842 17.664C105.842 16.4 106.13 15.272 106.706 14.28C107.282 13.288 108.066 12.512 109.058 11.952C110.05 11.376 111.178 11.088 112.442 11.088C113.69 11.088 114.81 11.376 115.802 11.952C116.794 12.512 117.57 13.288 118.13 14.28C118.706 15.272 118.994 16.4 118.994 17.664C118.994 18.928 118.706 20.056 118.13 21.048C117.57 22.04 116.794 22.824 115.802 23.4C114.81 23.96 113.69 24.24 112.442 24.24ZM112.442 21.624C113.13 21.624 113.738 21.448 114.266 21.096C114.81 20.744 115.234 20.272 115.538 19.68C115.858 19.088 116.01 18.416 115.994 17.664C116.01 16.896 115.858 16.216 115.538 15.624C115.234 15.032 114.81 14.568 114.266 14.232C113.738 13.88 113.13 13.704 112.442 13.704C111.754 13.704 111.13 13.88 110.57 14.232C110.026 14.568 109.602 15.04 109.298 15.648C108.994 16.24 108.842 16.912 108.842 17.664C108.842 18.416 108.994 19.088 109.298 19.68C109.602 20.272 110.026 20.744 110.57 21.096C111.13 21.448 111.754 21.624 112.442 21.624ZM126.026 24.24C125.114 24.24 124.322 24.04 123.65 23.64C122.978 23.224 122.466 22.64 122.114 21.888C121.762 21.12 121.586 20.208 121.586 19.152V11.352H124.538V18.528C124.538 19.2 124.642 19.776 124.85 20.256C125.058 20.72 125.362 21.08 125.762 21.336C126.162 21.592 126.642 21.72 127.202 21.72C127.618 21.72 127.994 21.656 128.33 21.528C128.682 21.384 128.986 21.192 129.242 20.952C129.498 20.696 129.698 20.4 129.842 20.064C129.986 19.712 130.058 19.336 130.058 18.936V11.352H133.01V24H130.13L130.082 21.36L130.61 21.072C130.418 21.68 130.09 22.224 129.626 22.704C129.178 23.168 128.642 23.544 128.018 23.832C127.394 24.104 126.73 24.24 126.026 24.24ZM141.558 24.24C140.438 24.24 139.43 23.96 138.534 23.4C137.654 22.824 136.95 22.048 136.422 21.072C135.91 20.08 135.654 18.944 135.654 17.664C135.654 16.4 135.91 15.272 136.422 14.28C136.934 13.288 137.63 12.512 138.51 11.952C139.406 11.376 140.414 11.088 141.534 11.088C142.142 11.088 142.726 11.184 143.286 11.376C143.862 11.568 144.374 11.832 144.822 12.168C145.27 12.488 145.622 12.848 145.878 13.248C146.15 13.648 146.302 14.064 146.334 14.496L145.542 14.592V6.24H148.494V24H145.638L145.566 21.024L146.142 21.072C146.126 21.472 145.982 21.856 145.71 22.224C145.454 22.592 145.118 22.928 144.702 23.232C144.286 23.536 143.798 23.784 143.238 23.976C142.694 24.152 142.134 24.24 141.558 24.24ZM142.134 21.744C142.822 21.744 143.43 21.568 143.958 21.216C144.486 20.864 144.894 20.384 145.182 19.776C145.486 19.168 145.638 18.464 145.638 17.664C145.638 16.88 145.486 16.184 145.182 15.576C144.894 14.952 144.486 14.472 143.958 14.136C143.43 13.784 142.822 13.608 142.134 13.608C141.446 13.608 140.838 13.784 140.31 14.136C139.782 14.472 139.366 14.952 139.062 15.576C138.774 16.184 138.63 16.88 138.63 17.664C138.63 18.464 138.774 19.168 139.062 19.776C139.366 20.384 139.782 20.864 140.31 21.216C140.838 21.568 141.446 21.744 142.134 21.744ZM163.124 24.24C162.004 24.24 160.996 24.056 160.1 23.688C159.22 23.304 158.5 22.76 157.94 22.056L159.86 20.4C160.34 20.944 160.876 21.336 161.468 21.576C162.06 21.816 162.684 21.936 163.34 21.936C163.612 21.936 163.852 21.904 164.06 21.84C164.284 21.776 164.476 21.68 164.636 21.552C164.796 21.424 164.916 21.28 164.996 21.12C165.092 20.944 165.14 20.752 165.14 20.544C165.14 20.16 164.996 19.856 164.708 19.632C164.548 19.52 164.292 19.4 163.94 19.272C163.604 19.144 163.164 19.016 162.62 18.888C161.756 18.664 161.036 18.408 160.46 18.12C159.884 17.816 159.436 17.48 159.116 17.112C158.844 16.808 158.636 16.464 158.492 16.08C158.364 15.696 158.3 15.28 158.3 14.832C158.3 14.272 158.42 13.768 158.66 13.32C158.916 12.856 159.26 12.456 159.692 12.12C160.124 11.784 160.628 11.528 161.204 11.352C161.78 11.176 162.38 11.088 163.004 11.088C163.644 11.088 164.26 11.168 164.852 11.328C165.46 11.488 166.02 11.72 166.532 12.024C167.06 12.312 167.508 12.664 167.876 13.08L166.244 14.88C165.94 14.592 165.604 14.336 165.236 14.112C164.884 13.888 164.524 13.712 164.156 13.584C163.788 13.44 163.444 13.368 163.124 13.368C162.82 13.368 162.548 13.4 162.308 13.464C162.068 13.512 161.868 13.592 161.708 13.704C161.548 13.816 161.42 13.96 161.324 14.136C161.244 14.296 161.204 14.488 161.204 14.712C161.22 14.904 161.268 15.088 161.348 15.264C161.444 15.424 161.572 15.56 161.732 15.672C161.908 15.784 162.172 15.912 162.524 16.056C162.876 16.2 163.332 16.336 163.892 16.464C164.676 16.672 165.332 16.904 165.86 17.16C166.388 17.416 166.804 17.712 167.108 18.048C167.412 18.336 167.628 18.672 167.756 19.056C167.884 19.44 167.948 19.864 167.948 20.328C167.948 21.08 167.732 21.752 167.3 22.344C166.884 22.936 166.308 23.4 165.572 23.736C164.852 24.072 164.036 24.24 163.124 24.24ZM171.916 24V8.136H174.868V24H171.916ZM169.42 14.088V11.352H177.628V14.088H169.42ZM185.543 24.24C184.279 24.24 183.151 23.96 182.159 23.4C181.167 22.824 180.383 22.04 179.807 21.048C179.231 20.056 178.943 18.928 178.943 17.664C178.943 16.4 179.231 15.272 179.807 14.28C180.383 13.288 181.167 12.512 182.159 11.952C183.151 11.376 184.279 11.088 185.543 11.088C186.791 11.088 187.911 11.376 188.903 11.952C189.895 12.512 190.671 13.288 191.231 14.28C191.807 15.272 192.095 16.4 192.095 17.664C192.095 18.928 191.807 20.056 191.231 21.048C190.671 22.04 189.895 22.824 188.903 23.4C187.911 23.96 186.791 24.24 185.543 24.24ZM185.543 21.624C186.231 21.624 186.839 21.448 187.367 21.096C187.911 20.744 188.335 20.272 188.639 19.68C188.959 19.088 189.111 18.416 189.095 17.664C189.111 16.896 188.959 16.216 188.639 15.624C188.335 15.032 187.911 14.568 187.367 14.232C186.839 13.88 186.231 13.704 185.543 13.704C184.855 13.704 184.231 13.88 183.671 14.232C183.127 14.568 182.703 15.04 182.399 15.648C182.095 16.24 181.943 16.912 181.943 17.664C181.943 18.416 182.095 19.088 182.399 19.68C182.703 20.272 183.127 20.744 183.671 21.096C184.231 21.448 184.855 21.624 185.543 21.624ZM194.736 24V11.352H197.64L197.688 15.384L197.28 14.472C197.456 13.832 197.76 13.256 198.192 12.744C198.624 12.232 199.12 11.832 199.68 11.544C200.256 11.24 200.856 11.088 201.48 11.088C201.752 11.088 202.008 11.112 202.248 11.16C202.504 11.208 202.712 11.264 202.872 11.328L202.08 14.568C201.904 14.472 201.688 14.392 201.432 14.328C201.176 14.264 200.92 14.232 200.664 14.232C200.264 14.232 199.88 14.312 199.512 14.472C199.16 14.616 198.848 14.824 198.576 15.096C198.304 15.368 198.088 15.688 197.928 16.056C197.784 16.408 197.712 16.808 197.712 17.256V24H194.736ZM209.074 24.24C208.034 24.24 207.09 23.952 206.242 23.376C205.394 22.8 204.714 22.016 204.202 21.024C203.69 20.032 203.434 18.904 203.434 17.64C203.434 16.376 203.69 15.248 204.202 14.256C204.714 13.264 205.41 12.488 206.29 11.928C207.17 11.368 208.162 11.088 209.266 11.088C209.906 11.088 210.49 11.184 211.018 11.376C211.546 11.552 212.01 11.808 212.41 12.144C212.81 12.48 213.138 12.864 213.394 13.296C213.666 13.728 213.85 14.192 213.946 14.688L213.298 14.52V11.352H216.274V24H213.274V20.976L213.97 20.856C213.858 21.288 213.65 21.712 213.346 22.128C213.058 22.528 212.69 22.888 212.242 23.208C211.81 23.512 211.322 23.76 210.778 23.952C210.25 24.144 209.682 24.24 209.074 24.24ZM209.89 21.624C210.578 21.624 211.186 21.456 211.714 21.12C212.242 20.784 212.65 20.32 212.938 19.728C213.242 19.12 213.394 18.424 213.394 17.64C213.394 16.872 213.242 16.192 212.938 15.6C212.65 15.008 212.242 14.544 211.714 14.208C211.186 13.872 210.578 13.704 209.89 13.704C209.202 13.704 208.594 13.872 208.066 14.208C207.554 14.544 207.154 15.008 206.866 15.6C206.578 16.192 206.434 16.872 206.434 17.64C206.434 18.424 206.578 19.12 206.866 19.728C207.154 20.32 207.554 20.784 208.066 21.12C208.594 21.456 209.202 21.624 209.89 21.624ZM225.385 29.52C224.441 29.52 223.497 29.376 222.553 29.088C221.625 28.8 220.873 28.424 220.297 27.96L221.353 25.776C221.689 26.016 222.065 26.224 222.481 26.4C222.897 26.576 223.337 26.712 223.801 26.808C224.281 26.904 224.753 26.952 225.217 26.952C226.065 26.952 226.769 26.816 227.329 26.544C227.905 26.288 228.337 25.888 228.625 25.344C228.913 24.816 229.057 24.152 229.057 23.352V21.024L229.489 21.192C229.393 21.688 229.129 22.16 228.697 22.608C228.265 23.056 227.721 23.424 227.065 23.712C226.409 23.984 225.737 24.12 225.049 24.12C223.849 24.12 222.785 23.84 221.857 23.28C220.945 22.72 220.217 21.96 219.673 21C219.145 20.024 218.881 18.904 218.881 17.64C218.881 16.376 219.145 15.256 219.673 14.28C220.201 13.288 220.921 12.512 221.833 11.952C222.761 11.376 223.801 11.088 224.953 11.088C225.433 11.088 225.897 11.144 226.345 11.256C226.793 11.368 227.201 11.528 227.569 11.736C227.953 11.944 228.297 12.176 228.601 12.432C228.905 12.688 229.153 12.96 229.345 13.248C229.537 13.536 229.657 13.816 229.705 14.088L229.081 14.28L229.129 11.352H232.033V23.136C232.033 24.16 231.881 25.064 231.577 25.848C231.273 26.632 230.833 27.296 230.257 27.84C229.681 28.4 228.985 28.816 228.169 29.088C227.353 29.376 226.425 29.52 225.385 29.52ZM225.505 21.6C226.225 21.6 226.857 21.432 227.401 21.096C227.961 20.76 228.393 20.296 228.697 19.704C229.001 19.112 229.153 18.432 229.153 17.664C229.153 16.88 228.993 16.192 228.673 15.6C228.369 14.992 227.945 14.52 227.401 14.184C226.857 13.848 226.225 13.68 225.505 13.68C224.785 13.68 224.153 13.856 223.609 14.208C223.065 14.544 222.633 15.016 222.313 15.624C222.009 16.216 221.857 16.896 221.857 17.664C221.857 18.416 222.009 19.096 222.313 19.704C222.633 20.296 223.065 20.76 223.609 21.096C224.153 21.432 224.785 21.6 225.505 21.6ZM241.375 24.24C240.047 24.24 238.871 23.96 237.847 23.4C236.839 22.84 236.047 22.08 235.471 21.12C234.911 20.144 234.631 19.032 234.631 17.784C234.631 16.792 234.791 15.888 235.111 15.072C235.431 14.256 235.871 13.552 236.431 12.96C237.007 12.352 237.687 11.888 238.471 11.568C239.271 11.232 240.143 11.064 241.087 11.064C241.919 11.064 242.695 11.224 243.415 11.544C244.135 11.864 244.759 12.304 245.287 12.864C245.815 13.408 246.215 14.064 246.487 14.832C246.775 15.584 246.911 16.408 246.895 17.304L246.871 18.336H236.623L236.071 16.32H244.399L244.015 16.728V16.2C243.967 15.704 243.807 15.272 243.535 14.904C243.263 14.52 242.911 14.224 242.479 14.016C242.063 13.792 241.599 13.68 241.087 13.68C240.303 13.68 239.639 13.832 239.095 14.136C238.567 14.44 238.167 14.88 237.895 15.456C237.623 16.016 237.487 16.72 237.487 17.568C237.487 18.384 237.655 19.096 237.991 19.704C238.343 20.312 238.831 20.784 239.455 21.12C240.095 21.44 240.839 21.6 241.687 21.6C242.279 21.6 242.823 21.504 243.319 21.312C243.815 21.12 244.351 20.776 244.927 20.28L246.391 22.32C245.959 22.72 245.463 23.064 244.903 23.352C244.359 23.624 243.783 23.84 243.175 24C242.567 24.16 241.967 24.24 241.375 24.24Z" fill="#111827"/>
<path d="M299.835 20.5435L295.509 16.587C294.982 16.1051 294.864 15.5537 295.156 14.9328C295.448 14.312 295.967 14.001 296.715 14H305.284C306.032 14 306.553 14.3109 306.844 14.9328C307.136 15.5547 307.018 16.1061 306.49 16.587L302.164 20.5435C301.998 20.6957 301.817 20.8098 301.623 20.8859C301.429 20.962 301.221 21 300.999 21C300.777 21 300.569 20.962 300.375 20.8859C300.181 20.8098 300.001 20.6957 299.835 20.5435Z" fill="#111827"/>
</svg>
