<svg width="253" height="30" viewBox="0 0 313 30" fill="none" xmlns="http://www.w3.org/2000/svg">
<path d="M9.384 24.24C8.168 24.24 7.056 24.032 6.048 23.616C5.04 23.2 4.168 22.608 3.432 21.84C2.696 21.056 2.12 20.136 1.704 19.08C1.304 18.008 1.104 16.84 1.104 15.576C1.104 14.36 1.32 13.232 1.752 12.192C2.184 11.152 2.784 10.24 3.552 9.456C4.32 8.672 5.216 8.064 6.24 7.632C7.264 7.2 8.376 6.984 9.576 6.984C10.392 6.984 11.184 7.104 11.952 7.344C12.72 7.584 13.424 7.92 14.064 8.352C14.704 8.768 15.24 9.256 15.672 9.816L13.68 12C13.264 11.568 12.832 11.208 12.384 10.92C11.952 10.616 11.496 10.392 11.016 10.248C10.552 10.088 10.072 10.008 9.576 10.008C8.84 10.008 8.144 10.144 7.488 10.416C6.848 10.688 6.288 11.072 5.808 11.568C5.344 12.064 4.976 12.656 4.704 13.344C4.432 14.016 4.296 14.768 4.296 15.6C4.296 16.448 4.424 17.216 4.68 17.904C4.952 18.592 5.328 19.184 5.808 19.68C6.304 20.176 6.888 20.56 7.56 20.832C8.248 21.088 9 21.216 9.816 21.216C10.344 21.216 10.856 21.144 11.352 21C11.848 20.856 12.304 20.656 12.72 20.4C13.152 20.128 13.544 19.816 13.896 19.464L15.432 21.936C15.048 22.368 14.536 22.76 13.896 23.112C13.256 23.464 12.536 23.744 11.736 23.952C10.952 24.144 10.168 24.24 9.384 24.24ZM18.1343 24V11.352H21.0383L21.0863 15.384L20.6783 14.472C20.8543 13.832 21.1583 13.256 21.5903 12.744C22.0223 12.232 22.5183 11.832 23.0783 11.544C23.6543 11.24 24.2543 11.088 24.8783 11.088C25.1503 11.088 25.4063 11.112 25.6463 11.16C25.9023 11.208 26.1103 11.264 26.2703 11.328L25.4783 14.568C25.3023 14.472 25.0863 14.392 24.8303 14.328C24.5743 14.264 24.3183 14.232 24.0623 14.232C23.6623 14.232 23.2783 14.312 22.9103 14.472C22.5583 14.616 22.2463 14.824 21.9743 15.096C21.7023 15.368 21.4863 15.688 21.3263 16.056C21.1823 16.408 21.1103 16.808 21.1103 17.256V24H18.1343ZM33.6248 24.24C32.2968 24.24 31.1208 23.96 30.0968 23.4C29.0888 22.84 28.2968 22.08 27.7208 21.12C27.1608 20.144 26.8808 19.032 26.8808 17.784C26.8808 16.792 27.0408 15.888 27.3608 15.072C27.6808 14.256 28.1208 13.552 28.6808 12.96C29.2568 12.352 29.9368 11.888 30.7208 11.568C31.5208 11.232 32.3928 11.064 33.3368 11.064C34.1688 11.064 34.9448 11.224 35.6648 11.544C36.3848 11.864 37.0088 12.304 37.5368 12.864C38.0648 13.408 38.4648 14.064 38.7368 14.832C39.0248 15.584 39.1608 16.408 39.1448 17.304L39.1208 18.336H28.8728L28.3208 16.32H36.6488L36.2648 16.728V16.2C36.2168 15.704 36.0568 15.272 35.7848 14.904C35.5128 14.52 35.1608 14.224 34.7288 14.016C34.3128 13.792 33.8488 13.68 33.3368 13.68C32.5528 13.68 31.8888 13.832 31.3448 14.136C30.8168 14.44 30.4168 14.88 30.1448 15.456C29.8728 16.016 29.7368 16.72 29.7368 17.568C29.7368 18.384 29.9048 19.096 30.2408 19.704C30.5928 20.312 31.0808 20.784 31.7048 21.12C32.3448 21.44 33.0888 21.6 33.9368 21.6C34.5288 21.6 35.0728 21.504 35.5688 21.312C36.0648 21.12 36.6008 20.776 37.1768 20.28L38.6407 22.32C38.2088 22.72 37.7128 23.064 37.1528 23.352C36.6088 23.624 36.0328 23.84 35.4248 24C34.8168 24.16 34.2168 24.24 33.6248 24.24ZM46.5353 24.24C45.4953 24.24 44.5513 23.952 43.7033 23.376C42.8553 22.8 42.1753 22.016 41.6633 21.024C41.1513 20.032 40.8953 18.904 40.8953 17.64C40.8953 16.376 41.1513 15.248 41.6633 14.256C42.1753 13.264 42.8713 12.488 43.7513 11.928C44.6313 11.368 45.6233 11.088 46.7273 11.088C47.3673 11.088 47.9513 11.184 48.4793 11.376C49.0073 11.552 49.4713 11.808 49.8713 12.144C50.2713 12.48 50.5993 12.864 50.8553 13.296C51.1273 13.728 51.3113 14.192 51.4073 14.688L50.7593 14.52V11.352H53.7353V24H50.7353V20.976L51.4313 20.856C51.3193 21.288 51.1113 21.712 50.8073 22.128C50.5193 22.528 50.1513 22.888 49.7033 23.208C49.2713 23.512 48.7833 23.76 48.2393 23.952C47.7113 24.144 47.1433 24.24 46.5353 24.24ZM47.3513 21.624C48.0393 21.624 48.6473 21.456 49.1753 21.12C49.7033 20.784 50.1113 20.32 50.3993 19.728C50.7033 19.12 50.8553 18.424 50.8553 17.64C50.8553 16.872 50.7033 16.192 50.3993 15.6C50.1113 15.008 49.7033 14.544 49.1753 14.208C48.6473 13.872 48.0393 13.704 47.3513 13.704C46.6633 13.704 46.0553 13.872 45.5273 14.208C45.0153 14.544 44.6153 15.008 44.3273 15.6C44.0393 16.192 43.8953 16.872 43.8953 17.64C43.8953 18.424 44.0393 19.12 44.3273 19.728C44.6153 20.32 45.0153 20.784 45.5273 21.12C46.0553 21.456 46.6633 21.624 47.3513 21.624ZM58.5257 24V8.136H61.4777V24H58.5257ZM56.0297 14.088V11.352H64.2377V14.088H56.0297ZM72.2966 24.24C70.9686 24.24 69.7926 23.96 68.7686 23.4C67.7606 22.84 66.9686 22.08 66.3926 21.12C65.8326 20.144 65.5526 19.032 65.5526 17.784C65.5526 16.792 65.7126 15.888 66.0326 15.072C66.3526 14.256 66.7926 13.552 67.3526 12.96C67.9286 12.352 68.6086 11.888 69.3926 11.568C70.1926 11.232 71.0646 11.064 72.0086 11.064C72.8406 11.064 73.6166 11.224 74.3366 11.544C75.0566 11.864 75.6806 12.304 76.2086 12.864C76.7366 13.408 77.1366 14.064 77.4086 14.832C77.6966 15.584 77.8326 16.408 77.8166 17.304L77.7926 18.336H67.5446L66.9926 16.32H75.3206L74.9366 16.728V16.2C74.8886 15.704 74.7286 15.272 74.4566 14.904C74.1846 14.52 73.8326 14.224 73.4006 14.016C72.9846 13.792 72.5206 13.68 72.0086 13.68C71.2246 13.68 70.5606 13.832 70.0166 14.136C69.4886 14.44 69.0886 14.88 68.8166 15.456C68.5446 16.016 68.4086 16.72 68.4086 17.568C68.4086 18.384 68.5766 19.096 68.9126 19.704C69.2646 20.312 69.7526 20.784 70.3766 21.12C71.0166 21.44 71.7606 21.6 72.6086 21.6C73.2006 21.6 73.7446 21.504 74.2406 21.312C74.7366 21.12 75.2726 20.776 75.8486 20.28L77.3126 22.32C76.8806 22.72 76.3846 23.064 75.8246 23.352C75.2806 23.624 74.7046 23.84 74.0966 24C73.4886 24.16 72.8886 24.24 72.2966 24.24ZM87.4858 29.28V11.352H90.3898L90.4378 14.232L89.9338 14.016C90.0298 13.52 90.3018 13.056 90.7498 12.624C91.1978 12.176 91.7418 11.816 92.3818 11.544C93.0378 11.272 93.7178 11.136 94.4218 11.136C95.5418 11.136 96.5338 11.416 97.3978 11.976C98.2778 12.536 98.9658 13.304 99.4618 14.28C99.9738 15.256 100.23 16.384 100.23 17.664C100.23 18.928 99.9738 20.056 99.4618 21.048C98.9658 22.024 98.2778 22.8 97.3978 23.376C96.5338 23.936 95.5578 24.216 94.4698 24.216C93.7338 24.216 93.0218 24.072 92.3338 23.784C91.6618 23.496 91.0858 23.12 90.6058 22.656C90.1418 22.192 89.8538 21.704 89.7418 21.192L90.4618 20.856V29.28H87.4858ZM93.8698 21.6C94.5418 21.6 95.1418 21.432 95.6698 21.096C96.1978 20.76 96.6058 20.296 96.8938 19.704C97.1978 19.112 97.3498 18.432 97.3498 17.664C97.3498 16.896 97.2058 16.224 96.9178 15.648C96.6298 15.056 96.2218 14.592 95.6938 14.256C95.1658 13.92 94.5578 13.752 93.8698 13.752C93.1658 13.752 92.5498 13.92 92.0218 14.256C91.5098 14.576 91.1018 15.032 90.7978 15.624C90.4938 16.216 90.3418 16.896 90.3418 17.664C90.3418 18.432 90.4938 19.112 90.7978 19.704C91.1018 20.296 91.5098 20.76 92.0218 21.096C92.5498 21.432 93.1658 21.6 93.8698 21.6ZM102.861 24V11.352H105.765L105.813 15.384L105.405 14.472C105.581 13.832 105.885 13.256 106.317 12.744C106.749 12.232 107.245 11.832 107.805 11.544C108.381 11.24 108.981 11.088 109.605 11.088C109.877 11.088 110.133 11.112 110.373 11.16C110.629 11.208 110.837 11.264 110.997 11.328L110.205 14.568C110.029 14.472 109.813 14.392 109.557 14.328C109.301 14.264 109.045 14.232 108.789 14.232C108.389 14.232 108.005 14.312 107.637 14.472C107.285 14.616 106.973 14.824 106.701 15.096C106.429 15.368 106.213 15.688 106.053 16.056C105.909 16.408 105.837 16.808 105.837 17.256V24H102.861ZM118.207 24.24C116.943 24.24 115.815 23.96 114.823 23.4C113.831 22.824 113.047 22.04 112.471 21.048C111.895 20.056 111.607 18.928 111.607 17.664C111.607 16.4 111.895 15.272 112.471 14.28C113.047 13.288 113.831 12.512 114.823 11.952C115.815 11.376 116.943 11.088 118.207 11.088C119.455 11.088 120.575 11.376 121.567 11.952C122.559 12.512 123.335 13.288 123.895 14.28C124.471 15.272 124.759 16.4 124.759 17.664C124.759 18.928 124.471 20.056 123.895 21.048C123.335 22.04 122.559 22.824 121.567 23.4C120.575 23.96 119.455 24.24 118.207 24.24ZM118.207 21.624C118.895 21.624 119.503 21.448 120.031 21.096C120.575 20.744 120.999 20.272 121.303 19.68C121.623 19.088 121.775 18.416 121.759 17.664C121.775 16.896 121.623 16.216 121.303 15.624C120.999 15.032 120.575 14.568 120.031 14.232C119.503 13.88 118.895 13.704 118.207 13.704C117.519 13.704 116.895 13.88 116.335 14.232C115.791 14.568 115.367 15.04 115.063 15.648C114.759 16.24 114.607 16.912 114.607 17.664C114.607 18.416 114.759 19.088 115.063 19.68C115.367 20.272 115.791 20.744 116.335 21.096C116.895 21.448 117.519 21.624 118.207 21.624ZM126.008 28.824L124.88 26.568C125.552 26.568 126.088 26.464 126.488 26.256C126.904 26.048 127.208 25.728 127.4 25.296C127.608 24.864 127.712 24.312 127.712 23.64V11.352H130.664V24.336C130.664 25.28 130.472 26.088 130.088 26.76C129.72 27.432 129.184 27.944 128.48 28.296C127.792 28.648 126.968 28.824 126.008 28.824ZM129.248 8.664C128.64 8.664 128.168 8.52 127.832 8.232C127.512 7.928 127.352 7.504 127.352 6.96C127.352 6.448 127.52 6.032 127.856 5.712C128.192 5.392 128.656 5.232 129.248 5.232C129.84 5.232 130.296 5.384 130.616 5.688C130.952 5.976 131.12 6.4 131.12 6.96C131.12 7.456 130.952 7.864 130.616 8.184C130.28 8.504 129.824 8.664 129.248 8.664ZM140.125 24.24C138.797 24.24 137.621 23.96 136.597 23.4C135.589 22.84 134.797 22.08 134.221 21.12C133.661 20.144 133.381 19.032 133.381 17.784C133.381 16.792 133.541 15.888 133.861 15.072C134.181 14.256 134.621 13.552 135.181 12.96C135.757 12.352 136.437 11.888 137.221 11.568C138.021 11.232 138.893 11.064 139.837 11.064C140.669 11.064 141.445 11.224 142.165 11.544C142.885 11.864 143.509 12.304 144.037 12.864C144.565 13.408 144.965 14.064 145.237 14.832C145.525 15.584 145.661 16.408 145.645 17.304L145.621 18.336H135.373L134.821 16.32H143.149L142.765 16.728V16.2C142.717 15.704 142.557 15.272 142.285 14.904C142.013 14.52 141.661 14.224 141.229 14.016C140.813 13.792 140.349 13.68 139.837 13.68C139.053 13.68 138.389 13.832 137.845 14.136C137.317 14.44 136.917 14.88 136.645 15.456C136.373 16.016 136.237 16.72 136.237 17.568C136.237 18.384 136.405 19.096 136.741 19.704C137.093 20.312 137.581 20.784 138.205 21.12C138.845 21.44 139.589 21.6 140.437 21.6C141.029 21.6 141.573 21.504 142.069 21.312C142.565 21.12 143.101 20.776 143.677 20.28L145.141 22.32C144.709 22.72 144.213 23.064 143.653 23.352C143.109 23.624 142.533 23.84 141.925 24C141.317 24.16 140.717 24.24 140.125 24.24ZM153.683 24.24C152.499 24.24 151.435 23.952 150.491 23.376C149.547 22.8 148.803 22.016 148.259 21.024C147.715 20.032 147.443 18.912 147.443 17.664C147.443 16.416 147.715 15.296 148.259 14.304C148.803 13.312 149.547 12.528 150.491 11.952C151.435 11.376 152.499 11.088 153.683 11.088C154.819 11.088 155.851 11.304 156.779 11.736C157.707 12.168 158.427 12.768 158.939 13.536L157.307 15.504C157.067 15.168 156.763 14.864 156.395 14.592C156.027 14.32 155.635 14.104 155.219 13.944C154.803 13.784 154.387 13.704 153.971 13.704C153.267 13.704 152.635 13.88 152.075 14.232C151.531 14.568 151.099 15.04 150.779 15.648C150.459 16.24 150.299 16.912 150.299 17.664C150.299 18.416 150.459 19.088 150.779 19.68C151.115 20.272 151.563 20.744 152.123 21.096C152.683 21.448 153.307 21.624 153.995 21.624C154.411 21.624 154.811 21.56 155.195 21.432C155.595 21.288 155.971 21.088 156.323 20.832C156.675 20.576 157.003 20.256 157.307 19.872L158.939 21.864C158.395 22.568 157.643 23.144 156.683 23.592C155.739 24.024 154.739 24.24 153.683 24.24ZM162.565 24V8.136H165.517V24H162.565ZM160.069 14.088V11.352H168.277V14.088H160.069Z" fill="#111827"/>
<path d="M302.165 15.4565L306.491 19.413C307.018 19.8949 307.136 20.4463 306.844 21.0672C306.552 21.688 306.033 21.999 305.285 22H296.716C295.968 22 295.447 21.6891 295.156 21.0672C294.864 20.4453 294.982 19.8939 295.51 19.413L299.836 15.4565C300.002 15.3043 300.183 15.1902 300.377 15.1141C300.571 15.038 300.779 15 301.001 15C301.223 15 301.431 15.038 301.625 15.1141C301.819 15.1902 301.999 15.3043 302.165 15.4565Z" fill="#111827"/>
</svg>
