<svg width="50" height="50" viewBox="0 0 50 50" fill="none" xmlns="http://www.w3.org/2000/svg">
<rect width="50" height="50" rx="5" fill="white"/>
<path fill-rule="evenodd" clip-rule="evenodd" d="M24.4936 8.91287C24.6522 8.83904 24.825 8.80078 25 8.80078C25.1749 8.80078 25.3478 8.83904 25.5064 8.91287L39.9064 15.6329C40.1135 15.7293 40.2888 15.8828 40.4117 16.0754C40.5345 16.268 40.5999 16.4916 40.6 16.7201V33.2801C40.5999 33.5085 40.5345 33.7322 40.4117 33.9248C40.2888 34.1173 40.1135 34.2709 39.9064 34.3673L25.5064 41.0873C25.3478 41.1611 25.1749 41.1994 25 41.1994C24.825 41.1994 24.6522 41.1611 24.4936 41.0873L10.0936 34.3673C9.88649 34.2709 9.7112 34.1173 9.58834 33.9248C9.46547 33.7322 9.40013 33.5085 9.39999 33.2801V16.7201C9.40013 16.4916 9.46547 16.268 9.58834 16.0754C9.7112 15.8828 9.88649 15.7293 10.0936 15.6329L24.4936 8.91287ZM11.8 18.5345L23.8 23.6321V38.1137L11.8 32.5145V18.5345ZM26.2 38.1161L38.2 32.5169V18.5345L26.2 23.6321V38.1137V38.1161ZM25 21.5369L36.4528 16.6697L25 11.3249L13.5472 16.6697L25 21.5369Z" fill="#111827"/>
</svg>
