
<!-- <svg width="64" height="12" viewBox="0 0 80 15" xmlns="http://www.w3.org/2000/svg">
    <path d="M6.63399 15C2.37083 15 0 12.5333 0 7.48889C0 2.46667 2.34908 0 6.63399 0H10.6576V2.62222H6.63399C3.78464 2.62222 2.56659 4.06667 2.56659 7.48889C2.56659 10.9333 3.80639 12.3778 6.63399 12.3778H15.0638V15H6.63399Z"/>
    <path d="M22.412 0L27.2466 13.1004C27.7814 14.5415 28.8724 15 30.2842 15C31.7817 15 32.7657 14.476 33.3005 13.1004L38.3918 0H35.5895L30.9902 11.8559C30.8404 12.2052 30.6265 12.3581 30.2842 12.3581C29.942 12.3581 29.7067 12.2052 29.5783 11.8559L25.1929 0H22.412Z"/>
    <path d="M53.0989 3.1441C53.2487 2.79476 53.484 2.64192 53.8262 2.64192C54.1685 2.64192 54.4038 2.79476 54.5322 3.1441L58.9176 15H61.7199L56.8425 1.89956C56.3291 0.524017 55.3451 0 53.8476 0C52.3288 0 51.3448 0.524017 50.81 1.89956L45.74 15H48.521L53.0989 3.1441Z"/>
    <path d="M69.0681 0V2.5665H73.2661V15H75.802V2.5665H80V0H69.0681Z"/>
</svg> -->


<svg width="500" height="90" viewBox="0 0 747 128" fill="none" xmlns="http://www.w3.org/2000/svg">
<path d="M567.169 100.37C567.169 96.0733 568.335 93.0841 570.667 91.4027C572.999 89.6278 575.844 88.7404 579.202 88.7404C582.466 88.7404 585.264 89.6278 587.596 91.4027C589.928 93.0841 591.094 96.0733 591.094 100.37C591.094 104.48 589.928 107.47 587.596 109.338C585.264 111.113 582.466 112 579.202 112C575.844 112 572.999 111.113 570.667 109.338C568.335 107.47 567.169 104.48 567.169 100.37Z" fill="#37474F"/>
<path d="M609.024 104.714L606.086 110.178H630.71L631.689 108.357L651.696 72.0664L639.384 49.9277L609.024 104.714ZM710.038 104.714L670.864 33.9543L662.749 19.382L661.909 17.4203H657.153L656.173 19.382L648.198 33.9543L647.219 35.7758L659.531 58.0546L659.811 58.615L687.373 108.357L688.352 110.178H712.976L710.038 104.714Z" fill="#37474F"/>
<path d="M727.413 17.5605V110.178H747V17.5605H727.413Z" fill="#37474F"/>
<path d="M271.385 57.6342C269.846 46.705 264.53 36.6165 256.275 29.3304C248.72 22.6047 239.067 18.5413 229.133 17.8407L188 17.7006V37.3171H226.755C228.154 37.4572 229.553 37.5973 230.812 37.8776C234.729 38.7183 238.367 40.3997 241.585 42.7817C246.901 46.705 250.399 52.4499 251.798 58.8953C252.078 60.5767 252.218 62.3982 252.218 64.0796C252.218 66.0413 252.078 67.8628 251.658 69.6844C249.42 80.4735 240.606 88.8805 229.693 90.562H207.587V51.0487H188V110.178H231.232C251.798 107.656 268.447 91.5428 271.385 70.9454C271.665 68.7035 271.945 66.4617 271.945 64.0796C271.945 61.9779 271.805 59.736 271.385 57.6342Z" fill="#7E96EA"/>
<path d="M273.462 104.714L270.524 110.178H295.148L296.127 108.357L316.134 72.0664L303.822 49.9277L273.462 104.714ZM374.476 104.714L335.302 33.9543L327.187 19.382L326.348 17.4203H321.591L320.611 19.382L312.637 33.9543L311.657 35.7758L323.969 58.0546L324.249 58.615L351.811 108.357L352.79 110.178H377.414L374.476 104.714Z" fill="#7E96EA"/>
<path d="M408.296 90.562V17H388.709V110.178H462.161V90.562H408.296Z" fill="#7E96EA"/>
<path d="M534.07 19.1018C534.07 19.1018 532.811 18.6814 530.852 18.2611C528.894 17.9808 526.795 17.7006 526.795 17.7006H476.288V37.3171H521.758V37.4572H524.976L525.116 37.3171C525.256 37.3171 525.396 37.3171 525.536 37.3171C529.313 37.3171 532.251 40.3997 532.251 44.0428C532.251 47.826 529.313 50.7684 525.536 50.7684H476.288V110.178H495.875V70.5251H527.495C527.495 70.5251 528.054 70.5251 531.552 69.6844C535.05 68.8437 535.189 68.7035 535.189 68.7035C538.827 67.1622 542.185 64.9204 544.843 61.9779C549.46 57.2139 551.839 50.7684 551.839 44.0428C551.839 32.5531 544.563 22.7448 534.07 19.1018Z" fill="#7E96EA"/>
<path d="M56.3235 81.6404C32.0895 77.4488 15.3921 51.7773 21.6586 27.806C-1.79988 37.9736 -7.54369 72.4379 11.0758 89.6477C27.8407 107.407 59.8867 103.176 71.5147 81.8874C66.5803 82.6786 61.2074 82.5775 56.3291 81.6404H56.3235ZM26.1603 38.2542C26.1603 52.6303 34.1128 65.5137 46.522 72.163C38.9573 42.2774 67.6369 12.476 98.0137 19.0917C78.6131 -14.7162 26.076 -0.704788 26.1603 38.2598V38.2542Z" fill="#7E96EA"/>
<path d="M54.9028 46.3285C64.9123 22.4694 99.3075 16.1623 117.146 35.1004C135.153 51.8556 130.466 84.76 108.648 95.8535C110.7 82.4314 106.17 68.5659 97.0932 59.0885C86.7016 47.7874 69.8805 42.7148 54.9028 46.3229V46.3285ZM103.376 89.3668C103.388 74.6597 95.0362 61.507 82.1661 55.0203C87.8312 84.3841 59.4551 112.137 30 105.623C36.2327 118.837 49.3277 127.608 64.4796 127.787C85.6281 128.298 103.663 110.218 103.371 89.3668H103.376Z" fill="#37474F"/>
</svg>
