<svg width="100" height="20" viewBox="0 0 129 128" fill="none" xmlns="http://www.w3.org/2000/svg">
<path d="M56.3235 81.6404C32.0895 77.4488 15.3921 51.7773 21.6586 27.806C-1.79988 37.9736 -7.54369 72.4379 11.0758 89.6477C27.8407 107.407 59.8867 103.176 71.5147 81.8874C66.5803 82.6786 61.2074 82.5775 56.3291 81.6404H56.3235ZM26.1603 38.2542C26.1603 52.6303 34.1128 65.5137 46.522 72.163C38.9573 42.2774 67.6369 12.476 98.0137 19.0917C78.6131 -14.7162 26.076 -0.704788 26.1603 38.2598V38.2542Z" fill="#7E96EA"/>
<path d="M54.9028 46.3285C64.9123 22.4694 99.3075 16.1623 117.146 35.1004C135.153 51.8556 130.466 84.76 108.648 95.8535C110.7 82.4314 106.17 68.5659 97.0932 59.0885C86.7016 47.7874 69.8805 42.7148 54.9028 46.3229V46.3285ZM103.376 89.3668C103.388 74.6597 95.0362 61.507 82.1661 55.0203C87.8312 84.3841 59.4551 112.137 30 105.623C36.2327 118.837 49.3277 127.608 64.4796 127.787C85.6281 128.298 103.663 110.218 103.371 89.3668H103.376Z" fill="#37474F"/>
</svg>
