<svg width="50" height="50" viewBox="0 0 50 50" fill="none" xmlns="http://www.w3.org/2000/svg">
<rect width="50" height="50" rx="5" fill="white"/>
<path d="M37.8749 15.1718C37.5163 14.8003 37.0906 14.5056 36.6221 14.3046C36.1537 14.1035 35.6515 14 35.1444 14C34.6373 14 34.1352 14.1035 33.6667 14.3046C33.1982 14.5056 32.7725 14.8003 32.414 15.1718C32.1709 15.4234 31.9616 15.7075 31.7914 16.0167L28.3864 15.0543C28.397 14.2586 28.1781 13.4777 27.7578 12.8116C27.3376 12.1454 26.735 11.6243 26.0273 11.3148C25.3195 11.0054 24.5388 10.9216 23.7848 11.0743C23.0309 11.2271 22.3381 11.6093 21.795 12.1721C21.2151 12.7742 20.8352 13.5518 20.7103 14.3924C20.5853 15.233 20.7218 16.093 21.1 16.8478L17.0049 20.6662C16.2619 20.1575 15.3722 19.93 14.4861 20.0223C13.6 20.1145 12.7717 20.5207 12.1413 21.1724C11.4364 21.897 11.0281 22.8752 11.0014 23.9036C10.9747 24.932 11.3315 25.9315 11.9978 26.6944C12.664 27.4573 13.5885 27.9249 14.5789 28C15.5694 28.0752 16.5498 27.7521 17.3162 27.0979L25.7622 33.5172C25.4919 34.2183 25.4187 34.9844 25.551 35.7268C25.6834 36.4693 26.0159 37.1577 26.5101 37.7126C27.0044 38.2675 27.6401 38.6661 28.3439 38.8624C29.0476 39.0587 29.7907 39.0447 30.4871 38.8219C31.1834 38.5992 31.8047 38.1768 32.2791 37.6036C32.7535 37.0304 33.0615 36.3299 33.1677 35.5829C33.2738 34.836 33.1737 34.0732 32.8789 33.3827C32.5841 32.6923 32.1067 32.1023 31.5018 31.6811L34.8066 21.9835C34.9176 21.9935 35.0286 21.9985 35.1396 21.9985C35.9031 21.9984 36.6494 21.7638 37.2842 21.3244C37.9189 20.885 38.4137 20.2605 38.706 19.5299C38.9982 18.7992 39.0748 17.9952 38.926 17.2195C38.7772 16.4438 38.4097 15.7312 37.87 15.1718H37.8749ZM23.1548 13.5857C23.4249 13.3063 23.7688 13.116 24.1433 13.0391C24.5177 12.9621 24.9057 13.0018 25.2584 13.1532C25.611 13.3047 25.9124 13.561 26.1244 13.8898C26.3364 14.2186 26.4496 14.6051 26.4496 15.0006C26.4496 15.396 26.3364 15.7825 26.1244 16.1113C25.9124 16.4402 25.611 16.6965 25.2584 16.8479C24.9057 16.9993 24.5177 17.0391 24.1433 16.9621C23.7688 16.8851 23.4249 16.6949 23.1548 16.4154C22.9756 16.2293 22.8336 16.0085 22.7369 15.7656C22.6401 15.5226 22.5906 15.2623 22.591 14.9995C22.5915 14.7367 22.6419 14.4766 22.7395 14.234C22.837 13.9914 22.9798 13.7711 23.1596 13.5857H23.1548ZM13.5023 25.4156C13.3228 25.2299 13.1804 25.0093 13.0832 24.7666C12.9861 24.5238 12.9361 24.2636 12.9361 24.0008C12.9361 23.738 12.9861 23.4778 13.0832 23.235C13.1804 22.9922 13.3228 22.7717 13.5023 22.5859C13.7723 22.3065 14.1163 22.1163 14.4908 22.0393C14.8652 21.9623 15.2532 22.002 15.6059 22.1534C15.9585 22.3049 16.2599 22.5612 16.4719 22.89C16.6839 23.2188 16.7971 23.6054 16.7971 24.0008C16.7971 24.3962 16.6839 24.7827 16.4719 25.1116C16.2599 25.4404 15.9585 25.6967 15.6059 25.8481C15.2532 25.9995 14.8652 26.0393 14.4908 25.9623C14.1163 25.8853 13.7723 25.6951 13.5023 25.4156ZM30.7139 36.4143C30.3518 36.7894 29.8607 37.0001 29.3487 37.0001C28.8366 37.0001 28.3455 36.7894 27.9834 36.4143C27.6214 36.0393 27.418 35.5306 27.418 35.0001C27.418 34.4697 27.6214 33.961 27.9834 33.5859C28.1627 33.4002 28.3756 33.2529 28.6098 33.1524C28.8441 33.0519 29.0951 33.0001 29.3487 33.0001C29.6022 33.0001 29.8533 33.0519 30.0875 33.1524C30.3218 33.2529 30.5346 33.4002 30.7139 33.5859C30.8932 33.7716 31.0354 33.9921 31.1324 34.2348C31.2295 34.4774 31.2794 34.7375 31.2794 35.0001C31.2794 35.2628 31.2295 35.5229 31.1324 35.7655C31.0354 36.0082 30.8932 36.2286 30.7139 36.4143ZM29.6823 31.0175C28.6813 30.9272 27.6858 31.2446 26.9072 31.9024L18.4613 25.4831C18.6659 24.9482 18.7574 24.3741 18.7295 23.7995C18.7016 23.2249 18.555 22.6631 18.2996 22.1522L22.3959 18.3339C22.8365 18.6365 23.3325 18.8421 23.853 18.9379C24.3736 19.0338 24.9076 19.0179 25.4219 18.8912C25.9363 18.7646 26.42 18.5298 26.8432 18.2015C27.2664 17.8733 27.62 17.4585 27.8821 16.9828L31.2822 17.9465C31.273 18.6113 31.4239 19.2681 31.7214 19.8573C32.0189 20.4465 32.4535 20.9496 32.9859 21.3211L29.6823 31.0175ZM36.5066 19.4138C36.3301 19.6114 36.1169 19.7701 35.8798 19.8803C35.6427 19.9904 35.3865 20.0499 35.1266 20.0551C34.8668 20.0602 34.6086 20.011 34.3676 19.9103C34.1266 19.8096 33.9076 19.6595 33.724 19.4691C33.5403 19.2786 33.3956 19.0517 33.2986 18.802C33.2016 18.5522 33.1543 18.2847 33.1595 18.0155C33.1647 17.7464 33.2224 17.4811 33.3289 17.2355C33.4355 16.99 33.5889 16.7693 33.7798 16.5866C34.1419 16.2116 34.6329 16.0008 35.145 16.0008C35.6571 16.0008 36.1482 16.2116 36.5102 16.5866C36.8723 16.9617 37.0757 17.4704 37.0757 18.0008C37.0757 18.5313 36.8723 19.04 36.5102 19.4151L36.5066 19.4138Z" fill="#111827"/>
</svg>