<svg width="50" height="50" viewBox="0 0 50 50" fill="none" xmlns="http://www.w3.org/2000/svg">
<rect width="50" height="50" rx="5" fill="white"/>
<path d="M11.5 25C11.5 24.6022 11.342 24.2206 11.0607 23.9393C10.7794 23.658 10.3978 23.5 10 23.5C9.60218 23.5 9.22064 23.658 8.93934 23.9393C8.65804 24.2206 8.5 24.6022 8.5 25C8.5 25.3978 8.65804 25.7794 8.93934 26.0607C9.22064 26.342 9.60218 26.5 10 26.5C10.3978 26.5 10.7794 26.342 11.0607 26.0607C11.342 25.7794 11.5 25.3978 11.5 25Z" fill="#111827" stroke="#111827" stroke-width="2" stroke-linecap="round" stroke-linejoin="round"/>
<path d="M40 25C40 18.373 33.2845 13 25 13C16.7155 13 10 18.373 10 25C10 31.627 16.7155 37 25 37C33.2845 37 40 31.627 40 25Z" stroke="#111827" stroke-width="2" stroke-linecap="round" stroke-linejoin="round"/>
<path d="M41.5 25C41.5 24.6022 41.342 24.2206 41.0607 23.9393C40.7794 23.658 40.3978 23.5 40 23.5C39.6022 23.5 39.2206 23.658 38.9393 23.9393C38.658 24.2206 38.5 24.6022 38.5 25C38.5 25.3978 38.658 25.7794 38.9393 26.0607C39.2206 26.342 39.6022 26.5 40 26.5C40.3978 26.5 40.7794 26.342 41.0607 26.0607C41.342 25.7794 41.5 25.3978 41.5 25Z" fill="#111827" stroke="#111827" stroke-width="2" stroke-linecap="round" stroke-linejoin="round"/>
</svg>
