<svg width="253" height="30" viewBox="0 0 313 30" fill="none" xmlns="http://www.w3.org/2000/svg">
<path d="M34.256 24V7.2H37.376V24H34.256ZM35.696 17.112V14.28H44.36V17.112H35.696ZM35.696 10.08V7.2H45.392V10.08H35.696ZM48.6656 24V11.352H51.6176V24H48.6656ZM50.1056 8.664C49.5136 8.664 49.0496 8.52 48.7136 8.232C48.3936 7.928 48.2336 7.504 48.2336 6.96C48.2336 6.448 48.4016 6.032 48.7376 5.712C49.0736 5.392 49.5296 5.232 50.1056 5.232C50.7136 5.232 51.1776 5.384 51.4976 5.688C51.8336 5.976 52.0016 6.4 52.0016 6.96C52.0016 7.456 51.8336 7.864 51.4976 8.184C51.1616 8.504 50.6976 8.664 50.1056 8.664ZM55.3848 24V6.24H58.3608V24H55.3848ZM63.1273 24V8.136H66.0793V24H63.1273ZM60.6313 14.088V11.352H68.8393V14.088H60.6313ZM76.8982 24.24C75.5702 24.24 74.3942 23.96 73.3702 23.4C72.3622 22.84 71.5702 22.08 70.9942 21.12C70.4342 20.144 70.1542 19.032 70.1542 17.784C70.1542 16.792 70.3142 15.888 70.6342 15.072C70.9542 14.256 71.3942 13.552 71.9542 12.96C72.5302 12.352 73.2102 11.888 73.9942 11.568C74.7942 11.232 75.6662 11.064 76.6102 11.064C77.4422 11.064 78.2182 11.224 78.9382 11.544C79.6582 11.864 80.2822 12.304 80.8102 12.864C81.3382 13.408 81.7382 14.064 82.0102 14.832C82.2982 15.584 82.4342 16.408 82.4182 17.304L82.3942 18.336H72.1462L71.5942 16.32H79.9222L79.5382 16.728V16.2C79.4902 15.704 79.3302 15.272 79.0582 14.904C78.7862 14.52 78.4342 14.224 78.0022 14.016C77.5862 13.792 77.1222 13.68 76.6102 13.68C75.8262 13.68 75.1622 13.832 74.6182 14.136C74.0902 14.44 73.6902 14.88 73.4182 15.456C73.1462 16.016 73.0102 16.72 73.0102 17.568C73.0102 18.384 73.1782 19.096 73.5142 19.704C73.8662 20.312 74.3542 20.784 74.9782 21.12C75.6182 21.44 76.3622 21.6 77.2102 21.6C77.8022 21.6 78.3462 21.504 78.8422 21.312C79.3382 21.12 79.8742 20.776 80.4502 20.28L81.9142 22.32C81.4822 22.72 80.9862 23.064 80.4262 23.352C79.8822 23.624 79.3062 23.84 78.6982 24C78.0902 24.16 77.4902 24.24 76.8982 24.24ZM85.0327 24V11.352H87.9367L87.9847 15.384L87.5767 14.472C87.7527 13.832 88.0567 13.256 88.4887 12.744C88.9207 12.232 89.4167 11.832 89.9767 11.544C90.5527 11.24 91.1527 11.088 91.7767 11.088C92.0487 11.088 92.3047 11.112 92.5447 11.16C92.8007 11.208 93.0087 11.264 93.1687 11.328L92.3767 14.568C92.2007 14.472 91.9847 14.392 91.7287 14.328C91.4727 14.264 91.2167 14.232 90.9607 14.232C90.5607 14.232 90.1767 14.312 89.8087 14.472C89.4567 14.616 89.1447 14.824 88.8727 15.096C88.6007 15.368 88.3847 15.688 88.2247 16.056C88.0807 16.408 88.0087 16.808 88.0087 17.256V24H85.0327ZM99.3583 24.24C98.2383 24.24 97.2303 24.056 96.3343 23.688C95.4543 23.304 94.7343 22.76 94.1743 22.056L96.0943 20.4C96.5743 20.944 97.1103 21.336 97.7023 21.576C98.2943 21.816 98.9183 21.936 99.5742 21.936C99.8463 21.936 100.086 21.904 100.294 21.84C100.518 21.776 100.71 21.68 100.87 21.552C101.03 21.424 101.15 21.28 101.23 21.12C101.326 20.944 101.374 20.752 101.374 20.544C101.374 20.16 101.23 19.856 100.942 19.632C100.782 19.52 100.526 19.4 100.174 19.272C99.8383 19.144 99.3983 19.016 98.8543 18.888C97.9903 18.664 97.2703 18.408 96.6943 18.12C96.1183 17.816 95.6703 17.48 95.3503 17.112C95.0783 16.808 94.8703 16.464 94.7263 16.08C94.5983 15.696 94.5343 15.28 94.5343 14.832C94.5343 14.272 94.6543 13.768 94.8943 13.32C95.1503 12.856 95.4943 12.456 95.9263 12.12C96.3583 11.784 96.8623 11.528 97.4383 11.352C98.0143 11.176 98.6143 11.088 99.2383 11.088C99.8783 11.088 100.494 11.168 101.086 11.328C101.694 11.488 102.254 11.72 102.766 12.024C103.294 12.312 103.742 12.664 104.11 13.08L102.478 14.88C102.174 14.592 101.838 14.336 101.47 14.112C101.118 13.888 100.758 13.712 100.39 13.584C100.022 13.44 99.6783 13.368 99.3583 13.368C99.0543 13.368 98.7823 13.4 98.5423 13.464C98.3023 13.512 98.1023 13.592 97.9423 13.704C97.7823 13.816 97.6543 13.96 97.5583 14.136C97.4783 14.296 97.4383 14.488 97.4383 14.712C97.4543 14.904 97.5023 15.088 97.5823 15.264C97.6783 15.424 97.8063 15.56 97.9663 15.672C98.1423 15.784 98.4063 15.912 98.7583 16.056C99.1103 16.2 99.5663 16.336 100.126 16.464C100.91 16.672 101.566 16.904 102.094 17.16C102.622 17.416 103.038 17.712 103.342 18.048C103.646 18.336 103.862 18.672 103.99 19.056C104.118 19.44 104.182 19.864 104.182 20.328C104.182 21.08 103.966 21.752 103.534 22.344C103.118 22.936 102.542 23.4 101.806 23.736C101.086 24.072 100.27 24.24 99.3583 24.24Z" fill="#111827"/>
<path d="M3.47008 8C3.25008 8 3.04008 8.08 2.87008 8.21C2.43008 8.55 2.35008 9.18 2.69008 9.61V9.62L7.00008 15.14V21.05L10.6401 24.71C11.0001 25.1 11.6601 25.1 12.0501 24.71C12.4401 24.32 12.4401 23.69 12.0601 23.3L9.00008 20.22V14.45L4.27008 8.39C4.08008 8.14 3.78008 8 3.47008 8ZM21.6201 6.22C21.4301 6.08 21.2201 6 21.0001 6H7.00008C6.78008 6 6.57008 6.08 6.38008 6.22C6.17252 6.38355 6.03812 6.6226 6.00627 6.88493C5.97442 7.14726 6.04769 7.41153 6.21008 7.62L11.0001 13.75V18.87C10.9601 19.16 11.0601 19.47 11.2901 19.7L15.3001 23.71C15.6901 24.1 16.3201 24.1 16.7101 23.71C16.9401 23.5 17.0401 23.18 17.0001 22.88V13.75L21.7901 7.62C21.9525 7.41153 22.0257 7.14726 21.9939 6.88493C21.962 6.6226 21.8276 6.38355 21.6201 6.22ZM15.0001 13.05V20.58L13.0001 18.58V13.06L9.04008 8H18.9601L15.0001 13.05Z" fill="#111827"/>
<path d="M302.165 12.4565L306.491 16.413C307.018 16.8949 307.136 17.4463 306.844 18.0672C306.552 18.688 306.033 18.999 305.285 19H296.716C295.968 19 295.447 18.6891 295.156 18.0672C294.864 17.4453 294.982 16.8939 295.51 16.413L299.836 12.4565C300.002 12.3043 300.183 12.1902 300.377 12.1141C300.571 12.038 300.779 12 301.001 12C301.223 12 301.431 12.038 301.625 12.1141C301.819 12.1902 301.999 12.3043 302.165 12.4565Z" fill="#111827"/>
</svg>
