<svg width="24" height="24" viewBox="0 0 24 24" fill="none" xmlns="http://www.w3.org/2000/svg">
<path d="M6.02539 21C6.32376 21 6.60991 20.8815 6.82088 20.6705C7.03186 20.4595 7.15039 20.1734 7.15039 19.875L7.15039 3.375C7.15039 3.07663 7.03186 2.79048 6.82088 2.57951C6.60991 2.36853 6.32376 2.25 6.02539 2.25C5.72702 2.25 5.44087 2.36853 5.2299 2.57951C5.01892 2.79048 4.90039 3.07663 4.90039 3.375L4.90039 19.875C4.90039 20.1734 5.01892 20.4595 5.2299 20.6705C5.44087 20.8815 5.72702 21 6.02539 21Z" fill="#111827"/>
<path d="M17.8504 20.6258L9.42541 12.2258C9.32541 12.1258 9.25441 12.0174 9.21241 11.9008C9.17041 11.7841 9.14974 11.6591 9.15041 11.5258C9.15041 11.3924 9.17141 11.2674 9.21341 11.1508C9.25541 11.0341 9.32607 10.9258 9.42541 10.8258L17.8504 2.40078C18.0837 2.16745 18.3754 2.05078 18.7254 2.05078C19.0754 2.05078 19.3754 2.17578 19.6254 2.42578C19.8754 2.67578 20.0004 2.96745 20.0004 3.30078C20.0004 3.63411 19.8754 3.92578 19.6254 4.17578L12.2754 11.5258L19.6254 18.8758C19.8587 19.1091 19.9754 19.3968 19.9754 19.7388C19.9754 20.0808 19.8504 20.3764 19.6004 20.6258C19.3504 20.8758 19.0587 21.0008 18.7254 21.0008C18.3921 21.0008 18.1004 20.8758 17.8504 20.6258Z" fill="#111827"/>
</svg>
