<svg width="50" height="50" viewBox="0 0 50 50" fill="none" xmlns="http://www.w3.org/2000/svg">
<rect width="50" height="50" rx="5" fill="white"/>
<path d="M37 20.5V16H32.5V13H37C37.825 13 38.5315 13.294 39.1195 13.882C39.7075 14.47 40.001 15.176 40 16V20.5H37ZM10 20.5V16C10 15.175 10.294 14.4685 10.882 13.8805C11.47 13.2925 12.176 12.999 13 13H17.5V16H13V20.5H10ZM32.5 37V34H37V29.5H40V34C40 34.825 39.706 35.5315 39.118 36.1195C38.53 36.7075 37.824 37.001 37 37H32.5ZM13 37C12.175 37 11.4685 36.706 10.8805 36.118C10.2925 35.53 9.999 34.824 10 34V29.5H13V34H17.5V37H13ZM16 31V19H34V31H16ZM19 28H31V22H19V28Z" fill="#111827"/>
</svg>
