<svg width="50" height="50" viewBox="0 0 50 50" fill="none" xmlns="http://www.w3.org/2000/svg">
<rect width="50" height="50" rx="5" fill="white"/>
<path d="M28.375 16.5625H16V27.25H21.625V33.4375H34V22.75H28.375V16.5625ZM18.25 25V18.8125H26.125V25H18.25ZM31.75 25V31.1875H23.875V27.25H28.375V25H31.75Z" fill="#111827"/>
<path d="M35.125 10.375H14.875V8.125H8.125V14.875H10.375V35.125H8.125V41.875H14.875V39.625H35.125V41.875H41.875V35.125H39.625V14.875H41.875V8.125H35.125V10.375ZM10.375 10.375H12.625V12.625H10.375V10.375ZM12.625 39.625H10.375V37.375H12.625V39.625ZM39.625 39.625H37.375V37.375H39.625V39.625ZM37.375 10.375H39.625V12.625H37.375V10.375ZM37.375 35.125H35.125V37.375H14.875V35.125H12.625V14.875H14.875V12.625H35.125V14.875H37.375V35.125Z" fill="#111827"/>
</svg>
