<svg width="24" height="24" viewBox="0 0 36 36" fill="none" xmlns="http://www.w3.org/2000/svg">
<path d="M31.5 5.4V30.6C31.5 30.8387 31.4052 31.0676 31.2364 31.2364C31.0676 31.4052 30.8387 31.5 30.6 31.5H5.4C5.16131 31.5 4.93239 31.4052 4.7636 31.2364C4.59482 31.0676 4.5 30.8387 4.5 30.6V5.4C4.5 5.16131 4.59482 4.93239 4.7636 4.7636C4.93239 4.59482 5.16131 4.5 5.4 4.5H30.6C30.8387 4.5 31.0676 4.59482 31.2364 4.7636C31.4052 4.93239 31.5 5.16131 31.5 5.4Z" stroke="#111827" stroke-width="2.8" stroke-linecap="round" stroke-linejoin="round"/>
<path d="M19.4654 9C19.0321 9 18.6321 9.18333 18.2987 9.48333C17.9821 9.83333 17.7987 10.2333 17.7987 10.6667C17.7987 11.1167 17.9821 11.5 18.2987 11.85C18.6321 12.1667 19.0321 12.3333 19.4654 12.3333C19.9154 12.3333 20.2987 12.1667 20.6487 11.85C20.9654 11.5 21.1321 11.1167 21.1321 10.6667C21.1321 10.2333 20.9654 9.83333 20.6487 9.48333C20.2987 9.18333 19.9154 9 19.4654 9Z" fill="#111827"/>
<path d="M19.0654 14.3C17.7487 14.4167 14.1321 17.2833 14.1321 17.2833C13.9654 17.4333 13.9654 17.45 14.0821 17.6167L14.1654 17.75L14.2154 17.85C14.3321 18.0667 14.3487 18.0667 14.5321 17.9333C14.7487 17.7833 15.1154 17.55 15.7321 17.1833C17.2654 16.2 16.9654 17.3333 16.2821 19.8333C15.9154 21.2167 15.4487 22.9833 15.0987 25.0333C14.6987 27.95 17.3154 26.45 17.9987 26C18.6321 25.6 20.1987 24.5 20.5654 24.25L20.6321 24.2167C20.8321 24.0833 20.7487 24 20.5987 23.7667C20.5654 23.7333 20.5321 23.6833 20.4987 23.6333C20.3654 23.45 20.2321 23.5833 20.2321 23.5833C20.1487 23.6333 20.0654 23.7 19.9654 23.7667C19.2154 24.2667 18.1821 24.9833 18.0154 24.4167C17.8654 24 18.4821 21.7333 19.1154 19.4167C19.3987 18.4 19.6821 17.3333 19.9154 16.45L19.9321 16.35C20.0487 15.6167 20.2987 14.2 19.0654 14.3Z" fill="#111827"/>
</svg>
