<svg width="24" height="24" viewBox="0 0 24 24" fill="none" xmlns="http://www.w3.org/2000/svg">
<path d="M17.9746 3C17.6762 3 17.3901 3.11853 17.1791 3.3295C16.9681 3.54048 16.8496 3.82663 16.8496 4.125V20.625C16.8496 20.9234 16.9681 21.2095 17.1791 21.4205C17.3901 21.6315 17.6762 21.75 17.9746 21.75C18.273 21.75 18.5591 21.6315 18.7701 21.4205C18.9811 21.2095 19.0996 20.9234 19.0996 20.625V4.125C19.0996 3.82663 18.9811 3.54048 18.7701 3.3295C18.5591 3.11853 18.273 3 17.9746 3Z" fill="#111827"/>
<path d="M6.14959 3.37422L14.5746 11.7742C14.6746 11.8742 14.7456 11.9826 14.7876 12.0992C14.8296 12.2159 14.8503 12.3409 14.8496 12.4742C14.8496 12.6076 14.8286 12.7326 14.7866 12.8492C14.7446 12.9659 14.6739 13.0742 14.5746 13.1742L6.14959 21.5992C5.91626 21.8326 5.62459 21.9492 5.27459 21.9492C4.92459 21.9492 4.62459 21.8242 4.37459 21.5742C4.12459 21.3242 3.99959 21.0326 3.99959 20.6992C3.99959 20.3659 4.12459 20.0742 4.37459 19.8242L11.7246 12.4742L4.37459 5.12422C4.14126 4.89088 4.02459 4.60322 4.02459 4.26122C4.02459 3.91922 4.14959 3.62355 4.39959 3.37422C4.64959 3.12422 4.94126 2.99922 5.27459 2.99922C5.60793 2.99922 5.89959 3.12422 6.14959 3.37422Z" fill="#111827"/>
</svg>
