<svg width="500" height="602" viewBox="0 0 620 602" fill="none" xmlns="http://www.w3.org/2000/svg">
<g clip-path="url(#clip0_101_203)">
<path d="M583.302 166.154C577.497 155.693 571.057 145.596 564.018 135.921C559.086 129.133 553.874 122.572 548.382 116.237H548.369C538.432 104.769 527.626 94.0827 516.046 84.2738C513.676 82.2629 511.274 80.2931 508.84 78.3645C486.868 60.9008 462.502 46.6765 436.486 36.1261L436.717 74.1067L439.206 507.064H223.441L211.306 74.9236L212.21 37.5495C106.427 81.9982 32.1515 186.505 32.1515 308.35C32.1318 333.499 35.3433 358.547 41.7074 382.879C44.3954 393.165 47.6498 403.295 51.4556 413.222C52.8296 416.826 54.2791 420.397 55.8041 423.936C56.5392 425.659 57.288 427.368 58.0643 429.07C59.0604 431.294 60.0978 433.511 61.1626 435.7C61.987 437.423 62.8343 439.134 63.7045 440.834C64.8242 443.064 65.9806 445.277 67.1737 447.471C68.0942 449.193 69.0423 450.902 70.0041 452.604C85.5205 480.025 105.335 504.784 128.693 525.94C135.35 531.973 142.277 537.692 149.474 543.098C200.399 581.329 262.376 602 326.076 602C389.776 602 451.752 581.329 502.678 543.098C506.593 540.161 510.429 537.125 514.185 533.991C516.678 531.918 519.131 529.806 521.542 527.656C522.181 527.086 522.82 526.516 523.452 525.94C544.987 506.436 563.52 483.861 578.452 458.946C583.935 449.812 588.907 440.381 593.345 430.697C594.52 428.143 595.658 425.567 596.76 422.968C601.829 411.053 606.094 398.811 609.524 386.325C610.053 384.396 610.563 382.461 611.056 380.518V380.512C611.138 380.175 611.227 379.832 611.31 379.496C611.818 377.45 612.306 375.391 612.773 373.332V373.326C614.284 366.689 615.56 359.972 616.599 353.175C616.73 352.303 616.861 351.431 616.984 350.56C617.032 350.244 617.08 349.928 617.115 349.613V349.606C617.857 344.355 618.459 339.066 618.922 333.738C619.636 325.371 619.995 316.908 620 308.35C620.078 258.604 607.446 209.661 583.302 166.154Z" fill="#F2F2F2"/>
<path d="M554.436 485.61C571.833 462.125 578.524 429.045 564.991 403.145C552.299 432.278 529.702 455.987 501.198 470.077C490.186 475.471 477.375 480.325 472.277 491.47C469.106 498.404 469.71 506.593 472.259 513.779C474.809 520.965 479.146 527.359 483.437 533.665L483.663 535.554C510.677 524.364 537.039 509.095 554.436 485.61Z" fill="#E6E6E6"/>
<path d="M564.414 403.353C563.634 427.524 555.251 450.835 540.456 469.975C537.344 474.152 533.593 477.812 529.34 480.822C525.102 483.62 520.192 485.234 515.119 485.495C510.394 485.833 505.521 485.633 500.961 487.112C498.638 487.905 496.508 489.178 494.712 490.85C492.917 492.522 491.495 494.555 490.54 496.814C488.015 502.382 487.644 508.525 487.489 514.544C487.317 521.227 487.245 528.172 484.09 534.248C483.707 534.984 484.873 535.533 485.255 534.798C490.745 524.228 487.18 511.867 490.451 500.755C491.978 495.57 495.078 490.813 500.259 488.735C504.79 486.919 509.815 487.121 514.602 486.82C519.554 486.638 524.387 485.247 528.677 482.769C533.07 479.985 536.956 476.475 540.17 472.388C547.552 463.304 553.458 453.116 557.673 442.198C562.552 429.765 565.266 416.589 565.698 403.241C565.724 402.415 564.44 402.532 564.414 403.353Z" fill="white"/>
<path d="M545.583 464.092C549.134 466.136 553.297 466.852 557.328 466.113C561.359 465.374 564.996 463.227 567.589 460.056C568.112 459.413 567.136 458.571 566.612 459.216C564.203 462.173 560.815 464.172 557.06 464.853C553.305 465.534 549.43 464.851 546.134 462.928C545.418 462.511 544.871 463.677 545.583 464.092Z" fill="white"/>
<path d="M517.538 485.639C515.29 477.575 516.166 468.962 519.992 461.515C520.372 460.778 519.207 460.228 518.827 460.965C514.86 468.721 513.966 477.687 516.324 486.072C516.549 486.871 517.762 486.433 517.538 485.639Z" fill="white"/>
<path d="M560.844 429.825C559.305 429.32 557.915 428.441 556.8 427.267C555.685 426.093 554.88 424.661 554.456 423.099C554.241 422.297 553.028 422.736 553.242 423.533C553.719 425.256 554.61 426.837 555.839 428.136C557.068 429.436 558.597 430.415 560.293 430.989C560.448 431.056 560.623 431.062 560.782 431.005C560.942 430.948 561.074 430.832 561.151 430.682C561.223 430.527 561.231 430.351 561.174 430.19C561.116 430.03 560.998 429.898 560.844 429.825Z" fill="white"/>
<path d="M468.149 382.533C468.269 383.038 468.389 383.542 468.502 384.055C470.081 390.844 471.105 397.749 471.564 404.704C471.608 405.241 471.644 405.786 471.673 406.323C472.6 423.09 470.404 439.883 465.195 455.849C463.117 462.2 460.558 468.384 457.54 474.347C453.372 482.582 448.197 491.18 447.03 500.049C446.898 500.973 446.824 501.904 446.807 502.838L481.338 535.683C481.454 535.719 481.563 535.762 481.679 535.798L482.998 537.172C483.175 536.875 483.352 536.564 483.529 536.267C483.633 536.096 483.729 535.917 483.832 535.745C483.899 535.628 483.965 535.511 484.031 535.409C484.054 535.371 484.076 535.331 484.091 535.3C484.157 535.199 484.208 535.097 484.268 535.004C485.264 533.265 486.249 531.517 487.224 529.758C487.232 529.75 487.232 529.75 487.232 529.735C494.627 516.316 500.965 502.163 504.952 487.498C505.072 487.056 505.2 486.608 505.304 486.151C507.064 479.531 508.28 472.778 508.94 465.96C509.289 462.226 509.448 458.476 509.418 454.725C509.32 445.035 507.697 435.419 504.609 426.232C498.45 407.919 486.496 391.777 469.457 383.178C469.021 382.958 468.593 382.745 468.149 382.533Z" fill="#E6E6E6"/>
<path d="M467.809 383.045C481.753 402.813 489.108 426.468 488.829 450.65C488.861 455.856 488.072 461.036 486.49 465.997C484.793 470.78 481.845 475.022 477.952 478.282C474.383 481.394 470.371 484.165 467.622 488.09C466.244 490.12 465.312 492.417 464.886 494.833C464.459 497.248 464.549 499.726 465.148 502.104C466.488 508.068 469.893 513.196 473.397 518.096C477.287 523.535 481.415 529.124 482.556 535.872C482.695 536.69 483.957 536.428 483.819 535.611C481.832 523.87 471.537 516.144 467.452 505.304C465.547 500.246 465.155 494.583 468.04 489.808C470.562 485.632 474.696 482.771 478.337 479.651C482.182 476.527 485.202 472.509 487.134 467.95C488.964 463.085 489.952 457.945 490.055 452.749C490.475 441.055 489.051 429.368 485.837 418.116C482.239 405.253 476.466 393.101 468.767 382.183C468.291 381.508 467.336 382.374 467.809 383.045Z" fill="white"/>
<path d="M489.378 442.869C493.446 442.364 497.201 440.432 499.974 437.417C502.747 434.402 504.357 430.501 504.517 426.409C504.546 425.581 503.26 425.497 503.23 426.326C503.089 430.136 501.589 433.77 499.001 436.573C496.413 439.375 492.907 441.161 489.117 441.608C488.294 441.706 488.56 442.966 489.378 442.869Z" fill="white"/>
<path d="M479.97 476.942C473.316 471.856 468.825 464.452 467.392 456.204C467.251 455.387 465.989 455.649 466.13 456.465C467.637 465.045 472.326 472.741 479.262 478.018C479.924 478.521 480.628 477.442 479.97 476.942Z" fill="white"/>
<path d="M480.912 406.328C479.379 406.851 477.74 406.985 476.142 406.719C474.545 406.452 473.038 405.793 471.758 404.801C471.104 404.29 470.4 405.37 471.051 405.877C472.47 406.967 474.134 407.692 475.899 407.991C477.664 408.289 479.475 408.151 481.174 407.589C481.338 407.55 481.481 407.449 481.574 407.308C481.667 407.166 481.703 406.995 481.674 406.828C481.638 406.662 481.539 406.516 481.396 406.422C481.253 406.328 481.079 406.295 480.912 406.328Z" fill="white"/>
<path d="M13.7215 354.078C-1.70773 329.258 -5.68548 295.745 9.90941 271.029C20.1894 301.096 40.783 326.561 68.0467 342.918C78.584 349.189 90.9576 355.067 95.1315 366.589C97.7288 373.758 96.4607 381.87 93.3349 388.826C90.2088 395.781 85.3663 401.802 80.5767 407.738L80.1976 409.603C54.1829 396.257 29.1508 378.897 13.7215 354.078Z" fill="#E6E6E6"/>
<path d="M10.4674 271.283C9.27822 295.437 15.7371 319.352 28.9265 339.629C31.6884 344.045 35.1296 347.998 39.1236 351.344C43.1197 354.477 47.8826 356.483 52.9174 357.155C57.5994 357.876 62.472 358.072 66.8971 359.917C69.1481 360.895 71.1667 362.338 72.8206 364.15C74.4745 365.962 75.7263 368.103 76.4938 370.433C78.5574 376.188 78.4283 382.34 78.0928 388.352C77.7203 395.027 77.2274 401.955 79.8782 408.266C80.1994 409.031 78.9929 409.484 78.6722 408.72C74.0603 397.739 78.6187 385.709 76.2618 374.368C75.1621 369.076 72.4594 364.083 67.4644 361.592C63.0964 359.413 58.0718 359.207 53.3249 358.518C48.4037 357.934 43.7003 356.156 39.6256 353.337C35.4741 350.206 31.8861 346.392 29.0154 342.058C22.3968 332.404 17.3386 321.771 14.0262 310.547C10.1747 297.759 8.54128 284.406 9.19659 271.067C9.23749 270.242 10.5081 270.463 10.4674 271.283Z" fill="white"/>
<path d="M24.2958 333.35C20.59 335.099 16.3826 335.475 12.425 334.411C8.46732 333.347 5.01716 330.912 2.69063 327.541C2.22223 326.857 3.26364 326.098 3.73267 326.782C5.89333 329.925 9.10739 332.193 12.7948 333.176C16.4821 334.16 20.3999 333.794 23.841 332.145C24.5892 331.788 25.0397 332.994 24.2958 333.35Z" fill="white"/>
<path d="M50.4962 357.102C53.3928 349.248 53.2199 340.592 50.012 332.859C49.6936 332.094 50.9 331.64 51.218 332.405C54.5412 340.458 54.7028 349.466 51.6706 357.633C51.381 358.411 50.2083 357.876 50.4962 357.102Z" fill="white"/>
<path d="M11.8722 297.957C13.4472 297.578 14.9035 296.815 16.1103 295.736C17.3172 294.656 18.2368 293.294 18.7865 291.772C19.066 290.991 20.2385 291.526 19.9608 292.303C19.3456 293.982 18.3282 295.485 16.9975 296.68C15.6668 297.876 14.0632 298.728 12.327 299.162C12.1667 299.216 11.9917 299.208 11.8375 299.138C11.6832 299.068 11.5613 298.943 11.4966 298.786C11.4372 298.626 11.4433 298.45 11.5136 298.294C11.584 298.139 11.7128 298.018 11.8722 297.957Z" fill="white"/>
<path d="M108.108 258.348C107.947 258.841 107.786 259.334 107.632 259.836C105.507 266.474 103.924 273.274 102.901 280.168C102.813 280.7 102.733 281.24 102.66 281.773C100.372 298.409 101.195 315.325 105.088 331.661C106.643 338.16 108.691 344.531 111.213 350.719C114.697 359.266 119.156 368.256 119.597 377.19C119.654 378.122 119.653 379.056 119.594 379.987L82.5049 409.921C82.3864 409.946 82.2743 409.981 82.1554 410.007L80.7293 411.27C80.5769 410.96 80.4255 410.635 80.2731 410.325C80.1839 410.145 80.103 409.959 80.0138 409.78C79.957 409.658 79.9005 409.536 79.8423 409.429C79.8233 409.388 79.8046 409.348 79.7923 409.316C79.7341 409.209 79.6913 409.104 79.6399 409.005C78.7886 407.192 77.9486 405.369 77.1198 403.537C77.113 403.528 77.113 403.528 77.1144 403.513C70.8353 389.538 65.6688 374.917 62.8879 359.977C62.8044 359.528 62.7136 359.07 62.647 358.607C61.4309 351.866 60.7683 345.036 60.6659 338.187C60.6218 334.437 60.7679 330.686 61.1034 326.951C61.989 317.3 64.3885 307.848 68.214 298.942C75.8426 281.189 89.0693 266.071 106.751 258.884C107.204 258.701 107.648 258.523 108.108 258.348Z" fill="#E6E6E6"/>
<path d="M108.405 258.886C92.8992 277.456 83.6446 300.436 81.9555 324.56C81.4996 329.747 81.8649 334.973 83.038 340.047C84.3406 344.952 86.9342 349.419 90.5493 352.984C93.8532 356.376 97.6258 359.463 100.047 363.598C101.255 365.733 101.997 368.099 102.226 370.541C102.454 372.983 102.163 375.445 101.372 377.767C99.552 383.603 95.7414 388.437 91.8504 393.036C87.5303 398.142 82.9621 403.376 81.275 410.01C81.0706 410.814 79.8342 410.45 80.0383 409.648C82.9735 398.106 93.8632 391.242 98.8156 380.769C101.127 375.882 101.977 370.27 99.4907 365.276C97.3161 360.909 93.4284 357.723 90.0535 354.317C86.4758 350.891 83.7923 346.642 82.2373 341.941C80.8095 336.943 80.2432 331.74 80.5629 326.553C81.096 314.863 83.4654 303.331 87.5844 292.377C92.216 279.849 98.9585 268.205 107.52 257.949C108.05 257.314 108.931 258.255 108.405 258.886Z" fill="white"/>
<path d="M82.0416 316.76C78.0287 315.927 74.4428 313.697 71.9241 310.467C69.4054 307.236 68.1181 303.217 68.2919 299.126C68.3006 298.959 68.3737 298.802 68.4958 298.688C68.6179 298.574 68.7796 298.512 68.9467 298.515C69.1139 298.518 69.2734 298.585 69.3917 298.703C69.51 298.821 69.5779 298.98 69.581 299.147C69.4121 302.956 70.6116 306.7 72.9631 309.704C75.3147 312.707 78.6633 314.771 82.4046 315.524C83.2174 315.689 82.8497 316.924 82.0416 316.76Z" fill="white"/>
<path d="M88.6471 351.485C95.693 346.956 100.772 339.94 102.87 331.837C103.077 331.034 104.314 331.397 104.107 332.2C101.907 340.628 96.6074 347.918 89.2649 352.615C88.5648 353.062 87.9508 351.929 88.6471 351.485Z" fill="white"/>
<path d="M93.452 281.028C94.9375 281.674 96.5601 281.94 98.1743 281.804C99.7884 281.668 101.343 281.134 102.7 280.249C103.394 279.793 104.007 280.926 103.318 281.379C101.815 282.35 100.096 282.938 98.3134 283.092C96.5303 283.246 94.7366 282.962 93.089 282.264C92.9282 282.211 92.7935 282.099 92.7124 281.951C92.6312 281.802 92.6097 281.628 92.6522 281.465C92.701 281.301 92.8125 281.164 92.9622 281.082C93.112 281 93.288 280.981 93.452 281.028Z" fill="white"/>
<path d="M300.137 100.727C322.69 100.727 340.972 82.4611 340.972 59.9294C340.972 37.3976 322.69 19.1321 300.137 19.1321C277.584 19.1321 259.302 37.3976 259.302 59.9294C259.302 82.4611 277.584 100.727 300.137 100.727Z" fill="#FF6584"/>
<path d="M425.166 57.8004C421.487 53.9169 417.602 50.2329 413.529 46.764C405.573 40.0242 396.766 34.2933 386.949 30.6831C383.253 29.3195 379.434 28.315 375.545 27.6838C375.078 27.6083 374.618 27.5328 374.151 27.471C374.117 27.4676 374.082 27.4676 374.048 27.471C373.976 27.4507 373.902 27.4369 373.828 27.4298C372.873 27.3063 371.918 27.2102 370.956 27.1416C365.777 26.7976 360.575 27.2654 355.541 28.528C352.619 29.2643 349.769 30.2565 347.022 31.493C344.27 32.8389 341.602 34.3493 339.032 36.016C337.652 36.8534 336.231 37.6208 334.773 38.3152C330.518 40.3296 326.013 41.7699 321.377 42.598C318.247 43.159 315.077 43.4711 311.897 43.5314C309.135 43.5863 306.531 43.6824 303.914 44.6776C301.121 45.7261 298.612 47.4131 296.587 49.6035C294.563 51.7939 293.08 54.427 292.256 57.2925C292.191 57.5469 292.209 57.8155 292.308 58.0588C292.407 58.3021 292.581 58.5074 292.806 58.6445C293.513 59.1525 294.2 59.729 294.949 60.182C295.61 60.4833 296.315 60.6756 297.037 60.7516C298.219 60.9987 299.403 61.2389 300.589 61.4723C304.951 62.337 309.332 63.1035 313.731 63.7715C322.579 65.1099 331.478 66.0524 340.427 66.5992C340.482 66.6072 340.537 66.6118 340.592 66.613C350.702 67.2226 360.836 67.3211 370.956 66.9081C372.488 66.8463 374.013 66.7708 375.545 66.6816C381.927 66.3247 388.293 65.7619 394.643 64.9932C400.517 64.2794 406.368 63.394 412.196 62.3371C416.359 61.5821 420.506 60.7402 424.637 59.8113C424.838 59.752 425.02 59.642 425.165 59.492C425.311 59.3419 425.415 59.1569 425.468 58.9547C425.522 58.7526 425.522 58.5401 425.469 58.3379C425.416 58.1357 425.311 57.9506 425.166 57.8004Z" fill="#E6E6E6"/>
<path d="M340.29 112.2C334.378 105.881 327.864 100.153 320.841 95.096C318.512 93.4625 316.115 91.9251 313.649 90.5181C310.625 88.7743 307.485 87.2402 304.251 85.9265C303.529 85.6313 302.801 85.35 302.073 85.0823C297.936 83.5514 293.645 82.4744 289.275 81.8702C289.24 81.8633 289.206 81.8702 289.172 81.8633C289.103 81.8496 289.027 81.8359 288.959 81.8222C286.84 81.5477 284.706 81.417 282.57 81.4309C281.038 81.4309 279.499 81.5133 277.974 81.6643C275.51 81.9068 273.067 82.3289 270.664 82.9272C269.476 83.2223 268.294 83.5655 267.133 83.9567C265.44 84.5134 263.777 85.1595 262.153 85.8922C262.125 85.9059 262.104 85.9128 262.077 85.9265C259.35 87.2595 256.707 88.7586 254.163 90.4151C254.108 90.4494 254.046 90.4838 253.991 90.5181C251.102 92.2448 248.046 93.6751 244.868 94.7871C242.141 95.74 239.343 96.4789 236.501 96.9971C233.371 97.5597 230.2 97.8695 227.02 97.9237C224.259 97.9786 221.655 98.0747 219.045 99.0767C216.25 100.125 213.74 101.812 211.715 104.002C209.689 106.193 208.205 108.826 207.38 111.692C207.316 111.946 207.335 112.214 207.434 112.457C207.533 112.7 207.706 112.906 207.929 113.044C208.637 113.552 209.331 114.121 210.073 114.574C210.733 114.878 211.438 115.07 212.161 115.144C213.343 115.391 214.524 115.638 215.713 115.871C220.075 116.736 224.458 117.5 228.862 118.164C234.9 119.077 240.964 119.806 247.053 120.353C249.938 120.621 252.826 120.841 255.716 121.012C263.128 121.458 270.548 121.632 277.974 121.534C279.506 121.513 281.038 121.479 282.57 121.431C291.665 121.163 300.733 120.481 309.774 119.385C319.851 118.167 329.86 116.438 339.761 114.204C339.961 114.145 340.143 114.036 340.288 113.886C340.434 113.737 340.538 113.552 340.591 113.351C340.645 113.149 340.645 112.937 340.592 112.736C340.539 112.534 340.435 112.349 340.29 112.2Z" fill="#E6E6E6"/>
<path d="M238.504 2.70857L274.479 499.384L202.529 505.764V9.02769C211.103 2.33694 223.41 1.29016 238.504 2.70857Z" fill="#CCCCCC"/>
<path d="M416.083 2.70858L380.108 499.384L452.058 505.764V9.02769C443.485 2.33694 431.178 1.29016 416.083 2.70858Z" fill="#CCCCCC"/>
<path d="M453.751 9.24451C451.518 3.77557 446.771 0 441.282 0H212.539C204.906 0 198.703 7.3162 198.703 16.3177V509.972C198.636 514.539 200.346 518.954 203.471 522.288C205.106 524.003 207.176 525.244 209.461 525.877C210.463 526.154 211.499 526.293 212.539 526.29H441.282C442.322 526.293 443.358 526.154 444.36 525.877C450.515 524.224 455.118 517.726 455.118 509.972V16.3177C455.125 13.8938 454.66 11.4917 453.751 9.24451ZM450.529 509.972C450.529 515.984 446.38 520.878 441.282 520.878H212.539C208.314 520.878 204.735 517.515 203.642 512.938C203.409 511.966 203.291 510.971 203.292 509.972V16.3177C203.292 10.3059 207.441 5.42035 212.539 5.42035H441.282C442.221 5.41961 443.151 5.587 444.03 5.91457C447.788 7.29194 450.529 11.4321 450.529 16.3177V509.972Z" fill="#CCCCCC"/>
<path d="M452.823 150.054H200.998V154.642H452.823V150.054Z" fill="#CCCCCC"/>
<path d="M452.823 55.3391H200.998V59.9274H452.823V55.3391Z" fill="#CCCCCC"/>
<path d="M452.823 226.525H200.998V231.113H452.823V226.525Z" fill="#CCCCCC"/>
<path d="M282.719 2.05896H278.126V291.525H282.719V2.05896Z" fill="#CCCCCC"/>
<path d="M375.696 2.05896H371.104V291.525H375.696V2.05896Z" fill="#CCCCCC"/>
<path d="M481.526 497.615H179.949C174.47 497.621 169.218 499.798 165.344 503.669C161.47 507.539 159.291 512.786 159.284 518.26C159.281 520.892 159.788 523.5 160.775 525.94C162.309 529.768 164.955 533.049 168.372 535.361C171.79 537.673 175.822 538.909 179.949 538.912H481.526C485.133 538.911 488.678 537.966 491.806 536.172C494.935 534.378 497.539 531.797 499.36 528.685C499.878 527.806 500.328 526.888 500.706 525.94C501.694 523.5 502.2 520.892 502.197 518.26C502.189 512.786 500.008 507.538 496.133 503.668C492.258 499.798 487.005 497.621 481.526 497.615Z" fill="#CCCCCC"/>
<path d="M452.823 280.82H202.529V296.114H452.823V280.82Z" fill="#CCCCCC"/>
<path d="M325.38 276.231H329.972C332.205 276.231 334.347 277.117 335.926 278.695C337.505 280.273 338.392 282.412 338.392 284.643H316.96C316.96 283.538 317.178 282.445 317.601 281.424C318.024 280.403 318.644 279.476 319.426 278.695C320.208 277.914 321.136 277.294 322.158 276.872C323.179 276.449 324.274 276.231 325.38 276.231Z" fill="#CCCCCC"/>
<path d="M332.092 323.953C358.289 323.953 379.526 302.736 379.526 276.563C379.526 250.39 358.289 229.173 332.092 229.173C305.894 229.173 284.657 250.39 284.657 276.563C284.657 302.736 305.894 323.953 332.092 323.953Z" fill="#FFB8B8"/>
<path d="M279.177 230.973C279.536 225.531 283.138 219.962 294.583 217.052C294.583 217.052 314.225 191.959 340.915 205.118C340.915 205.118 353.855 202.894 363.45 216.307C363.45 216.307 372.963 210.701 376.976 220.637C376.976 220.637 388.134 240.903 384.026 261.574C379.918 282.245 377.816 284.825 377.816 284.825C377.816 284.825 383.052 242.067 352.896 245.032C322.74 247.997 298.461 237.402 291.632 260.599C285.962 279.861 286.676 289.865 286.676 289.865C286.676 289.865 267.713 270.649 274.16 255.519C277.458 247.78 278.624 239.366 279.177 230.973Z" fill="#2F2E41"/>
<path d="M203.1 535.549H465.472C463.719 515.554 462.573 439.121 462.573 434.091C462.573 411.903 444.401 387.69 444.401 387.69L437.896 384.098L383.576 367.166L369.518 348.923C368.046 347.007 366.149 345.459 363.977 344.399C361.805 343.339 359.416 342.797 356.999 342.816L312.592 343.149C308.684 343.179 304.929 344.666 302.061 347.318L274.563 372.804L234.232 392.045L234.163 391.977L233.742 392.29L227.757 396.596L223.907 399.376C223.907 399.376 213.807 411.482 205.735 447.793C204.52 453.254 203.668 523.951 203.1 535.549Z" fill="#023E8A"/>
<path d="M526.2 525.94C525.568 526.516 524.929 527.086 524.29 527.656C521.872 529.804 519.419 531.916 516.932 533.991C513.174 537.12 509.339 540.156 505.425 543.098H152.222C145.029 537.704 138.102 531.984 131.44 525.94H526.2Z" fill="#CCCCCC"/>
<path d="M396.732 530.058H266.893L269.64 517.018H393.983L396.732 530.058Z" fill="#2F2E41"/>
<path d="M514.198 473.778H480.412C479.65 473.776 478.896 473.941 478.204 474.261C477.512 474.581 476.899 475.049 476.407 475.631C475.936 475.54 475.458 475.494 474.978 475.494C473.925 475.493 472.883 475.699 471.909 476.101C470.936 476.503 470.052 477.093 469.307 477.836C468.562 478.58 467.971 479.463 467.568 480.434C467.165 481.406 466.957 482.448 466.957 483.5C466.957 484.552 467.165 485.594 467.568 486.566C467.971 487.538 468.562 488.421 469.307 489.164C470.052 489.908 470.936 490.497 471.909 490.899C472.883 491.301 473.925 491.507 474.978 491.506C476.188 491.506 477.382 491.229 478.468 490.696L479.032 497.615L481.271 524.958C481.378 525.3 481.52 525.629 481.697 525.94C482.15 526.77 482.818 527.463 483.632 527.947C484.445 528.43 485.374 528.685 486.321 528.685H508.29C509.237 528.684 510.167 528.429 510.981 527.946C511.796 527.463 512.466 526.77 512.92 525.94C513.092 525.627 513.232 525.299 513.339 524.958L519.247 480.607C519.49 479.818 519.545 478.983 519.406 478.168C519.267 477.354 518.938 476.584 518.447 475.92C517.956 475.256 517.316 474.716 516.578 474.344C515.84 473.972 515.025 473.778 514.198 473.778ZM474.978 489.221C473.461 489.219 472.006 488.615 470.934 487.543C469.861 486.47 469.259 485.016 469.259 483.5C469.259 481.984 469.861 480.53 470.934 479.457C472.006 478.385 473.461 477.781 474.978 477.779C475.081 477.779 475.178 477.807 475.281 477.814C475.055 478.735 475.083 479.701 475.363 480.607L477.781 488.459C476.93 488.953 475.963 489.216 474.978 489.221Z" fill="#3F3D56"/>
<path d="M437.888 328.666H224.018C222.18 328.668 220.419 329.399 219.119 330.697C217.82 331.995 217.089 333.755 217.086 335.591V479.777C217.088 481.613 217.819 483.373 219.118 484.672C220.418 485.97 222.18 486.7 224.018 486.702H437.888C439.726 486.7 441.488 485.97 442.788 484.672C444.087 483.373 444.818 481.613 444.82 479.777V335.591C444.817 333.755 444.086 331.995 442.786 330.697C441.487 329.399 439.726 328.668 437.888 328.666Z" fill="#3F3D56"/>
<path d="M355.039 444.197H305.006C304.299 444.198 303.62 444.48 303.12 444.981C302.62 445.481 302.34 446.16 302.341 446.867V525.83H357.711V446.867C357.712 446.516 357.643 446.169 357.508 445.845C357.374 445.521 357.177 445.227 356.929 444.979C356.681 444.731 356.386 444.534 356.062 444.4C355.738 444.266 355.39 444.197 355.039 444.197ZM330.191 489.063C328.626 489.056 327.128 488.432 326.021 487.326C324.915 486.221 324.29 484.724 324.283 483.161V474.053C324.285 472.488 324.908 470.989 326.016 469.883C327.124 468.778 328.625 468.157 330.191 468.157C331.757 468.157 333.258 468.778 334.366 469.883C335.474 470.989 336.097 472.488 336.099 474.053V483.161C336.092 484.724 335.467 486.221 334.361 487.326C333.254 488.432 331.756 489.056 330.191 489.063Z" fill="#2F2E41"/>
<path d="M302.169 523.304V530.923C302.17 531.318 302.327 531.696 302.606 531.975C302.886 532.254 303.265 532.411 303.66 532.412H356.392C356.787 532.41 357.165 532.253 357.444 531.974C357.723 531.695 357.881 531.317 357.883 530.923V523.304H302.169Z" fill="#3F3D56"/>
<path d="M433.34 478.269C435.205 478.269 436.717 476.759 436.717 474.896C436.717 473.033 435.205 471.523 433.34 471.523C431.476 471.523 429.964 473.033 429.964 474.896C429.964 476.759 431.476 478.269 433.34 478.269Z" fill="#2F2E41"/>
<path d="M251.017 470.003C250.861 470.003 250.708 470.034 250.564 470.093C250.421 470.152 250.291 470.239 250.181 470.349C250.071 470.459 249.984 470.589 249.925 470.732C249.866 470.875 249.835 471.029 249.835 471.184V477.258C249.836 477.57 249.961 477.87 250.182 478.091C250.404 478.311 250.704 478.435 251.017 478.435C251.329 478.435 251.63 478.311 251.851 478.091C252.073 477.87 252.197 477.57 252.198 477.258V471.184C252.198 471.029 252.168 470.875 252.108 470.732C252.049 470.589 251.962 470.459 251.852 470.349C251.742 470.239 251.612 470.152 251.469 470.093C251.325 470.034 251.172 470.003 251.017 470.003Z" fill="#2F2E41"/>
<path d="M257.433 470.003C257.277 470.003 257.124 470.034 256.98 470.093C256.837 470.152 256.707 470.239 256.597 470.349C256.487 470.459 256.4 470.589 256.341 470.732C256.282 470.875 256.251 471.029 256.251 471.184V477.258C256.251 477.571 256.375 477.871 256.597 478.093C256.819 478.314 257.119 478.438 257.433 478.438C257.746 478.438 258.047 478.314 258.268 478.093C258.49 477.871 258.614 477.571 258.614 477.258V471.184C258.614 471.029 258.584 470.875 258.524 470.732C258.465 470.589 258.378 470.459 258.268 470.349C258.158 470.239 258.028 470.152 257.885 470.093C257.741 470.034 257.588 470.003 257.433 470.003Z" fill="#2F2E41"/>
<path d="M263.849 470.003C263.693 470.003 263.54 470.034 263.396 470.093C263.253 470.152 263.123 470.239 263.013 470.349C262.903 470.459 262.816 470.589 262.757 470.732C262.698 470.875 262.667 471.029 262.667 471.184V477.258C262.668 477.57 262.793 477.87 263.014 478.091C263.236 478.311 263.536 478.435 263.849 478.435C264.161 478.435 264.462 478.311 264.683 478.091C264.905 477.87 265.029 477.57 265.03 477.258V471.184C265.03 471.029 265 470.875 264.94 470.732C264.881 470.589 264.794 470.459 264.684 470.349C264.574 470.239 264.444 470.152 264.301 470.093C264.157 470.034 264.004 470.003 263.849 470.003Z" fill="#2F2E41"/>
<path d="M270.266 470.003C270.11 470.003 269.957 470.034 269.813 470.093C269.67 470.152 269.54 470.239 269.43 470.349C269.32 470.459 269.233 470.589 269.174 470.732C269.115 470.875 269.084 471.029 269.084 471.184V477.258C269.085 477.57 269.21 477.87 269.431 478.091C269.653 478.311 269.953 478.435 270.266 478.435C270.578 478.435 270.879 478.311 271.1 478.091C271.322 477.87 271.446 477.57 271.447 477.258V471.184C271.447 471.029 271.417 470.875 271.357 470.732C271.298 470.589 271.211 470.459 271.101 470.349C270.991 470.239 270.861 470.152 270.718 470.093C270.574 470.034 270.421 470.003 270.266 470.003Z" fill="#2F2E41"/>
<path d="M275.385 526.626C285.25 526.626 293.246 518.637 293.246 508.781C293.246 498.926 285.25 490.937 275.385 490.937C265.52 490.937 257.523 498.926 257.523 508.781C257.523 518.637 265.52 526.626 275.385 526.626Z" fill="#FFB8B8"/>
<path d="M400.166 530.058C410.031 530.058 418.028 522.069 418.028 512.213C418.028 502.358 410.031 494.368 400.166 494.368C390.302 494.368 382.305 502.358 382.305 512.213C382.305 522.069 390.302 530.058 400.166 530.058Z" fill="#FFB8B8"/>
<path d="M584.529 296.821C582.764 293.904 580.673 290.79 577.397 289.838C573.604 288.735 569.708 290.926 566.403 293.088C556.518 299.554 546.999 306.56 537.89 314.076L537.9 314.19C544.992 313.701 550.878 332.542 557.97 332.053C563.094 331.7 569.601 311.969 574.129 309.547C575.847 308.628 577.522 307.401 579.47 307.315C581.889 307.209 583.998 308.897 585.656 310.66C595.461 321.092 598.299 337.045 609.3 346.21C602.363 329.119 594.08 312.604 584.529 296.821Z" fill="#3F3D56"/>
<path d="M603.403 322.159C608.576 331.493 614.062 340.642 619.863 349.606V349.613C619.828 349.928 619.78 350.244 619.732 350.56C619.031 349.489 618.338 348.414 617.651 347.334C612.443 339.173 607.495 330.857 602.805 322.385C600.579 318.357 598.408 314.296 596.292 310.203C594.657 307.032 593.057 303.843 591.49 300.635C591.044 299.716 590.611 298.796 590.178 297.87C589.161 295.701 588.159 293.518 587.087 291.377C585.864 288.933 584.373 286.38 582.127 284.74C581.105 283.962 579.883 283.49 578.603 283.381C576.799 283.392 575.034 283.897 573.498 284.843C561.877 290.946 551.03 298.418 541.19 307.101C531.337 315.749 522.53 325.518 514.947 336.208C514.713 336.538 514.164 336.222 514.397 335.886C515.325 334.582 516.259 333.298 517.221 332.022C529.141 316.185 543.756 302.567 560.398 291.788C563.194 289.977 566.045 288.249 568.951 286.607C570.414 285.776 571.884 284.959 573.382 284.191C574.815 283.351 576.423 282.853 578.08 282.736C583.782 282.646 586.736 289.098 588.763 293.436C589.395 294.802 590.038 296.165 590.693 297.526C593.16 302.674 595.722 307.78 598.381 312.845C600.016 315.968 601.69 319.073 603.403 322.159Z" fill="#3F3D56"/>
<path d="M540.628 303.914C540.297 303.545 539.968 303.176 539.635 302.808C537.006 299.903 534.185 297.032 530.575 295.367C528.854 294.548 526.975 294.113 525.069 294.092C523.102 294.146 521.162 294.568 519.352 295.338C518.491 295.681 517.649 296.071 516.82 296.486C515.872 296.963 514.942 297.471 514.016 297.983C512.277 298.944 510.561 299.947 508.868 300.993C505.499 303.073 502.235 305.312 499.077 307.71C497.439 308.954 495.836 310.238 494.266 311.563C492.806 312.794 491.376 314.058 489.975 315.355C489.676 315.631 489.228 315.185 489.528 314.909C489.897 314.565 490.27 314.223 490.644 313.886C491.699 312.934 492.771 311.999 493.859 311.083C495.844 309.409 497.881 307.8 499.969 306.256C503.216 303.853 506.575 301.613 510.045 299.536C511.78 298.499 513.538 297.506 515.32 296.556C515.858 296.269 516.402 295.989 516.953 295.723C518.202 295.094 519.5 294.566 520.835 294.145C522.725 293.534 524.725 293.337 526.698 293.569C528.603 293.846 530.438 294.48 532.107 295.439C535.652 297.418 538.401 300.478 541.076 303.465C541.346 303.769 540.901 304.218 540.628 303.914Z" fill="#3F3D56"/>
<path d="M514.692 317.889C513.791 317.934 512.9 317.679 512.16 317.165C510.198 315.68 510.25 312.114 512.317 306.263C512.879 304.678 513.761 303.224 514.908 301.993C516.055 300.761 517.442 299.778 518.985 299.103C520.429 298.458 521.993 298.119 523.575 298.11C525.158 298.101 526.725 298.42 528.178 299.048C528.431 299.158 528.681 299.276 528.928 299.403C530.609 300.343 532.185 301.46 533.629 302.735C534.856 303.799 536.165 304.765 537.544 305.624L538.004 305.894L537.568 306.201C526.439 314.028 518.895 317.889 514.692 317.889Z" fill="#3F3D56"/>
<path d="M557.485 271.308C553.826 271.308 550.28 270.038 547.453 267.717C544.626 265.396 542.693 262.166 541.983 258.58C538.924 259.199 536.116 260.709 533.915 262.921C531.714 265.132 530.218 267.946 529.615 271.006C529.013 274.066 529.331 277.236 530.531 280.116C531.73 282.995 533.756 285.456 536.353 287.186C538.95 288.916 542.003 289.839 545.124 289.838C548.246 289.837 551.298 288.912 553.894 287.18C556.49 285.448 558.514 282.987 559.712 280.106C560.909 277.226 561.226 274.056 560.621 270.996C559.589 271.204 558.538 271.308 557.485 271.308Z" fill="#3F3D56"/>
<path opacity="0.74" d="M134.527 296.703C147.549 296.703 158.106 286.156 158.106 273.146C158.106 260.136 147.549 249.589 134.527 249.589C121.505 249.589 110.948 260.136 110.948 273.146C110.948 286.156 121.505 296.703 134.527 296.703Z" fill="#3F3D56"/>
<path opacity="0.74" d="M158.106 296.703C171.129 296.703 181.685 286.156 181.685 273.146C181.685 260.136 171.129 249.589 158.106 249.589C145.084 249.589 134.527 260.136 134.527 273.146C134.527 286.156 145.084 296.703 158.106 296.703Z" fill="#023E8A"/>
<path opacity="0.74" d="M146.515 277.928C159.538 277.928 170.094 267.381 170.094 254.371C170.094 241.361 159.538 230.814 146.515 230.814C133.493 230.814 122.937 241.361 122.937 254.371C122.937 267.381 133.493 277.928 146.515 277.928Z" fill="#FF6584"/>
<path d="M208.172 247.621L147.607 266.63L148.019 267.94L208.584 248.93L208.172 247.621Z" fill="#3F3D56"/>
<path d="M208.557 250.801C210.075 250.801 211.305 249.572 211.305 248.056C211.305 246.54 210.075 245.311 208.557 245.311C207.04 245.311 205.81 246.54 205.81 248.056C205.81 249.572 207.04 250.801 208.557 250.801Z" fill="#3F3D56"/>
<path d="M601.74 371.589C605.766 374.424 609.634 377.313 614.058 379.496C613.975 379.832 613.886 380.175 613.804 380.512C613.261 380.258 612.732 379.99 612.203 379.715C607.717 377.368 603.856 374.177 599.645 371.404C597.557 369.962 595.277 368.821 592.871 368.013C590.364 367.261 587.743 366.954 585.129 367.107C574.227 367.643 564.884 374.142 554.751 377.416C549.791 379.022 544.515 379.88 539.342 378.871C534.169 377.862 529.573 375.117 525.005 372.632C520.498 370.175 515.586 367.705 510.324 367.705C506.037 367.711 501.531 369.427 499.236 373.216C499.165 373.329 499.052 373.41 498.922 373.441C498.792 373.473 498.655 373.453 498.539 373.385C498.424 373.317 498.34 373.207 498.304 373.078C498.269 372.949 498.285 372.811 498.35 372.694C498.863 371.831 499.494 371.043 500.225 370.354C503.221 367.519 507.624 366.4 511.67 366.73C516.905 367.155 521.68 369.626 526.207 372.111C531.009 374.746 535.928 377.581 541.478 378.157C546.961 378.734 552.388 377.3 557.471 375.371C567.316 371.63 577.03 365.398 587.98 366.092C593.146 366.421 597.57 368.658 601.74 371.589Z" fill="#3F3D56"/>
<path d="M170.839 173.093V174.486C170.377 174.395 169.908 174.349 169.437 174.349H162.251V189.764C162.25 192.046 161.342 194.235 159.727 195.849C158.112 197.462 155.921 198.37 153.637 198.371H143.016V200.746C143.016 201.698 143.205 202.64 143.572 203.518H142.102C141.795 202.626 141.64 201.689 141.642 200.746V198.371H135.803V196.998H141.642V181.583C141.643 179.301 142.551 177.112 144.167 175.499C145.782 173.885 147.972 172.978 150.257 172.976H160.877V170.574H162.251V172.976H169.437C169.907 172.977 170.376 173.016 170.839 173.093Z" fill="#023E8A"/>
<path d="M153.637 161.995H134.457C132.172 161.996 129.982 162.903 128.366 164.517C126.751 166.131 125.843 168.319 125.842 170.602V189.764C125.843 192.046 126.751 194.235 128.366 195.849C129.982 197.462 132.172 198.37 134.457 198.371H153.637C155.921 198.37 158.112 197.462 159.727 195.849C161.342 194.235 162.25 192.046 162.252 189.764V170.574C162.244 168.297 161.332 166.115 159.718 164.507C158.103 162.899 155.917 161.996 153.637 161.995ZM160.878 189.764C160.875 191.682 160.111 193.52 158.754 194.877C157.397 196.233 155.557 196.996 153.637 196.998H134.457C132.537 196.996 130.697 196.233 129.339 194.877C127.982 193.52 127.218 191.682 127.216 189.764V170.602C127.218 168.684 127.982 166.845 129.339 165.489C130.697 164.133 132.537 163.37 134.457 163.368H153.637C155.552 163.37 157.388 164.129 158.745 165.479C160.102 166.829 160.868 168.661 160.878 170.574V189.764Z" fill="#3F3D56"/>
<path d="M141.643 196.998V198.371H143.017V196.998H141.643ZM141.643 196.998V198.371H143.017V196.998H141.643ZM170.839 173.093C170.376 173.016 169.907 172.977 169.438 172.976H150.257C147.973 172.978 145.783 173.885 144.167 175.499C142.552 177.112 141.644 179.301 141.643 181.583V200.746C141.64 201.689 141.796 202.626 142.103 203.518C142.683 205.219 143.781 206.696 145.243 207.743C146.705 208.789 148.459 209.352 150.257 209.352H169.438C171.722 209.351 173.913 208.444 175.528 206.83C177.143 205.216 178.051 203.028 178.053 200.746V181.583C178.052 179.543 177.327 177.57 176.005 176.015C174.684 174.461 172.854 173.425 170.839 173.093ZM176.679 200.746C176.676 202.663 175.912 204.502 174.555 205.858C173.198 207.214 171.357 207.977 169.438 207.98H150.257C148.338 207.977 146.498 207.214 145.14 205.858C143.783 204.502 143.019 202.663 143.017 200.746V181.583C143.019 179.665 143.783 177.827 145.14 176.471C146.498 175.115 148.338 174.352 150.257 174.349H169.438C171.358 174.35 173.199 175.112 174.557 176.469C175.915 177.825 176.678 179.665 176.679 181.583V200.746ZM141.643 196.998V198.371H143.017V196.998H141.643Z" fill="#3F3D56"/>
<path d="M128.074 375.92H46.5984C46.0313 375.92 45.4874 376.145 45.0857 376.545C44.684 376.945 44.4572 377.488 44.4551 378.054V382.879C47.1431 393.165 50.3975 403.295 54.2033 413.222H128.074C128.355 413.223 128.633 413.168 128.892 413.061C129.152 412.953 129.387 412.796 129.586 412.598C129.784 412.4 129.941 412.164 130.049 411.905C130.156 411.646 130.211 411.368 130.211 411.088V378.054C130.21 377.488 129.985 376.946 129.584 376.546C129.184 376.146 128.641 375.921 128.074 375.92Z" fill="#023E8A"/>
<path d="M120.311 423.936H58.5518C59.2868 425.659 60.0357 427.368 60.8119 429.07H120.311C123.664 429.118 123.629 423.888 120.311 423.936Z" fill="#E4E4E4"/>
<path d="M120.311 435.7H63.9102C64.7345 437.423 65.5818 439.134 66.4519 440.834H120.311C123.664 440.882 123.629 435.659 120.311 435.7Z" fill="#E4E4E4"/>
<path d="M120.312 447.471H69.9219C70.8424 449.194 71.7904 450.903 72.7522 452.605H120.312C123.664 452.653 123.63 447.423 120.312 447.471Z" fill="#E4E4E4"/>
<path d="M542.702 131.092H542.311C543.529 131.093 544.731 131.377 545.821 131.922H544.039C542.12 131.924 540.279 132.687 538.922 134.043C537.565 135.399 536.801 137.238 536.799 139.155V158.319C536.801 160.236 537.565 162.075 538.922 163.431C540.279 164.787 542.12 165.55 544.039 165.552H545.175C544.262 165.91 543.291 166.094 542.311 166.096H542.702C544.804 166.093 546.819 165.258 548.305 163.773C549.791 162.288 550.627 160.275 550.63 158.176V139.012C550.627 136.913 549.791 134.899 548.305 133.415C546.819 131.93 544.804 131.095 542.702 131.092Z" fill="#3F3D56"/>
<path opacity="0.21" d="M542.702 131.092H542.311C543.529 131.093 544.731 131.377 545.821 131.922H544.039C542.12 131.924 540.279 132.687 538.922 134.043C537.565 135.399 536.801 137.238 536.799 139.155V158.319C536.801 160.236 537.565 162.075 538.922 163.431C540.279 164.787 542.12 165.55 544.039 165.552H545.175C544.262 165.91 543.291 166.094 542.311 166.096H542.702C544.804 166.093 546.819 165.258 548.305 163.773C549.791 162.288 550.627 160.275 550.63 158.176V139.012C550.627 136.913 549.791 134.899 548.305 133.415C546.819 131.93 544.804 131.095 542.702 131.092Z" fill="black"/>
<path d="M491.865 131.092H491.474C492.692 131.093 493.894 131.377 494.984 131.922H493.202C491.283 131.924 489.442 132.687 488.085 134.043C486.728 135.399 485.964 137.238 485.962 139.155V158.319C485.964 160.236 486.728 162.075 488.085 163.431C489.442 164.787 491.283 165.55 493.202 165.552H494.338C493.425 165.91 492.454 166.094 491.474 166.096H491.865C493.967 166.093 495.982 165.258 497.468 163.773C498.954 162.288 499.79 160.275 499.793 158.176V139.012C499.79 136.913 498.954 134.899 497.468 133.415C495.982 131.93 493.967 131.095 491.865 131.092Z" fill="#023E8A"/>
<path opacity="0.21" d="M491.865 131.092H491.474C492.692 131.093 493.894 131.377 494.984 131.922H493.202C491.283 131.924 489.442 132.687 488.085 134.043C486.728 135.399 485.964 137.238 485.962 139.155V158.319C485.964 160.236 486.728 162.075 488.085 163.431C489.442 164.787 491.283 165.55 493.202 165.552H494.338C493.425 165.91 492.454 166.094 491.474 166.096H491.865C493.967 166.093 495.982 165.258 497.468 163.773C498.954 162.288 499.79 160.275 499.793 158.176V139.012C499.79 136.913 498.954 134.899 497.468 133.415C495.982 131.93 493.967 131.095 491.865 131.092Z" fill="black"/>
<path d="M493.279 165.612C491.36 165.61 489.519 164.847 488.162 163.491C486.805 162.135 486.041 160.296 486.039 158.378V139.215C486.041 137.297 486.805 135.459 488.162 134.102C489.519 132.746 491.36 131.983 493.279 131.981H495.061C493.971 131.437 492.769 131.153 491.551 131.152H472.37C470.268 131.154 468.253 131.99 466.767 133.474C465.281 134.959 464.445 136.972 464.442 139.072V158.235C464.445 160.335 465.281 162.348 466.767 163.833C468.253 165.318 470.268 166.153 472.37 166.155H491.551C492.531 166.154 493.503 165.97 494.415 165.612L493.279 165.612Z" fill="#023E8A"/>
<path d="M544.116 165.612C542.197 165.61 540.356 164.847 538.999 163.491C537.642 162.135 536.878 160.296 536.876 158.378V139.215C536.878 137.297 537.642 135.459 538.999 134.102C540.356 132.746 542.197 131.983 544.116 131.981H545.898C544.808 131.437 543.606 131.153 542.388 131.152H523.207C521.105 131.154 519.09 131.99 517.604 133.474C516.118 134.959 515.282 136.972 515.279 139.072V158.235C515.282 160.335 516.118 162.348 517.604 163.833C519.09 165.318 521.105 166.153 523.207 166.155H542.388C543.368 166.154 544.339 165.97 545.252 165.612L544.116 165.612Z" fill="#3F3D56"/>
<path d="M566.766 135.921C573.805 145.596 580.245 155.693 586.049 166.154H574.041C571.939 166.151 569.925 165.316 568.439 163.831C566.953 162.346 566.116 160.333 566.113 158.234V139.071C566.113 137.988 566.335 136.915 566.766 135.921Z" fill="#FF6584"/>
<path d="M542.687 176.209L535.969 166.154L531.057 158.803C530.77 158.374 530.368 158.035 529.896 157.825C529.424 157.614 528.902 157.542 528.391 157.616C527.88 157.69 527.4 157.907 527.007 158.243C526.615 158.578 526.325 159.017 526.172 159.51L524.104 166.154L519.941 179.503C519.777 180.035 519.779 180.605 519.947 181.135C520.114 181.666 520.44 182.133 520.881 182.474C521.321 182.815 521.855 183.013 522.412 183.043C522.968 183.073 523.52 182.932 523.995 182.64L525.472 181.727C525.769 181.544 526.108 181.44 526.457 181.424C526.806 181.409 527.153 181.483 527.465 181.639C527.778 181.795 528.045 182.028 528.242 182.316C528.439 182.604 528.559 182.938 528.59 183.285L529.944 198.041C530.007 198.719 530.321 199.349 530.824 199.808C531.327 200.268 531.983 200.524 532.664 200.526C532.747 200.526 532.829 200.519 532.918 200.512L534.993 200.327C535.351 200.295 535.699 200.192 536.017 200.025C536.335 199.858 536.617 199.63 536.847 199.354C537.077 199.078 537.25 198.759 537.356 198.416C537.462 198.073 537.5 197.713 537.466 197.355L536.072 182.118C536.039 181.76 536.101 181.4 536.251 181.074C536.402 180.747 536.636 180.466 536.93 180.259C537.224 180.052 537.567 179.925 537.925 179.893C538.284 179.86 538.644 179.922 538.971 180.073L539.273 180.21C539.814 180.459 540.422 180.525 541.004 180.397C541.586 180.269 542.11 179.954 542.497 179.501C542.883 179.048 543.111 178.482 543.146 177.887C543.18 177.293 543.019 176.704 542.687 176.209Z" fill="#CCCCCC"/>
</g>
<defs>
<clipPath id="clip0_101_203">
<rect width="620" height="602" fill="white"/>
</clipPath>
</defs>
</svg>
