<svg width="30" height="20" viewBox="0 0 38 26" fill="none" xmlns="http://www.w3.org/2000/svg">
<path d="M2.33333 25.5H35.6667C36.8125 25.5 37.75 24.5625 37.75 23.4167C37.75 22.2708 36.8125 21.3333 35.6667 21.3333H2.33333C1.1875 21.3333 0.25 22.2708 0.25 23.4167C0.25 24.5625 1.1875 25.5 2.33333 25.5ZM2.33333 15.0833H35.6667C36.8125 15.0833 37.75 14.1458 37.75 13C37.75 11.8542 36.8125 10.9167 35.6667 10.9167H2.33333C1.1875 10.9167 0.25 11.8542 0.25 13C0.25 14.1458 1.1875 15.0833 2.33333 15.0833ZM0.25 2.58333C0.25 3.72917 1.1875 4.66667 2.33333 4.66667H35.6667C36.8125 4.66667 37.75 3.72917 37.75 2.58333C37.75 1.4375 36.8125 0.5 35.6667 0.5H2.33333C1.1875 0.5 0.25 1.4375 0.25 2.58333Z" fill="white"/>
</svg>
