<svg width="11" height="20" viewBox="0 0 11 20" fill="none" xmlns="http://www.w3.org/2000/svg">
<path d="M2.29998 0.899609L10.725 9.29961C10.825 9.39961 10.896 9.50794 10.938 9.62461C10.98 9.74128 11.0007 9.86628 11 9.99961C11 10.1329 10.979 10.2579 10.937 10.3746C10.895 10.4913 10.8243 10.5996 10.725 10.6996L2.29998 19.1246C2.06665 19.3579 1.77498 19.4746 1.42498 19.4746C1.07498 19.4746 0.774984 19.3496 0.524984 19.0996C0.274984 18.8496 0.149984 18.5579 0.149984 18.2246C0.149984 17.8913 0.274984 17.5996 0.524984 17.3496L7.87498 9.99961L0.524984 2.64961C0.291651 2.41628 0.174984 2.12861 0.174984 1.78661C0.174984 1.44461 0.299984 1.14894 0.549984 0.899609C0.799984 0.649609 1.09165 0.524609 1.42498 0.524609C1.75832 0.524609 2.04998 0.649609 2.29998 0.899609Z" fill="#111827"/>
</svg>
