<svg width="64" height="64" viewBox="0 0 64 64" fill="none" xmlns="http://www.w3.org/2000/svg">
<path fill-rule="evenodd" clip-rule="evenodd" d="M33.389 5.021C25.3681 5.021 18.9107 11.4377 18.9107 19.3039C18.9107 20.6514 19.1002 21.9552 19.4502 23.186C20.8998 23.606 22.259 24.236 23.484 25.0527C23.736 25.2053 23.9545 25.4073 24.1265 25.6464C24.2985 25.8856 24.4205 26.1571 24.485 26.4445C24.5495 26.732 24.5553 27.0295 24.5021 27.3192C24.4488 27.609 24.3375 27.885 24.175 28.1307C24.0124 28.3764 23.8019 28.5867 23.5561 28.749C23.3103 28.9114 23.0342 29.0224 22.7444 29.0754C22.4546 29.1285 22.1571 29.1224 21.8697 29.0576C21.5823 28.9929 21.3109 28.8707 21.0719 28.6985C19.3713 27.5716 17.3749 26.9739 15.3348 26.9806C9.61523 26.9806 5.02148 31.5597 5.02148 37.1481C5.02148 42.7364 9.61523 47.3127 15.3348 47.3127C15.915 47.3127 16.4714 47.5431 16.8816 47.9534C17.2918 48.3636 17.5223 48.92 17.5223 49.5002C17.5223 50.0803 17.2918 50.6367 16.8816 51.047C16.4714 51.4572 15.915 51.6877 15.3348 51.6877C7.2469 51.6877 0.646484 45.201 0.646484 37.1481C0.646484 29.2585 6.97565 22.8768 14.8331 22.6143C14.6352 21.522 14.5357 20.4141 14.5357 19.3039C14.5357 8.976 22.9998 0.645996 33.389 0.645996C42.5998 0.645996 50.294 7.191 51.9244 15.8739C58.6327 18.7235 63.3548 25.3181 63.3548 33.0297C63.3548 41.9956 56.9731 49.4535 48.5002 51.2677C47.9328 51.3891 47.3404 51.2802 46.8533 50.9648C46.3663 50.6495 46.0244 50.1536 45.9029 49.5862C45.7815 49.0188 45.8904 48.4264 46.2058 47.9393C46.5211 47.4522 47.017 47.1104 47.5844 46.9889C54.1177 45.5889 58.9798 39.8547 58.9798 33.0297C58.9798 26.7968 54.9257 21.4739 49.244 19.5314C47.7174 19.0093 46.1149 18.7432 44.5015 18.7439C42.8011 18.7439 41.1765 19.0356 39.6656 19.5606C39.1214 19.7383 38.5291 19.6955 38.016 19.4414C37.5029 19.1874 37.1099 18.7423 36.9213 18.2017C36.7327 17.6611 36.7636 17.0681 37.0073 16.55C37.251 16.0319 37.6881 15.63 38.2248 15.4306C41.0536 14.443 44.0758 14.1382 47.0448 14.541C46.0253 11.7415 44.1667 9.32494 41.7226 7.62111C39.2786 5.91728 36.3683 5.00925 33.389 5.021ZM30.3994 35.646H33.6019C35.5415 35.646 37.2127 35.646 38.5515 35.8268C39.9865 36.0193 41.3602 36.4539 42.4744 37.5681C43.5886 38.6822 44.0231 40.056 44.2156 41.491C44.3965 42.8297 44.3965 44.501 44.3965 46.4406V52.5597C44.3965 54.4993 44.3965 56.1706 44.2156 57.5093C44.0231 58.9443 43.5886 60.3181 42.4744 61.4322C41.3602 62.5464 39.9865 62.981 38.5515 63.1735C37.2127 63.3543 35.5415 63.3543 33.6019 63.3543H30.3994C28.4598 63.3543 26.7886 63.3543 25.4498 63.1735C24.0177 62.981 22.6411 62.5464 21.5269 61.4322C20.4127 60.3181 19.9781 58.9414 19.7857 57.5093C19.6048 56.1706 19.6048 54.4993 19.6048 52.5597V46.4406C19.6048 44.501 19.6048 42.8297 19.7857 41.491C19.9781 40.056 20.4127 38.6822 21.5269 37.5681C22.6411 36.4539 24.0177 36.0193 25.4498 35.8268C26.7886 35.646 28.4598 35.646 30.3994 35.646ZM26.0332 40.161C25.0852 40.2893 24.7877 40.4964 24.6215 40.6627C24.4552 40.8289 24.2481 41.1264 24.1198 42.0743C23.9857 43.0864 23.9798 44.4602 23.9798 46.5835V52.4168C23.9798 54.5402 23.9857 55.9168 24.1198 56.926C24.2481 57.8739 24.4552 58.1714 24.6215 58.3377C24.7877 58.5039 25.0852 58.711 26.0332 58.8393C27.0452 58.9735 28.419 58.9793 30.5423 58.9793H33.459C35.5823 58.9793 36.959 58.9735 37.9681 58.8393C38.9161 58.711 39.2136 58.5039 39.3798 58.3377C39.5461 58.1714 39.7531 57.8739 39.8815 56.926C40.0156 55.9139 40.0215 54.5402 40.0215 52.4168V46.5835C40.0215 44.4602 40.0156 43.0835 39.8815 42.0743C39.7531 41.1264 39.5461 40.8289 39.3798 40.6627C39.2136 40.4964 38.9161 40.2893 37.9681 40.161C36.9561 40.0268 35.5823 40.021 33.459 40.021H30.5423C28.419 40.021 27.0423 40.0268 26.0332 40.161ZM26.8965 49.5002C26.8965 48.92 27.127 48.3636 27.5372 47.9534C27.9474 47.5431 28.5038 47.3127 29.084 47.3127H34.9173C35.4975 47.3127 36.0539 47.5431 36.4641 47.9534C36.8743 48.3636 37.1048 48.92 37.1048 49.5002C37.1048 50.0803 36.8743 50.6367 36.4641 51.047C36.0539 51.4572 35.4975 51.6877 34.9173 51.6877H29.084C28.5038 51.6877 27.9474 51.4572 27.5372 51.047C27.127 50.6367 26.8965 50.0803 26.8965 49.5002Z" fill="#809EC4"/>
</svg>
