<svg width="50" height="40" viewBox="0 0 70 70" fill="none" xmlns="http://www.w3.org/2000/svg">
<path d="M40.8335 8.75V20.4167C40.8335 21.1902 41.1408 21.9321 41.6878 22.4791C42.2347 23.026 42.9766 23.3333 43.7502 23.3333H55.4168" stroke="#809EC4" stroke-width="4" stroke-linecap="round" stroke-linejoin="round"/>
<path d="M35.0002 61.25H20.4168C18.8697 61.25 17.386 60.6354 16.292 59.5415C15.1981 58.4475 14.5835 56.9638 14.5835 55.4167V14.5833C14.5835 13.0362 15.1981 11.5525 16.292 10.4585C17.386 9.36458 18.8697 8.75 20.4168 8.75H40.8335L55.4168 23.3333V36.4583" stroke="#809EC4" stroke-width="4" stroke-linecap="round" stroke-linejoin="round"/>
<path d="M53.9585 56.875L61.2502 64.1667M40.8335 51.0417C40.8335 52.9755 41.6017 54.8302 42.9692 56.1977C44.3366 57.5651 46.1913 58.3333 48.1252 58.3333C50.059 58.3333 51.9137 57.5651 53.2811 56.1977C54.6486 54.8302 55.4168 52.9755 55.4168 51.0417C55.4168 49.1078 54.6486 47.2531 53.2811 45.8857C51.9137 44.5182 50.059 43.75 48.1252 43.75C46.1913 43.75 44.3366 44.5182 42.9692 45.8857C41.6017 47.2531 40.8335 49.1078 40.8335 51.0417Z" stroke="#809EC4" stroke-width="4" stroke-linecap="round" stroke-linejoin="round"/>
</svg>
