<svg width="50" height="50" viewBox="0 0 50 50" fill="none" xmlns="http://www.w3.org/2000/svg">
<rect width="50" height="50" rx="5" fill="white"/>
<path d="M18.4275 11.3359C15.9471 11.3359 13.9095 13.3735 13.9095 15.8536C13.9095 18.334 15.9471 20.3727 18.4275 20.3727C20.8233 20.3727 22.7878 18.4657 22.9203 16.1009C22.9368 16.0195 22.9453 15.9366 22.9455 15.8536C22.9454 15.7699 22.9369 15.6865 22.9203 15.6045C22.7871 13.2407 20.8226 11.3359 18.4275 11.3359ZM34.4525 13.8145C31.9721 13.8145 29.9345 15.8518 29.9345 18.3322C29.9345 20.8126 31.9721 22.8502 34.4525 22.8502C36.848 22.8502 38.8128 20.9443 38.9453 18.5795C38.9619 18.4981 38.9703 18.4152 38.9705 18.3322C38.9704 18.2485 38.962 18.1651 38.9453 18.0831C38.8121 15.7193 36.8476 13.8145 34.4525 13.8145ZM18.4275 13.8559C19.546 13.8559 20.4255 14.7351 20.4255 15.8536C20.4255 16.9717 19.546 17.8527 18.4275 17.8527C17.3093 17.8527 16.4295 16.9717 16.4295 15.8536C16.4295 14.7351 17.3093 13.8559 18.4275 13.8559ZM34.4525 16.3345C35.5707 16.3345 36.4505 17.2137 36.4505 18.3322C36.4505 19.4503 35.5707 20.3302 34.4525 20.3302C33.334 20.3302 32.4545 19.4503 32.4545 18.3322C32.4545 17.2137 33.334 16.3345 34.4525 16.3345ZM20.3387 29.6297C17.8583 29.6297 15.8204 31.6673 15.8204 34.1477C15.8204 36.6277 17.8583 38.6657 20.3384 38.6657C22.7342 38.6657 24.699 36.7595 24.8315 34.395C24.8481 34.3135 24.8565 34.2305 24.8567 34.1473C24.8566 34.0638 24.8482 33.9805 24.8315 33.8986C24.6983 31.5345 22.7338 29.6297 20.3387 29.6297ZM20.3387 32.1497C21.4569 32.1497 22.3367 33.0292 22.3367 34.1477C22.3367 35.2659 21.4569 36.1457 20.3387 36.1457C19.2202 36.1457 18.3404 35.2659 18.3404 34.1477C18.3404 33.0292 19.2206 32.1497 20.3387 32.1497Z" fill="#111827"/>
</svg>
