<svg width="50" height="50" viewBox="0 0 50 50" fill="none" xmlns="http://www.w3.org/2000/svg">
<rect width="50" height="50" rx="5" fill="white"/>
<path d="M15.8571 13.9286C15.8571 14.4401 15.654 14.9306 15.2923 15.2923C14.9306 15.654 14.4401 15.8571 13.9286 15.8571C13.4171 15.8571 12.9265 15.654 12.5649 15.2923C12.2032 14.9306 12 14.4401 12 13.9286C12 13.4171 12.2032 12.9265 12.5649 12.5649C12.9265 12.2032 13.4171 12 13.9286 12C14.4401 12 14.9306 12.2032 15.2923 12.5649C15.654 12.9265 15.8571 13.4171 15.8571 13.9286ZM15.8571 13.9286H19.7143C21.2488 13.9286 22.7204 14.5381 23.8054 15.6232C24.8904 16.7082 25.5 18.1798 25.5 19.7143V31.2857C25.5 32.8202 26.1096 34.2918 27.1946 35.3768C28.2796 36.4619 29.7512 37.0714 31.2857 37.0714H35.1429M35.1429 37.0714C35.1429 37.5829 35.346 38.0735 35.7077 38.4351C36.0694 38.7968 36.5599 39 37.0714 39C37.5829 39 38.0735 38.7968 38.4351 38.4351C38.7968 38.0735 39 37.5829 39 37.0714C39 36.5599 38.7968 36.0694 38.4351 35.7077C38.0735 35.346 37.5829 35.1429 37.0714 35.1429C36.5599 35.1429 36.0694 35.346 35.7077 35.7077C35.346 36.0694 35.1429 36.5599 35.1429 37.0714Z" stroke="#111827" stroke-width="2.5"/>
</svg>
