<svg width="11" height="20" viewBox="0 0 11 20" fill="none" xmlns="http://www.w3.org/2000/svg">
<path d="M8.70002 19.1004L0.275016 10.7004C0.175016 10.6004 0.104016 10.4921 0.0620156 10.3754C0.0200156 10.2587 -0.000651042 10.1337 1.5625e-05 10.0004C1.5625e-05 9.86706 0.0210156 9.74206 0.0630156 9.62539C0.105016 9.50872 0.175682 9.40039 0.275016 9.30039L8.70002 0.875391C8.93335 0.642057 9.22502 0.525391 9.57502 0.525391C9.92502 0.525391 10.225 0.650391 10.475 0.900391C10.725 1.15039 10.85 1.44206 10.85 1.77539C10.85 2.10872 10.725 2.40039 10.475 2.65039L3.12502 10.0004L10.475 17.3504C10.7083 17.5837 10.825 17.8714 10.825 18.2134C10.825 18.5554 10.7 18.8511 10.45 19.1004C10.2 19.3504 9.90835 19.4754 9.57502 19.4754C9.24168 19.4754 8.95002 19.3504 8.70002 19.1004Z" fill="#111827"/>
</svg>
