<svg width="253" height="30" viewBox="0 0 313 30" fill="none" xmlns="http://www.w3.org/2000/svg">
<path d="M3.47008 8C3.25008 8 3.04008 8.08 2.87008 8.21C2.43008 8.55 2.35008 9.18 2.69008 9.61V9.62L7.00008 15.14V21.05L10.6401 24.71C11.0001 25.1 11.6601 25.1 12.0501 24.71C12.4401 24.32 12.4401 23.69 12.0601 23.3L9.00008 20.22V14.45L4.27008 8.39C4.08008 8.14 3.78008 8 3.47008 8ZM21.6201 6.22C21.4301 6.08 21.2201 6 21.0001 6H7.00008C6.78008 6 6.57008 6.08 6.38008 6.22C6.17252 6.38355 6.03812 6.6226 6.00627 6.88493C5.97442 7.14726 6.04769 7.41153 6.21008 7.62L11.0001 13.75V18.87C10.9601 19.16 11.0601 19.47 11.2901 19.7L15.3001 23.71C15.6901 24.1 16.3201 24.1 16.7101 23.71C16.9401 23.5 17.0401 23.18 17.0001 22.88V13.75L21.7901 7.62C21.9525 7.41153 22.0257 7.14726 21.9939 6.88493C21.962 6.6226 21.8276 6.38355 21.6201 6.22ZM15.0001 13.05V20.58L13.0001 18.58V13.06L9.04008 8H18.9601L15.0001 13.05Z" fill="#111827"/>
<path d="M46.736 26.64L40.352 18.192L42.776 16.536L49.088 24.912L46.736 26.64ZM41.504 24.24C40.304 24.24 39.192 24.024 38.168 23.592C37.144 23.16 36.248 22.56 35.48 21.792C34.728 21.008 34.144 20.088 33.728 19.032C33.312 17.976 33.104 16.824 33.104 15.576C33.104 14.328 33.312 13.176 33.728 12.12C34.144 11.064 34.728 10.152 35.48 9.384C36.248 8.6 37.144 7.992 38.168 7.56C39.192 7.128 40.304 6.912 41.504 6.912C42.72 6.912 43.84 7.128 44.864 7.56C45.888 7.992 46.776 8.6 47.528 9.384C48.28 10.168 48.864 11.088 49.28 12.144C49.696 13.184 49.904 14.328 49.904 15.576C49.904 16.808 49.696 17.952 49.28 19.008C48.864 20.064 48.28 20.984 47.528 21.768C46.776 22.552 45.888 23.16 44.864 23.592C43.84 24.024 42.72 24.24 41.504 24.24ZM41.504 21.264C42.272 21.264 42.968 21.128 43.592 20.856C44.232 20.568 44.784 20.168 45.248 19.656C45.712 19.128 46.072 18.52 46.328 17.832C46.6 17.144 46.736 16.392 46.736 15.576C46.736 14.76 46.6 14.008 46.328 13.32C46.072 12.632 45.712 12.032 45.248 11.52C44.784 10.992 44.232 10.592 43.592 10.32C42.968 10.032 42.272 9.888 41.504 9.888C40.752 9.888 40.056 10.032 39.416 10.32C38.776 10.592 38.224 10.984 37.76 11.496C37.296 12.008 36.936 12.608 36.68 13.296C36.424 13.984 36.296 14.744 36.296 15.576C36.296 16.392 36.424 17.152 36.68 17.856C36.936 18.544 37.296 19.144 37.76 19.656C38.224 20.168 38.776 20.568 39.416 20.856C40.056 21.128 40.752 21.264 41.504 21.264ZM57.1513 24.24C56.2393 24.24 55.4473 24.04 54.7753 23.64C54.1033 23.224 53.5913 22.64 53.2393 21.888C52.8873 21.12 52.7113 20.208 52.7113 19.152V11.352H55.6633V18.528C55.6633 19.2 55.7673 19.776 55.9753 20.256C56.1833 20.72 56.4873 21.08 56.8873 21.336C57.2873 21.592 57.7673 21.72 58.3273 21.72C58.7433 21.72 59.1193 21.656 59.4553 21.528C59.8073 21.384 60.1113 21.192 60.3673 20.952C60.6233 20.696 60.8233 20.4 60.9673 20.064C61.1113 19.712 61.1833 19.336 61.1833 18.936V11.352H64.1353V24H61.2553L61.2073 21.36L61.7353 21.072C61.5433 21.68 61.2153 22.224 60.7513 22.704C60.3033 23.168 59.7673 23.544 59.1433 23.832C58.5193 24.104 57.8553 24.24 57.1513 24.24ZM67.9312 24V11.352H70.8832V24H67.9312ZM69.3712 8.664C68.7792 8.664 68.3152 8.52 67.9792 8.232C67.6592 7.928 67.4992 7.504 67.4992 6.96C67.4992 6.448 67.6672 6.032 68.0032 5.712C68.3392 5.392 68.7952 5.232 69.3712 5.232C69.9792 5.232 70.4432 5.384 70.7632 5.688C71.0992 5.976 71.2672 6.4 71.2672 6.96C71.2672 7.456 71.0992 7.864 70.7632 8.184C70.4272 8.504 69.9632 8.664 69.3712 8.664ZM80.0504 24.24C78.8664 24.24 77.8024 23.952 76.8584 23.376C75.9144 22.8 75.1704 22.016 74.6264 21.024C74.0824 20.032 73.8104 18.912 73.8104 17.664C73.8104 16.416 74.0824 15.296 74.6264 14.304C75.1704 13.312 75.9144 12.528 76.8584 11.952C77.8024 11.376 78.8664 11.088 80.0504 11.088C81.1864 11.088 82.2184 11.304 83.1464 11.736C84.0744 12.168 84.7944 12.768 85.3064 13.536L83.6744 15.504C83.4344 15.168 83.1304 14.864 82.7624 14.592C82.3944 14.32 82.0024 14.104 81.5864 13.944C81.1704 13.784 80.7544 13.704 80.3384 13.704C79.6344 13.704 79.0024 13.88 78.4424 14.232C77.8984 14.568 77.4664 15.04 77.1464 15.648C76.8264 16.24 76.6664 16.912 76.6664 17.664C76.6664 18.416 76.8264 19.088 77.1464 19.68C77.4824 20.272 77.9304 20.744 78.4904 21.096C79.0504 21.448 79.6744 21.624 80.3624 21.624C80.7784 21.624 81.1784 21.56 81.5624 21.432C81.9624 21.288 82.3384 21.088 82.6904 20.832C83.0424 20.576 83.3704 20.256 83.6744 19.872L85.3064 21.864C84.7624 22.568 84.0104 23.144 83.0504 23.592C82.1064 24.024 81.1064 24.24 80.0504 24.24ZM90.3239 20.136L89.7479 17.376L95.7479 11.352H99.6839L90.3239 20.136ZM87.5639 24V6.24H90.5159V24H87.5639ZM96.1079 24L91.4519 18.36L93.5399 16.584L99.7559 24H96.1079ZM109.903 24V10.224C109.903 9.456 110.071 8.776 110.407 8.184C110.743 7.576 111.207 7.104 111.799 6.768C112.391 6.416 113.079 6.24 113.863 6.24C114.407 6.24 114.911 6.336 115.375 6.528C115.839 6.704 116.231 6.952 116.551 7.272L115.639 9.504C115.431 9.328 115.207 9.192 114.967 9.096C114.743 9 114.527 8.952 114.319 8.952C113.999 8.952 113.727 9.008 113.503 9.12C113.295 9.216 113.135 9.368 113.023 9.576C112.927 9.784 112.879 10.032 112.879 10.32V24H111.391C111.103 24 110.831 24 110.575 24C110.335 24 110.111 24 109.903 24ZM107.935 14.208V11.616H115.735V14.208H107.935ZM118.519 24V11.352H121.471V24H118.519ZM119.959 8.664C119.367 8.664 118.903 8.52 118.567 8.232C118.247 7.928 118.087 7.504 118.087 6.96C118.087 6.448 118.255 6.032 118.591 5.712C118.927 5.392 119.383 5.232 119.959 5.232C120.567 5.232 121.031 5.384 121.351 5.688C121.687 5.976 121.855 6.4 121.855 6.96C121.855 7.456 121.687 7.864 121.351 8.184C121.015 8.504 120.551 8.664 119.959 8.664ZM125.229 24V6.24H128.205V24H125.229ZM132.971 24V8.136H135.923V24H132.971ZM130.475 14.088V11.352H138.683V14.088H130.475ZM146.742 24.24C145.414 24.24 144.238 23.96 143.214 23.4C142.206 22.84 141.414 22.08 140.838 21.12C140.278 20.144 139.998 19.032 139.998 17.784C139.998 16.792 140.158 15.888 140.478 15.072C140.798 14.256 141.238 13.552 141.798 12.96C142.374 12.352 143.054 11.888 143.838 11.568C144.638 11.232 145.51 11.064 146.454 11.064C147.286 11.064 148.062 11.224 148.782 11.544C149.502 11.864 150.126 12.304 150.654 12.864C151.182 13.408 151.582 14.064 151.854 14.832C152.142 15.584 152.278 16.408 152.262 17.304L152.238 18.336H141.99L141.438 16.32H149.766L149.382 16.728V16.2C149.334 15.704 149.174 15.272 148.902 14.904C148.63 14.52 148.278 14.224 147.846 14.016C147.43 13.792 146.966 13.68 146.454 13.68C145.67 13.68 145.006 13.832 144.462 14.136C143.934 14.44 143.534 14.88 143.262 15.456C142.99 16.016 142.854 16.72 142.854 17.568C142.854 18.384 143.022 19.096 143.358 19.704C143.71 20.312 144.198 20.784 144.822 21.12C145.462 21.44 146.206 21.6 147.054 21.6C147.646 21.6 148.19 21.504 148.686 21.312C149.182 21.12 149.718 20.776 150.294 20.28L151.758 22.32C151.326 22.72 150.83 23.064 150.27 23.352C149.726 23.624 149.15 23.84 148.542 24C147.934 24.16 147.334 24.24 146.742 24.24ZM154.876 24V11.352H157.78L157.828 15.384L157.42 14.472C157.596 13.832 157.9 13.256 158.332 12.744C158.764 12.232 159.26 11.832 159.82 11.544C160.396 11.24 160.996 11.088 161.62 11.088C161.892 11.088 162.148 11.112 162.388 11.16C162.644 11.208 162.852 11.264 163.012 11.328L162.22 14.568C162.044 14.472 161.828 14.392 161.572 14.328C161.316 14.264 161.06 14.232 160.804 14.232C160.404 14.232 160.02 14.312 159.652 14.472C159.3 14.616 158.988 14.824 158.716 15.096C158.444 15.368 158.228 15.688 158.068 16.056C157.924 16.408 157.852 16.808 157.852 17.256V24H154.876ZM169.202 24.24C168.082 24.24 167.074 24.056 166.178 23.688C165.298 23.304 164.578 22.76 164.018 22.056L165.938 20.4C166.418 20.944 166.954 21.336 167.546 21.576C168.138 21.816 168.762 21.936 169.418 21.936C169.69 21.936 169.93 21.904 170.138 21.84C170.362 21.776 170.554 21.68 170.714 21.552C170.874 21.424 170.994 21.28 171.074 21.12C171.17 20.944 171.218 20.752 171.218 20.544C171.218 20.16 171.074 19.856 170.786 19.632C170.626 19.52 170.37 19.4 170.018 19.272C169.682 19.144 169.242 19.016 168.698 18.888C167.834 18.664 167.114 18.408 166.538 18.12C165.962 17.816 165.514 17.48 165.194 17.112C164.922 16.808 164.714 16.464 164.57 16.08C164.442 15.696 164.378 15.28 164.378 14.832C164.378 14.272 164.498 13.768 164.738 13.32C164.994 12.856 165.338 12.456 165.77 12.12C166.202 11.784 166.706 11.528 167.282 11.352C167.858 11.176 168.458 11.088 169.082 11.088C169.722 11.088 170.338 11.168 170.93 11.328C171.538 11.488 172.098 11.72 172.61 12.024C173.138 12.312 173.586 12.664 173.954 13.08L172.322 14.88C172.018 14.592 171.682 14.336 171.314 14.112C170.962 13.888 170.602 13.712 170.234 13.584C169.866 13.44 169.522 13.368 169.202 13.368C168.898 13.368 168.626 13.4 168.386 13.464C168.146 13.512 167.946 13.592 167.786 13.704C167.626 13.816 167.498 13.96 167.402 14.136C167.322 14.296 167.282 14.488 167.282 14.712C167.298 14.904 167.346 15.088 167.426 15.264C167.522 15.424 167.65 15.56 167.81 15.672C167.986 15.784 168.25 15.912 168.602 16.056C168.954 16.2 169.41 16.336 169.97 16.464C170.754 16.672 171.41 16.904 171.938 17.16C172.466 17.416 172.882 17.712 173.186 18.048C173.49 18.336 173.706 18.672 173.834 19.056C173.962 19.44 174.026 19.864 174.026 20.328C174.026 21.08 173.81 21.752 173.378 22.344C172.962 22.936 172.386 23.4 171.65 23.736C170.93 24.072 170.114 24.24 169.202 24.24Z" fill="#111827"/>
<path d="M302.165 13.4565L306.491 17.413C307.018 17.8949 307.136 18.4463 306.844 19.0672C306.552 19.688 306.033 19.999 305.285 20H296.716C295.968 20 295.447 19.6891 295.156 19.0672C294.864 18.4453 294.982 17.8939 295.51 17.413L299.836 13.4565C300.002 13.3043 300.183 13.1902 300.377 13.1141C300.571 13.038 300.779 13 301.001 13C301.223 13 301.431 13.038 301.625 13.1141C301.819 13.1902 301.999 13.3043 302.165 13.4565Z" fill="#111827"/>
</svg>
