<svg width="50" height="50" viewBox="0 0 50 50" fill="none" xmlns="http://www.w3.org/2000/svg">
<rect width="50" height="50" rx="5" fill="white"/>
<path d="M41.5 29.5H38.5V32.5H41.5V29.5ZM41.5 23.5H38.5V26.5H41.5V23.5ZM41.5 35.5H38.5V38.5C40 38.5 41.5 37 41.5 35.5ZM29.5 11.5H26.5V14.5H29.5V11.5ZM41.5 17.5H38.5V20.5H41.5V17.5ZM38.5 11.5V14.5H41.5C41.5 13 40 11.5 38.5 11.5ZM11.5 38.5H23.5V29.5H8.5V35.5C8.5 37.15 9.85 38.5 11.5 38.5ZM11.5 17.5H8.5V20.5H11.5V17.5ZM29.5 35.5H26.5V38.5H29.5V35.5ZM35.5 11.5H32.5V14.5H35.5V11.5ZM35.5 35.5H32.5V38.5H35.5V35.5ZM11.5 11.5C10 11.5 8.5 13 8.5 14.5H11.5V11.5ZM11.5 23.5H8.5V26.5H11.5V23.5ZM23.5 11.5H20.5V14.5H23.5V11.5ZM17.5 11.5H14.5V14.5H17.5V11.5Z" fill="#111827"/>
</svg>
