<svg width="50" height="50" viewBox="0 0 50 50" fill="none" xmlns="http://www.w3.org/2000/svg">
<rect width="50" height="50" rx="5" fill="white"/>
<g clip-path="url(#clip0_953_3657)">
<path d="M19.825 7.75001C20.675 7.47501 21.5315 7.28101 22.3945 7.16801C23.2575 7.05501 24.126 6.99901 25 7.00001C27.35 7.00001 29.569 7.41901 31.657 8.25701C33.745 9.09501 35.595 10.2575 37.207 11.7445C38.819 13.2315 40.1375 14.9815 41.1625 16.9945C42.1875 19.0075 42.8 21.176 43 23.5H40C39.825 21.7 39.35 20.0185 38.575 18.4555C37.8 16.8925 36.806 15.5115 35.593 14.3125C34.381 13.1125 32.9875 12.1435 31.4125 11.4055C29.8375 10.6675 28.15 10.224 26.35 10.075L28.675 12.4L26.575 14.5L19.825 7.75001ZM30.175 42.25C29.325 42.525 28.469 42.719 27.607 42.832C26.745 42.945 25.876 43.001 25 43C22.65 43 20.431 42.581 18.343 41.743C16.255 40.905 14.405 39.743 12.793 38.257C11.181 36.769 9.8625 35.019 8.8375 33.007C7.8125 30.995 7.2 28.826 7 26.5H10C10.2 28.3 10.6815 29.9815 11.4445 31.5445C12.2075 33.1075 13.1945 34.4885 14.4055 35.6875C15.6185 36.8875 17.0125 37.8565 18.5875 38.5945C20.1625 39.3325 21.85 39.776 23.65 39.925L21.325 37.6L23.425 35.5L30.175 42.25Z" fill="#111827"/>
<mask id="path-3-inside-1_953_3657" fill="white">
<rect x="17" y="17" width="16" height="16" rx="2"/>
</mask>
<rect x="17" y="17" width="16" height="16" rx="2" stroke="#111827" stroke-width="5" mask="url(#path-3-inside-1_953_3657)"/>
</g>
<defs>
<clipPath id="clip0_953_3657">
<rect width="36" height="36" fill="white" transform="translate(7 7)"/>
</clipPath>
</defs>
</svg>
