<svg width="20" height="20" viewBox="0 0 26 28" fill="none" xmlns="http://www.w3.org/2000/svg">
<path fill-rule="evenodd" clip-rule="evenodd" d="M0.5 3.5C0.5 2.70435 0.81607 1.94129 1.37868 1.37868C1.94129 0.81607 2.70435 0.5 3.5 0.5H19.379C20.1746 0.50017 20.9375 0.816352 21.5 1.379L25.121 5C25.6836 5.56248 25.9998 6.32542 26 7.121V24.5C26 25.2956 25.6839 26.0587 25.1213 26.6213C24.5587 27.1839 23.7956 27.5 23 27.5H3.5C2.70435 27.5 1.94129 27.1839 1.37868 26.6213C0.81607 26.0587 0.5 25.2956 0.5 24.5V3.5ZM8 3.5H3.5V24.5H6.5V17C6.5 16.2044 6.81607 15.4413 7.37868 14.8787C7.94129 14.3161 8.70435 14 9.5 14H17C17.7956 14 18.5587 14.3161 19.1213 14.8787C19.6839 15.4413 20 16.2044 20 17V24.5H23V7.121L19.379 3.5H18.5V7.25C18.5 7.84674 18.2629 8.41903 17.841 8.84099C17.419 9.26295 16.8467 9.5 16.25 9.5H10.25C9.65326 9.5 9.08097 9.26295 8.65901 8.84099C8.23705 8.41903 8 7.84674 8 7.25V3.5ZM11 3.5V6.5H15.5V3.5H11ZM17 24.5H9.5V17H17V24.5Z" fill="#111827"/>
</svg>
