<svg width="620" height="556" viewBox="0 0 788 556" fill="none" xmlns="http://www.w3.org/2000/svg">
<g clip-path="url(#clip0_27_358)">
<path d="M225.965 282.011C224.549 282.113 223.128 281.902 221.802 281.393C220.476 280.883 219.277 280.087 218.29 279.061C217.302 278.035 216.551 276.804 216.088 275.454C215.625 274.104 215.462 272.668 215.61 271.248L157.503 204.179L175.541 193.133L226.986 262.534C229.341 262.942 231.466 264.206 232.957 266.085C234.448 267.964 235.202 270.327 235.076 272.728C234.95 275.129 233.953 277.4 232.274 279.111C230.595 280.822 228.35 281.853 225.965 282.011Z" fill="#FFB6B6"/>
<path d="M140.109 175.646C140.109 175.646 135.556 178.022 142.374 186.537C147.832 193.353 171.474 225.965 181.272 233.074C180.62 234.646 180.507 236.391 180.951 238.035C181.394 239.679 182.369 241.127 183.721 242.152L200.593 223.448C200.042 217.753 196.244 217.807 194.079 218.361L187.875 203.917L165.012 166.497L143.37 173.869L140.109 175.646Z" fill="#023E8A"/>
<path d="M701.274 453.107H227.616C223.837 453.103 220.213 451.591 217.541 448.903C214.868 446.214 213.365 442.57 213.36 438.768V74.5749C213.365 70.7733 214.868 67.1285 217.541 64.4404C220.213 61.7522 223.837 60.2402 227.616 60.236H701.274C705.053 60.2402 708.677 61.7522 711.349 64.4404C714.022 67.1285 715.525 70.7733 715.529 74.575V438.768C715.525 442.569 714.022 446.214 711.349 448.903C708.677 451.591 705.053 453.103 701.274 453.107Z" fill="white"/>
<path d="M701.274 453.107H227.616C223.837 453.103 220.213 451.591 217.541 448.903C214.868 446.214 213.365 442.57 213.36 438.768V74.5749C213.365 70.7733 214.868 67.1285 217.541 64.4404C220.213 61.7522 223.837 60.2402 227.616 60.236H701.274C705.053 60.2402 708.677 61.7522 711.349 64.4404C714.022 67.1285 715.525 70.7733 715.529 74.575V438.768C715.525 442.569 714.022 446.214 711.349 448.903C708.677 451.591 705.053 453.103 701.274 453.107ZM227.616 62.4369C224.417 62.4405 221.349 63.7204 219.087 65.996C216.825 68.2715 215.552 71.3568 215.548 74.575V438.768C215.552 441.986 216.825 445.071 219.087 447.347C221.349 449.623 224.417 450.903 227.616 450.906H701.274C704.473 450.903 707.54 449.623 709.803 447.347C712.065 445.071 713.338 441.986 713.341 438.768V74.5749C713.338 71.3568 712.065 68.2715 709.803 65.996C707.54 63.7204 704.473 62.4405 701.274 62.4369H227.616Z" fill="#F0F0F0"/>
<path d="M462.462 144.528C459.949 140.347 456.971 135.883 452.307 134.518C446.906 132.937 441.358 136.078 436.651 139.177C422.577 148.446 409.023 158.491 396.052 169.266L396.066 169.428L426.362 167.327C433.658 166.821 441.205 166.245 447.653 162.773C450.1 161.455 452.485 159.696 455.258 159.573C458.702 159.421 461.706 161.84 464.066 164.369C478.029 179.324 482.069 202.195 497.734 215.334C487.856 190.831 476.062 167.155 462.462 144.528Z" fill="#F2F2F2"/>
<path d="M548.287 271.377C546.743 269.416 546.112 268.957 544.589 266.978C532.188 250.844 520.532 234.166 509.621 216.943C502.21 205.246 495.166 193.324 488.49 181.177C485.312 175.403 482.22 169.583 479.216 163.717C476.885 159.17 474.606 154.595 472.379 149.993C471.742 148.678 471.123 147.358 470.508 146.034C469.057 142.922 467.633 139.794 466.103 136.724C464.361 133.225 462.24 129.556 459.041 127.205C457.585 126.092 455.844 125.418 454.021 125.262C451.453 125.277 448.94 126.002 446.754 127.356C430.209 136.105 414.766 146.817 400.755 159.263C386.723 171.659 374.18 185.664 363.384 200.991C363.053 201.465 362.272 201.012 362.606 200.535C363.918 198.667 365.257 196.82 366.622 194.993C383.593 172.289 404.402 152.765 428.098 137.313C432.085 134.715 436.146 132.238 440.283 129.883C442.368 128.695 444.462 127.523 446.592 126.423C448.632 125.219 450.922 124.506 453.282 124.338C461.399 124.211 465.602 133.457 468.489 139.679C469.396 141.637 470.314 143.589 471.243 145.535C474.755 152.924 478.402 160.244 482.184 167.498C484.519 171.976 486.904 176.428 489.34 180.854C496.923 194.636 504.982 208.14 513.517 221.364C524.825 238.881 536.042 254.356 548.924 270.737C549.278 271.19 548.645 271.837 548.287 271.377Z" fill="#E4E4E4"/>
<path d="M399.953 154.698C399.481 154.169 399.012 153.64 398.538 153.111C394.795 148.947 390.778 144.831 385.638 142.444C383.187 141.27 380.512 140.646 377.797 140.616C374.996 140.693 372.235 141.299 369.656 142.402C368.43 142.895 367.232 143.454 366.051 144.049C364.702 144.732 363.377 145.46 362.059 146.194C359.583 147.572 357.14 149.011 354.729 150.509C349.931 153.492 345.284 156.702 340.787 160.14C338.455 161.923 336.172 163.764 333.937 165.664C331.858 167.428 329.822 169.24 327.827 171.1C327.4 171.496 326.763 170.855 327.19 170.459C327.716 169.967 328.247 169.477 328.779 168.994C330.281 167.628 331.807 166.288 333.357 164.975C336.184 162.575 339.084 160.269 342.057 158.055C346.681 154.61 351.463 151.399 356.405 148.421C358.874 146.935 361.378 145.51 363.915 144.149C364.681 143.738 365.456 143.336 366.24 142.955C368.02 142.052 369.868 141.295 371.768 140.692C374.459 139.816 377.307 139.535 380.116 139.867C382.829 140.264 385.443 141.173 387.819 142.547C392.866 145.385 396.78 149.772 400.589 154.054C400.974 154.489 400.34 155.133 399.953 154.698Z" fill="#E4E4E4"/>
<path d="M503.362 197.848L515.455 193.398L521.46 191.189C523.4 190.404 525.378 189.718 527.388 189.136C529.145 188.631 531.01 188.655 532.753 189.204C534.308 189.783 535.731 190.671 536.938 191.814C538.171 192.956 539.319 194.189 540.371 195.501C541.678 197.082 542.966 198.678 544.26 200.27C549.6 206.839 554.904 213.436 560.174 220.061C565.444 226.687 570.678 233.34 575.877 240.022C581.089 246.72 586.265 253.446 591.405 260.2C592.035 261.027 592.664 261.855 593.293 262.684C593.64 263.141 594.423 262.69 594.071 262.226C588.893 255.404 583.679 248.61 578.428 241.844C573.165 235.061 567.866 228.308 562.53 221.583C557.194 214.858 551.822 208.163 546.414 201.497C545.067 199.836 543.717 198.177 542.365 196.52C541.225 195.122 540.098 193.709 538.847 192.408C536.551 190.02 533.683 187.909 530.25 187.852C528.239 187.923 526.258 188.361 524.403 189.145C522.381 189.881 520.364 190.63 518.345 191.373L506.166 195.853L503.122 196.974C502.582 197.172 502.815 198.049 503.362 197.848Z" fill="#E4E4E4"/>
<path d="M384.047 147.684C380.939 146.144 377.48 145.463 374.025 145.711C370.569 145.96 367.241 147.129 364.383 149.098C375.155 150.968 385.81 153.469 396.292 156.589C391.939 154.024 388.534 150.004 384.047 147.684Z" fill="#F2F2F2"/>
<path d="M364.323 149.087L363.14 150.055C363.54 149.716 363.956 149.399 364.383 149.098L364.323 149.087Z" fill="#F2F2F2"/>
<path d="M536.483 197.892C535.425 196.323 533.949 195.084 532.225 194.316L530.562 194.382C543.218 216.875 560.309 236.53 580.788 252.139L536.483 197.892Z" fill="#F2F2F2"/>
<path d="M380.191 272.516C379.465 273.501 378.693 274.454 377.874 275.364C370.753 276.574 364.148 277.882 358.096 279.212C356.346 279.595 354.644 279.981 352.99 280.369L353.029 280.25C352.475 275.939 353.089 271.559 354.805 267.57C354.911 267.325 355.02 267.08 355.133 266.839C356.26 264.403 357.79 262.177 359.66 260.258C362.655 257.422 366.035 255.026 369.698 253.142C376.512 249.324 383.615 245.952 386.878 239.071C388.233 244.801 388.337 250.758 387.183 256.532C386.028 262.306 383.643 267.759 380.191 272.516Z" fill="#E6E6E6"/>
<path d="M343.23 254.175C346.423 250.949 349.135 247.275 351.282 243.267C353.423 239.28 354.993 235.009 355.946 230.58C356.912 226.085 357.206 221.471 356.818 216.889C356.016 207.557 352.512 198.667 346.739 191.317C346.387 190.87 346.026 190.43 345.657 189.997C345.246 189.512 344.559 190.221 344.968 190.702C350.854 197.682 354.576 206.245 355.674 215.332C356.472 222.276 355.704 229.311 353.428 235.915C351.153 242.519 347.427 248.524 342.529 253.482C342.082 253.933 342.783 254.626 343.23 254.175Z" fill="#FF6584"/>
<path d="M347.64 219.078C345.383 220.927 343.559 223.255 342.297 225.894C341.035 228.533 340.366 231.419 340.339 234.348C340.311 237.276 340.925 240.175 342.137 242.837C343.349 245.5 345.129 247.862 347.35 249.755L348.804 245.59C350.062 244.293 351.013 242.728 351.588 241.011C352.163 239.293 352.346 237.468 352.124 235.669C351.369 229.91 346.483 224.77 347.64 219.078Z" fill="#FF6584"/>
<path d="M347.142 192.154C346.743 192.007 346.352 191.84 345.97 191.651C345.952 191.681 345.933 191.712 345.914 191.741L347.142 192.154Z" fill="#E6E6E6"/>
<path d="M347.47 179.431C346.949 178.649 346.193 178.055 345.313 177.734C344.433 177.413 343.474 177.383 342.575 177.647C341.677 177.911 340.885 178.456 340.315 179.203C339.745 179.95 339.427 180.861 339.406 181.802C339.324 183.295 339.655 184.781 340.363 186.096C341.584 188.51 343.552 190.46 345.971 191.651C347.215 189.859 348.132 187.859 348.68 185.744C348.951 184.667 348.984 183.543 348.775 182.452C348.566 181.361 348.12 180.329 347.47 179.431Z" fill="#FF6584"/>
<path d="M364.537 191.649C365.22 188.806 365.282 185.847 364.719 182.977C364.156 180.108 362.981 177.394 361.276 175.025C360.976 180.827 354.966 184.571 352.798 189.956C352.135 191.64 351.857 193.454 351.986 195.261C352.114 197.069 352.645 198.824 353.539 200.397L353.908 204.795C356.519 203.507 358.821 201.664 360.656 199.395C362.491 197.125 363.815 194.483 364.537 191.649Z" fill="#FF6584"/>
<path d="M375.374 208.016C372.394 212.993 365.339 213.448 360.906 217.172C359.532 218.344 358.438 219.812 357.705 221.467C356.972 223.123 356.618 224.923 356.671 226.734L354.938 230.788C357.846 230.909 360.746 230.383 363.43 229.249C366.114 228.115 368.517 226.4 370.468 224.226C372.419 222.052 373.87 219.473 374.718 216.671C375.566 213.869 375.79 210.914 375.374 208.016Z" fill="#FF6584"/>
<path d="M347.967 275.295C346.61 278.843 343.993 281.758 340.622 283.478C340.45 283.576 340.277 283.669 340.104 283.76C339.96 283.837 339.813 283.911 339.666 283.981C338.482 284.248 337.288 284.476 336.1 284.729L336.091 284.733C334.319 285.236 332.647 285.725 331.076 286.202C330.193 286.467 329.34 286.728 328.523 286.985C328.415 287.016 328.31 287.049 328.202 287.083C328.062 287.127 327.925 287.171 327.787 287.212C327.784 287.205 327.781 287.202 327.781 287.196V287.189C327.15 285.77 326.538 284.348 325.953 282.903C323.643 277.343 321.809 271.595 320.472 265.722C318.806 258.589 318.343 251.225 319.102 243.938C319.687 238.918 321.054 234.022 323.153 229.429C323.456 228.774 323.773 228.127 324.104 227.486C324.204 227.285 324.307 227.086 324.417 226.887V226.884C324.427 226.864 324.44 226.844 324.453 226.821L324.501 226.732V226.728C324.788 226.192 325.088 225.663 325.399 225.142C326.944 222.517 328.771 220.071 330.847 217.847C334.359 214.027 338.694 211.067 343.52 209.194H343.523C343.755 209.103 343.991 209.018 344.226 208.934C344.136 209.189 344.047 209.44 343.96 209.694C342.782 213.116 341.878 216.627 341.255 220.193C341.208 220.467 341.161 220.744 341.118 221.022C339.72 229.626 339.923 238.416 341.716 246.946C341.719 246.969 341.726 246.992 341.729 247.015C342.129 248.904 342.608 250.772 343.169 252.62C343.182 252.672 343.196 252.722 343.213 252.774C343.32 253.133 343.435 253.491 343.549 253.846C343.882 254.882 344.241 255.909 344.627 256.929C346.872 262.88 349.982 269.262 347.967 275.295Z" fill="#F0F0F0"/>
<path d="M344.369 209.216C344.23 209.376 344.093 209.535 343.96 209.694C341.102 213.044 338.621 216.7 336.562 220.598C336.459 220.794 336.356 220.992 336.256 221.191C333.444 226.632 331.487 232.478 330.455 238.522V238.529C330.445 238.585 330.436 238.641 330.427 238.701L330.427 238.707C330.189 240.12 330.008 241.546 329.882 242.971C329.58 245.657 329.701 248.375 330.24 251.024C330.743 253.193 331.743 255.215 333.16 256.926C333.296 257.1 333.438 257.27 333.587 257.44C333.703 257.574 333.822 257.709 333.944 257.839C335.085 259.079 336.343 260.249 337.41 261.568C337.897 262.163 338.331 262.801 338.707 263.473C339.302 264.597 339.653 265.835 339.739 267.106C339.825 268.376 339.642 269.651 339.204 270.846C338.039 273.765 336.303 276.418 334.097 278.648C331.879 281.155 329.541 283.726 328.523 286.985C328.415 287.016 328.31 287.05 328.202 287.083C328.062 287.127 327.925 287.171 327.787 287.212C327.821 287.294 327.857 287.376 327.894 287.458C327.857 287.43 327.827 287.394 327.806 287.351C327.786 287.309 327.776 287.263 327.777 287.216C327.777 287.209 327.778 287.202 327.781 287.196V287.189C327.78 287.166 327.784 287.142 327.79 287.12C328.045 286.216 328.394 285.341 328.83 284.51C328.83 284.504 328.83 284.504 328.833 284.5C331.162 280.051 335.577 276.905 337.846 272.37C338.542 271.162 338.953 269.81 339.048 268.417C339.143 267.024 338.92 265.628 338.396 264.335C338.036 263.576 337.59 262.861 337.067 262.204C336.047 260.887 334.799 259.731 333.671 258.524C333.39 258.226 333.122 257.922 332.864 257.611C331.456 255.981 330.412 254.067 329.803 251.997C329.13 249.384 328.905 246.675 329.137 243.986C329.244 242.267 329.442 240.548 329.72 238.842C329.754 238.62 329.792 238.403 329.833 238.181V238.178C331.742 227.461 336.468 217.453 343.52 209.194H343.523C343.653 209.035 343.79 208.875 343.926 208.719C344.208 208.397 344.652 208.898 344.369 209.216Z" fill="white"/>
<path d="M330.027 238.921C327.969 238.436 326.148 237.232 324.891 235.522C323.635 233.812 323.023 231.709 323.165 229.587C323.172 229.5 323.212 229.42 323.276 229.362C323.341 229.305 323.425 229.274 323.511 229.278C323.597 229.282 323.678 229.319 323.738 229.382C323.797 229.444 323.83 229.528 323.83 229.615C323.693 231.59 324.263 233.55 325.437 235.139C326.611 236.729 328.311 237.844 330.23 238.284C330.647 238.38 330.442 239.016 330.027 238.921Z" fill="white"/>
<path d="M332.983 257.035C336.675 254.775 339.385 251.199 340.572 247.019C340.689 246.605 341.322 246.81 341.205 247.224C339.962 251.571 337.134 255.287 333.287 257.63C332.921 257.853 332.619 257.257 332.983 257.035Z" fill="white"/>
<path d="M336.373 220.518C337.131 220.873 337.964 221.032 338.798 220.983C339.632 220.933 340.441 220.676 341.152 220.234C341.516 220.007 341.817 220.603 341.456 220.829C340.668 221.313 339.775 221.596 338.853 221.653C337.932 221.71 337.011 221.539 336.17 221.155C336.088 221.126 336.02 221.066 335.98 220.988C335.94 220.91 335.931 220.819 335.955 220.735C335.982 220.65 336.042 220.581 336.12 220.54C336.198 220.5 336.289 220.492 336.373 220.518Z" fill="white"/>
<path d="M387.965 235.463C387.74 235.61 387.522 235.76 387.297 235.91L387.294 235.913C384.305 237.926 381.484 240.18 378.859 242.652L378.855 242.656C378.647 242.845 378.442 243.038 378.241 243.231C371.994 249.245 366.905 256.368 363.232 264.243L363.203 264.302C361.745 267.448 360.526 270.7 359.558 274.031C359.067 275.719 358.609 277.477 358.096 279.212C356.346 279.595 354.644 279.981 352.99 280.369C350.89 280.858 348.868 281.348 346.923 281.84C346.08 282.048 345.251 282.259 344.438 282.471C342.903 283.138 341.304 283.644 339.666 283.981C338.482 284.248 337.288 284.476 336.1 284.729L336.09 284.733C334.318 285.236 332.647 285.725 331.075 286.202C330.193 286.467 329.34 286.728 328.522 286.985C328.415 287.016 328.31 287.049 328.202 287.083C328.405 286.228 328.611 285.366 328.83 284.51C328.83 284.504 328.83 284.504 328.833 284.5C330.691 276.767 333.455 269.282 337.067 262.204C337.177 261.992 337.286 261.777 337.409 261.568C338.899 258.78 340.587 256.104 342.462 253.562C342.689 253.247 342.925 252.935 343.165 252.623L343.168 252.62C344.173 251.319 345.235 250.059 346.352 248.838C346.547 248.623 346.748 248.407 346.95 248.194C347.047 248.091 347.148 247.988 347.248 247.885C347.625 247.493 348.012 247.104 348.406 246.728C349.023 246.13 349.661 245.547 350.311 244.982C352.927 242.718 355.779 240.745 358.816 239.099C358.836 239.089 358.858 239.075 358.878 239.065C367.644 234.331 377.817 232.465 387.242 235.241C387.486 235.315 387.722 235.386 387.965 235.463Z" fill="#F0F0F0"/>
<path d="M331.076 286.202C332.697 285.553 334.376 285.061 336.091 284.733C334.319 285.236 332.647 285.725 331.076 286.202Z" fill="white"/>
<path d="M387.912 235.776C387.706 235.817 387.5 235.862 387.297 235.91C383.01 236.855 378.84 238.273 374.863 240.138C374.66 240.232 374.461 240.326 374.265 240.423C368.764 243.066 363.702 246.55 359.26 250.751L359.257 250.754C359.213 250.792 359.172 250.832 359.133 250.874L359.13 250.877C358.096 251.858 357.099 252.883 356.14 253.952C354.291 255.914 352.76 258.157 351.604 260.599C350.71 262.636 350.298 264.855 350.403 267.08C350.411 267.3 350.423 267.524 350.441 267.748C350.452 267.926 350.467 268.104 350.485 268.285C350.731 270.729 351.263 273.204 350.913 275.666C350.716 276.919 350.258 278.116 349.571 279.18C348.884 280.244 347.982 281.15 346.923 281.84C346.08 282.048 345.251 282.259 344.438 282.471C344.595 282.404 344.748 282.33 344.902 282.253C346.179 281.708 347.317 280.877 348.226 279.823C349.136 278.769 349.794 277.519 350.15 276.17C350.674 273.69 350.125 271.14 349.855 268.666C349.813 268.268 349.78 267.876 349.76 267.484C349.758 267.466 349.756 267.449 349.757 267.431C349.609 265.283 349.922 263.127 350.674 261.111C351.702 258.618 353.144 256.318 354.937 254.311C356.054 253.003 357.24 251.75 358.482 250.56C358.641 250.4 358.803 250.247 358.966 250.097C363.508 245.865 368.667 242.356 374.263 239.691C378.408 237.718 382.762 236.225 387.242 235.241C387.445 235.197 387.651 235.152 387.854 235.111C388.273 235.025 388.328 235.69 387.912 235.776Z" fill="white"/>
<path d="M358.68 250.807C357.326 249.174 356.594 247.109 356.614 244.983C356.633 242.857 357.404 240.807 358.788 239.199C359.069 238.875 359.583 239.299 359.302 239.624C358.01 241.118 357.293 243.028 357.278 245.008C357.264 246.988 357.954 248.908 359.223 250.422C359.499 250.751 358.954 251.134 358.68 250.807Z" fill="white"/>
<path d="M350.198 267.061C354.498 267.492 358.802 266.278 362.252 263.659C362.593 263.4 362.976 263.947 362.635 264.206C359.04 266.924 354.559 268.179 350.085 267.72C349.659 267.676 349.774 267.017 350.198 267.061Z" fill="white"/>
<path d="M374.762 239.957C375.154 240.699 375.724 241.331 376.42 241.796C377.116 242.262 377.915 242.546 378.747 242.624C379.174 242.663 379.058 243.322 378.634 243.283C377.715 243.193 376.832 242.878 376.063 242.365C375.293 241.852 374.66 241.158 374.218 240.342C374.17 240.269 374.152 240.18 374.167 240.094C374.182 240.007 374.229 239.929 374.298 239.876C374.371 239.826 374.46 239.806 374.546 239.821C374.633 239.836 374.711 239.885 374.762 239.957Z" fill="white"/>
<path d="M422.894 258.832C421.933 263.144 419.631 267.035 416.322 269.941C416.082 270.153 415.838 270.358 415.587 270.559C414.974 270.613 414.363 270.67 413.76 270.729C413.26 270.775 412.764 270.823 412.272 270.873L412.186 270.881L412.124 270.339L411.874 268.152C410.907 266.565 410.308 264.78 410.121 262.929C409.934 261.077 410.163 259.207 410.792 257.457C411.799 255.118 413.137 252.937 414.764 250.983C416.89 248.14 418.959 245.331 419.035 241.869C421.399 244.944 422.854 248.627 423.233 252.496C423.453 254.613 423.338 256.751 422.894 258.832Z" fill="#E6E6E6"/>
<path d="M433.774 250.192C428.976 253.7 429.14 261.001 425.746 265.895C424.713 267.371 423.366 268.599 421.804 269.489C421.378 269.734 420.937 269.952 420.485 270.144C418.822 270.274 417.19 270.412 415.588 270.559C414.974 270.613 414.363 270.67 413.76 270.729C413.26 270.775 412.764 270.823 412.272 270.873C412.27 270.691 412.27 270.507 412.275 270.326C412.377 265.497 414.143 260.854 417.27 257.189C417.418 257.016 417.568 256.848 417.722 256.681C419.306 254.978 421.171 253.562 423.233 252.496C426.48 250.797 430.119 250.002 433.774 250.192Z" fill="#F2F2F2"/>
<path d="M414.328 269.037L413.951 270.161L413.76 270.729C413.26 270.775 412.764 270.823 412.272 270.873L412.186 270.881C411.64 270.938 411.099 270.992 410.561 271.049C410.418 270.883 410.278 270.716 410.141 270.545C406.721 266.378 405.079 261.019 405.575 255.639C406.07 250.259 408.663 245.294 412.786 241.831C412.183 245 413.394 247.978 414.764 250.983C415.771 252.977 416.61 255.053 417.269 257.189C417.413 257.722 417.526 258.262 417.606 258.808C417.858 260.651 417.694 262.528 417.126 264.299C416.559 266.069 415.603 267.689 414.328 269.037Z" fill="#F2F2F2"/>
<path d="M509.374 271.186C509.278 271.339 509.178 271.489 509.075 271.635C508.831 271.609 508.589 271.585 508.347 271.559C507.924 271.515 507.502 271.471 507.081 271.427C507.028 271.423 506.976 271.416 506.924 271.412L506.662 270.901L506.174 269.949C504.989 269.027 504.025 267.848 503.355 266.5C502.685 265.151 502.325 263.669 502.303 262.161C502.398 260.097 502.79 258.058 503.465 256.106C504.265 253.341 505.03 250.616 504.099 247.974C506.767 249.622 508.92 251.993 510.311 254.814C511.081 256.353 511.604 258.005 511.861 259.708C512.427 263.71 511.544 267.784 509.374 271.186Z" fill="#E6E6E6"/>
<path d="M516.037 264.233C515.66 265.692 514.961 267.047 513.992 268.197C513.024 269.347 511.81 270.263 510.442 270.877L510.104 271.267L509.725 271.708C509.509 271.684 509.291 271.66 509.075 271.635C508.831 271.609 508.589 271.585 508.347 271.559C507.924 271.515 507.502 271.471 507.081 271.427C507.02 271.263 506.965 271.096 506.913 270.927C505.799 267.387 505.877 263.577 507.133 260.085C507.194 259.912 507.259 259.741 507.329 259.572C508.045 257.826 509.053 256.217 510.311 254.814C512.284 252.589 514.813 250.935 517.635 250.024C515.004 254.065 517.21 259.548 516.037 264.233Z" fill="#F2F2F2"/>
<path d="M508.33 271.074L508.347 271.559C507.924 271.515 507.502 271.471 507.081 271.427C507.028 271.423 506.976 271.416 506.924 271.412C505.888 271.306 504.858 271.208 503.833 271.116C503.604 270.942 503.377 270.763 503.157 270.572C500.198 268.1 498.195 264.661 497.5 260.855C496.805 257.049 497.461 253.118 499.354 249.75C499.801 252.324 501.568 254.229 503.465 256.106C504.795 257.327 506.022 258.659 507.133 260.085C507.394 260.448 507.634 260.825 507.85 261.216C508.566 262.54 508.977 264.009 509.052 265.514C509.128 267.019 508.866 268.522 508.286 269.912L508.33 271.074Z" fill="#F2F2F2"/>
<path d="M595.686 290.44C595.666 290.508 595.625 290.566 595.569 290.608C595.513 290.65 595.445 290.672 595.375 290.671C595.342 290.67 595.309 290.665 595.277 290.655C566.126 281.385 536.135 275.039 505.743 271.708C505.418 271.671 505.091 271.635 504.766 271.599C504.399 271.559 504.035 271.523 503.672 271.484C503.036 271.418 502.401 271.352 501.768 271.286C501.689 271.279 501.611 271.269 501.532 271.263C499.975 271.105 498.426 270.956 496.885 270.818C471.169 268.484 445.304 268.303 419.558 270.277C417.533 270.435 415.545 270.603 413.594 270.781C412.847 270.847 412.103 270.917 411.369 270.989C410.759 271.045 410.155 271.103 409.557 271.164L409.452 271.174C408.787 271.243 408.128 271.309 407.472 271.378C404.795 271.658 402.193 271.955 399.667 272.268C350.574 278.323 319.915 290.526 319.61 290.648C319.529 290.68 319.439 290.678 319.36 290.644C319.28 290.609 319.217 290.544 319.185 290.463C319.153 290.382 319.154 290.291 319.189 290.211C319.223 290.131 319.287 290.068 319.367 290.035C319.672 289.913 350.394 277.684 399.562 271.619C402.023 271.316 404.489 271.031 406.961 270.765C407.767 270.679 408.57 270.597 409.376 270.515C409.439 270.508 409.501 270.505 409.56 270.498C410.242 270.429 410.92 270.363 411.601 270.297C412.565 270.205 413.525 270.116 414.488 270.03C416.71 269.829 418.935 269.645 421.164 269.479C443.154 267.841 465.233 267.786 487.231 269.315C490.111 269.516 492.991 269.744 495.869 270C497.626 270.152 499.382 270.32 501.139 270.495C501.263 270.508 501.388 270.521 501.515 270.534C502.227 270.603 502.934 270.679 503.645 270.755C504.17 270.808 504.691 270.864 505.215 270.923C505.582 270.963 505.949 271.002 506.313 271.045C536.578 274.429 566.441 280.787 595.473 290.028C595.514 290.041 595.553 290.061 595.586 290.089C595.619 290.117 595.646 290.151 595.666 290.189C595.686 290.228 595.698 290.27 595.701 290.313C595.705 290.356 595.7 290.399 595.686 290.44Z" fill="#023E8A"/>
<path d="M406.437 206.028C407.207 208.839 408.94 211.286 411.33 212.936C412.254 213.569 413.348 214.176 413.664 215.255C413.83 215.943 413.728 216.668 413.378 217.282C413.028 217.888 412.603 218.447 412.112 218.944L412.068 219.113C409.7 217.847 407.716 215.962 406.325 213.657C405.649 212.496 405.302 211.172 405.322 209.827C405.342 208.482 405.727 207.168 406.437 206.028Z" fill="#F2F2F2"/>
<path d="M522.003 218.272C521.327 217.111 520.98 215.786 521 214.441C521.02 213.096 521.405 211.782 522.115 210.642C522.884 213.454 524.617 215.901 527.008 217.551C527.932 218.184 529.025 218.791 529.342 219.87C529.508 220.557 529.405 221.283 529.055 221.897C528.706 222.503 528.281 223.061 527.79 223.558L527.745 223.727C525.378 222.462 523.394 220.577 522.003 218.272Z" fill="#F2F2F2"/>
<path d="M472.521 277.274C471.845 276.114 471.498 274.789 471.517 273.444C471.537 272.099 471.923 270.785 472.633 269.645C473.402 272.457 475.135 274.904 477.526 276.554C478.45 277.186 479.543 277.794 479.859 278.872C480.026 279.56 479.923 280.286 479.573 280.899C479.223 281.505 478.798 282.064 478.308 282.561L478.263 282.73C475.895 281.465 473.912 279.58 472.521 277.274Z" fill="#F2F2F2"/>
<path d="M541.829 145.58C551.059 145.58 558.542 138.054 558.542 128.769C558.542 119.485 551.059 111.958 541.829 111.958C532.599 111.958 525.116 119.485 525.116 128.769C525.116 138.054 532.599 145.58 541.829 145.58Z" fill="#FF6584"/>
<path d="M571.989 115.871C563.889 114.77 554.642 119.174 552.543 127.119C552.014 125.706 551.052 124.5 549.796 123.673C548.541 122.846 547.056 122.442 545.557 122.519C544.059 122.597 542.623 123.151 541.458 124.103C540.293 125.055 539.459 126.355 539.077 127.814L540.004 128.482C557.361 132.258 575.329 132.176 592.652 128.243C587.018 122.287 580.089 116.972 571.989 115.871Z" fill="#F0F0F0"/>
<path d="M537.253 138.286C529.153 137.185 519.906 141.588 517.807 149.534C517.278 148.121 516.316 146.914 515.06 146.087C513.804 145.26 512.32 144.856 510.821 144.934C509.322 145.011 507.887 145.566 506.722 146.518C505.557 147.469 504.723 148.769 504.34 150.229L505.268 150.897C522.625 154.673 540.593 154.591 557.915 150.657C552.281 144.701 545.352 139.387 537.253 138.286Z" fill="#F0F0F0"/>
<path d="M570.484 266.433C570.086 266.284 569.697 266.113 569.317 265.921C569.298 265.951 569.279 265.981 569.26 266.011L570.484 266.433Z" fill="#E6E6E6"/>
<path d="M394.201 136.525C393.524 135.364 393.177 134.039 393.197 132.694C393.217 131.349 393.602 130.035 394.312 128.895C395.082 131.707 396.815 134.154 399.205 135.804C400.129 136.437 401.223 137.044 401.539 138.123C401.705 138.81 401.603 139.536 401.253 140.15C400.903 140.756 400.478 141.314 399.987 141.812L399.943 141.98C397.575 140.715 395.591 138.83 394.201 136.525Z" fill="#F2F2F2"/>
<path d="M595.375 335.83C595.342 335.83 595.309 335.825 595.277 335.814C526.866 314.004 454.349 308.498 383.459 319.733C376.817 320.805 370.157 322.043 363.664 323.412C362.007 323.761 360.287 324.136 358.553 324.526C356.483 324.99 354.439 325.467 352.48 325.945C351.634 326.146 350.805 326.35 349.992 326.554C348.76 326.86 347.51 327.179 346.171 327.529C344.674 327.917 343.153 328.324 341.649 328.739L341.633 328.744C339.934 329.211 338.245 329.691 336.611 330.17C335.727 330.427 334.873 330.68 334.055 330.93C333.964 330.956 333.883 330.98 333.801 331.005L333.625 331.059C333.524 331.09 333.423 331.121 333.323 331.15L333.316 331.152L333.05 331.235C332.733 331.332 332.424 331.426 332.119 331.52C324.076 334.014 319.654 335.789 319.611 335.806C319.571 335.822 319.528 335.83 319.485 335.83C319.442 335.829 319.4 335.82 319.36 335.803C319.32 335.786 319.285 335.761 319.254 335.73C319.224 335.699 319.201 335.663 319.185 335.623C319.169 335.582 319.161 335.539 319.161 335.496C319.162 335.453 319.171 335.41 319.188 335.37C319.204 335.331 319.229 335.295 319.26 335.264C319.291 335.234 319.327 335.21 319.367 335.194C319.411 335.177 323.854 333.393 331.927 330.89C332.232 330.796 332.543 330.701 332.861 330.604L333.108 330.527L333.133 330.519C333.233 330.49 333.333 330.46 333.435 330.429L333.611 330.375C333.698 330.348 333.785 330.322 333.873 330.297C334.685 330.049 335.542 329.795 336.429 329.537C338.063 329.057 339.754 328.577 341.453 328.11L341.469 328.106C342.978 327.689 344.505 327.28 346.007 326.891C347.348 326.54 348.6 326.221 349.834 325.914C350.65 325.71 351.482 325.506 352.327 325.304C354.289 324.825 356.336 324.347 358.411 323.882C360.147 323.492 361.87 323.117 363.53 322.767C370.033 321.395 376.703 320.156 383.355 319.082C454.346 307.831 526.966 313.344 595.474 335.186C595.549 335.21 595.612 335.259 595.654 335.326C595.695 335.393 595.711 335.473 595.699 335.55C595.687 335.628 595.648 335.699 595.589 335.75C595.529 335.802 595.454 335.83 595.375 335.83Z" fill="#023E8A"/>
<path d="M382.63 296.134C386.647 294.485 405.687 292.303 410.013 292.625C410.14 292.628 410.264 292.581 410.357 292.494C410.451 292.407 410.507 292.286 410.514 292.158C410.521 292.03 410.479 291.904 410.395 291.807C410.312 291.71 410.194 291.649 410.067 291.638C405.56 291.302 386.356 293.54 382.174 295.257C381.589 295.497 382.047 296.373 382.63 296.134Z" fill="#023E8A"/>
<path d="M327.519 308.768C331.578 307.205 335.942 306.607 340.269 307.022C340.397 307.028 340.521 306.983 340.616 306.898C340.712 306.812 340.77 306.693 340.78 306.565C340.79 306.438 340.75 306.311 340.668 306.212C340.587 306.113 340.471 306.05 340.344 306.036C335.84 305.613 331.301 306.245 327.081 307.882C326.491 308.11 326.932 308.995 327.519 308.768Z" fill="#023E8A"/>
<path d="M486.601 291.714C490.883 290.963 495.28 291.218 499.447 292.46C499.571 292.489 499.702 292.47 499.812 292.404C499.922 292.339 500.002 292.234 500.036 292.11C500.07 291.986 500.055 291.854 499.994 291.742C499.933 291.629 499.83 291.545 499.709 291.506C495.369 290.223 490.793 289.968 486.34 290.76C485.718 290.87 485.981 291.824 486.601 291.714Z" fill="#023E8A"/>
<path d="M582.792 240.512L587.642 236.65C587.207 233.411 585.993 230.328 584.104 227.669C583.757 233.468 577.716 237.161 575.504 242.527C574.826 244.207 574.534 246.018 574.647 247.826C574.76 249.635 575.276 251.394 576.158 252.975L576.49 257.375C579.111 256.109 581.429 254.286 583.282 252.032C585.136 249.778 586.482 247.147 587.227 244.319C587.63 242.729 587.832 241.094 587.828 239.453C585.387 240.113 582.792 240.512 582.792 240.512Z" fill="#FF6584"/>
<path d="M571.341 279.36C569.407 279.807 567.717 280.067 567.717 280.067L570.71 277.684C569.955 275.753 569.745 273.649 570.104 271.605C567.832 273.436 565.988 275.748 564.705 278.376C563.421 281.005 562.728 283.885 562.676 286.813C562.625 289.742 563.214 292.645 564.404 295.318C565.594 297.991 567.354 300.367 569.56 302.279L571.048 298.127C572.317 296.84 573.281 295.283 573.87 293.57C574.459 291.858 574.657 290.034 574.45 288.234C574.074 285.165 572.526 282.262 571.341 279.36Z" fill="#FF6584"/>
<path d="M569.293 231.038C568.274 231.939 567.31 232.901 566.406 233.92L567.952 230.331C567.372 230.106 566.75 230.012 566.13 230.053C565.509 230.094 564.906 230.271 564.36 230.571C563.737 230.974 563.216 231.517 562.837 232.158C562.458 232.798 562.233 233.519 562.178 234.262C562.084 235.754 562.403 237.243 563.1 238.564C564.301 240.988 566.253 242.954 568.661 244.166C569.921 242.384 570.854 240.392 571.419 238.281C571.7 237.206 571.742 236.083 571.542 234.99C571.342 233.897 570.905 232.862 570.262 231.959C569.982 231.609 569.656 231.299 569.293 231.038Z" fill="#FF6584"/>
<path d="M593.278 270.508L597.774 266.928C598.145 264.898 598.197 262.822 597.928 260.776C594.907 265.728 587.848 266.124 583.385 269.811C582.001 270.972 580.895 272.43 580.148 274.079C579.402 275.728 579.033 277.525 579.071 279.337L577.304 283.377C580.209 283.501 583.107 282.991 585.797 281.88C588.488 280.77 590.907 279.086 592.888 276.945C594.762 274.872 596.181 272.427 597.052 269.766C595.056 270.234 593.278 270.508 593.278 270.508Z" fill="#FF6584"/>
<path d="M568.681 301.463C567.822 302.577 566.912 303.65 565.951 304.68C566.308 304.789 566.656 304.894 566.997 305C567.839 304.08 568.642 303.128 569.405 302.142C569.533 301.977 569.661 301.809 569.789 301.638C571.181 299.795 572.436 297.852 573.544 295.823C575.683 291.923 577.271 287.741 578.263 283.4C578.283 283.324 578.299 283.251 578.315 283.175C578.581 281.982 578.8 280.776 578.971 279.566C579.007 279.322 579.04 279.075 579.072 278.831C579.154 278.162 579.223 277.493 579.279 276.824C579.48 274.384 579.487 271.933 579.298 269.493C578.976 265.319 578.11 261.207 576.723 257.26C576.624 256.98 576.526 256.7 576.418 256.423C576.359 256.258 576.297 256.093 576.234 255.929C574.565 251.587 572.274 247.514 569.435 243.838C569.33 243.703 569.225 243.571 569.12 243.439C568.871 243.126 568.619 242.816 568.363 242.51C568.321 242.456 568.267 242.414 568.206 242.385C568.144 242.357 568.077 242.344 568.009 242.347C567.941 242.351 567.875 242.37 567.817 242.404C567.758 242.438 567.708 242.485 567.672 242.543C567.59 242.634 567.545 242.752 567.544 242.874C567.543 242.997 567.586 243.116 567.665 243.209C567.872 243.456 568.078 243.706 568.275 243.96C568.52 244.26 568.756 244.567 568.986 244.876C574.048 251.592 577.22 259.554 578.168 267.927C578.736 273.087 578.427 278.307 577.254 283.363H577.25C576.55 286.41 575.545 289.377 574.252 292.22C573.993 292.787 573.723 293.349 573.442 293.905C572.715 295.352 571.912 296.759 571.037 298.121C570.303 299.271 569.518 300.385 568.681 301.463Z" fill="#FF6584"/>
<path d="M560.005 306.217C564.287 305.466 568.684 305.722 572.852 306.963C572.976 306.993 573.106 306.973 573.216 306.908C573.326 306.843 573.406 306.737 573.44 306.613C573.474 306.49 573.459 306.358 573.398 306.245C573.337 306.132 573.235 306.048 573.113 306.01C568.774 304.726 564.198 304.471 559.744 305.264C559.122 305.374 559.385 306.327 560.005 306.217Z" fill="#023E8A"/>
<path d="M214.454 383.777V438.768C214.459 442.278 215.848 445.642 218.315 448.124C220.782 450.605 224.126 452.002 227.616 452.007H701.273C704.762 452.002 708.107 450.605 710.574 448.124C713.041 445.642 714.43 442.278 714.435 438.768V383.777H214.454Z" fill="#F0F0F0"/>
<path d="M166.158 132.229V109.936C166.166 106.01 165.404 102.12 163.916 98.4905C162.428 94.8607 160.244 91.5615 157.487 88.7816C154.731 86.0017 151.457 83.7956 147.852 82.2896C144.247 80.7835 140.383 80.007 136.48 80.0045C132.576 80.002 128.711 80.7735 125.104 82.2749C121.498 83.7763 118.221 85.9781 115.461 88.7544C112.701 91.5308 110.512 94.8271 109.019 98.455C107.527 102.083 106.76 105.971 106.763 109.897V109.936C101.529 120.907 104.803 126.123 106.763 132.229C106.765 133.292 107.185 134.311 107.933 135.063C108.68 135.815 109.693 136.238 110.75 136.239H162.169C163.226 136.238 164.24 135.815 164.987 135.063C165.735 134.312 166.156 133.292 166.158 132.229Z" fill="#2F2E41"/>
<path d="M130.962 222.59L129.587 229.181L128.418 253.491L175.388 247.094L178.994 218.944L174.009 210.705L130.962 222.59Z" fill="#FFB6B6"/>
<path d="M146.198 134.791C158.475 134.791 168.427 124.78 168.427 112.431C168.427 100.081 158.475 90.0703 146.198 90.0703C133.921 90.0703 123.968 100.081 123.968 112.431C123.968 124.78 133.921 134.791 146.198 134.791Z" fill="#FFB7B7"/>
<path d="M112.708 192.294L106.595 176.319C106.592 169.631 108.842 163.139 112.978 157.903C117.114 152.667 122.892 148.995 129.369 147.486L129.453 147.467L133.849 141.509L151.708 143.306L154.981 150.035L167.921 157.786L182.639 175.121C184.8 176.569 186.642 178.45 188.05 180.645C189.458 182.84 190.402 185.303 190.824 187.881C192.516 198.749 184.95 209.623 184.051 210.87L181.732 224.005L128.122 231.733L127.713 231.785L112.708 192.294Z" fill="#023E8A"/>
<path d="M122.934 118.293C123.135 118.261 123.336 118.218 123.538 118.186C127.005 117.567 130.473 116.959 133.93 116.33L134.248 108.448L138.436 115.509C147.991 118.698 156.93 116.895 165.339 112.917C168.112 111.592 170.804 110.1 173.398 108.448C172.691 104.088 171.025 99.9426 168.521 96.3144C166.016 92.6862 162.737 89.667 158.923 87.4777C158.605 87.2964 158.298 87.1365 157.98 86.9763L157.975 86.9755L157.972 86.9732L157.97 86.9697L157.969 86.9656C157.428 86.7097 156.877 86.4644 156.325 86.2404C152.008 84.5435 147.301 84.1137 142.751 85.0011C138.201 85.8885 133.995 88.0567 130.621 91.2535C123.835 97.7707 120.781 108.533 122.934 118.293Z" fill="#2F2E41"/>
<path d="M237.838 528.221L250.855 522.942L236.809 469.925L217.597 477.715L237.838 528.221Z" fill="#FFB6B6"/>
<path d="M232.021 523.07L252.104 513.491L255.658 522.359L280.668 528.018C281.903 528.297 283.017 528.967 283.848 529.928C284.678 530.89 285.181 532.093 285.284 533.362C285.386 534.632 285.083 535.901 284.417 536.984C283.752 538.068 282.759 538.909 281.585 539.385L257.086 549.318L249.348 542.258L251.215 551.699L241.978 555.444L232.021 523.07Z" fill="#2F2E41"/>
<path d="M107.955 526.826L121.991 526.825L128.668 472.371L107.953 472.372L107.955 526.826Z" fill="#FFB6B6"/>
<path d="M100.323 415.088L100.322 414.942L100.211 406.371L100.211 393.909L99.829 321.614C97.7088 269.37 127.841 244.256 128.078 244.01L128.731 243.326L177.055 242.137C177.055 242.137 260.354 488.109 245.087 490.524L223.206 502.629L185.271 399.237L182.978 393.322C178.869 392.56 168.187 350.861 168.187 350.861C166.396 348.722 166.488 342.909 166.488 342.909L152.497 328.132L139.601 396.242L142.789 416.557L140.15 423.542L129.621 504.507L129.501 505.436H100.801L100.323 415.088Z" fill="#2F2E41"/>
<path d="M103.203 519.862L125.39 518.53V528.091L146.483 542.745C147.525 543.469 148.31 544.508 148.723 545.712C149.136 546.916 149.155 548.221 148.778 549.437C148.401 550.653 147.648 551.716 146.628 552.471C145.608 553.225 144.375 553.632 143.109 553.632H116.695L112.142 544.174L110.364 553.632H100.405L103.203 519.862Z" fill="#2F2E41"/>
<path d="M226.505 257.633C225.094 257.789 223.666 257.631 222.321 257.172C220.977 256.713 219.749 255.963 218.725 254.975C217.7 253.987 216.903 252.785 216.39 251.454C215.876 250.122 215.66 248.694 215.755 247.269L171.355 236.527L138.909 201.801L156.522 190.082L179.464 218.72L226.798 238.131C229.167 238.45 231.337 239.632 232.897 241.454C234.457 243.275 235.299 245.609 235.263 248.012C235.227 250.416 234.315 252.723 232.701 254.496C231.087 256.269 228.882 257.385 226.505 257.633Z" fill="#FFB6B6"/>
<path d="M116.155 166.83C116.155 166.83 111.693 169.377 118.824 177.628C124.533 184.233 153.684 223.044 163.74 229.777C163.148 231.373 163.1 233.121 163.605 234.747C164.109 236.373 165.137 237.784 166.527 238.757L182.689 219.429C181.925 213.758 178.132 213.956 175.989 214.592L168.358 199.692L145.006 163.863L119.347 164.932L116.155 166.83Z" fill="#023E8A"/>
<path d="M713.625 472.406C741.262 472.406 763.667 449.87 763.667 422.07C763.667 394.27 741.262 371.733 713.625 371.733C685.987 371.733 663.582 394.27 663.582 422.07C663.582 449.87 685.987 472.406 713.625 472.406Z" fill="#023E8A"/>
<path d="M706.798 448.268C705.934 448.268 705.081 448.065 704.309 447.676C703.536 447.287 702.863 446.723 702.345 446.027L688.693 427.717C688.254 427.129 687.935 426.459 687.754 425.747C687.572 425.035 687.532 424.294 687.636 423.566C687.739 422.838 687.984 422.137 688.356 421.505C688.729 420.872 689.221 420.319 689.806 419.878C690.391 419.437 691.057 419.116 691.765 418.934C692.473 418.751 693.21 418.711 693.933 418.815C694.657 418.919 695.353 419.165 695.982 419.54C696.611 419.914 697.161 420.41 697.599 420.998L706.531 432.976L729.471 398.364C729.877 397.752 730.398 397.227 731.005 396.817C731.613 396.408 732.294 396.123 733.011 395.979C733.728 395.834 734.467 395.834 735.184 395.976C735.901 396.119 736.583 396.402 737.192 396.81C737.8 397.218 738.322 397.743 738.729 398.354C739.136 398.965 739.419 399.651 739.562 400.372C739.706 401.093 739.706 401.835 739.564 402.557C739.422 403.278 739.14 403.964 738.735 404.576L711.43 445.774C710.936 446.519 710.272 447.134 709.493 447.568C708.714 448.001 707.843 448.241 706.953 448.266C706.901 448.267 706.85 448.268 706.798 448.268Z" fill="white"/>
<path d="M221.435 536.788L213 523.153L211.315 530.944C211.019 532.309 210.724 533.696 210.451 535.071C208.055 533.013 205.505 531.109 203.011 529.283C195.353 523.692 187.698 518.094 180.047 512.489L182.443 526.465C183.92 535.071 185.463 543.853 189.117 551.721C189.522 552.613 189.959 553.493 190.43 554.352H226.03C226.316 553.554 226.515 552.727 226.621 551.886C226.63 551.832 226.633 551.777 226.632 551.721C227.19 546.384 224.258 541.355 221.435 536.788Z" fill="#F0F0F0"/>
<path d="M302.987 555.662L1.30254 556C1.13115 556.001 0.961359 555.967 0.802876 555.901C0.644392 555.836 0.500349 555.739 0.378985 555.618C0.25762 555.496 0.161324 555.351 0.0956227 555.192C0.0299209 555.033 -0.00390625 554.862 -0.00390625 554.69C-0.00390625 554.517 0.0299209 554.347 0.0956227 554.187C0.161324 554.028 0.25762 553.884 0.378985 553.762C0.500349 553.64 0.644392 553.544 0.802876 553.478C0.961359 553.412 1.13115 553.379 1.30254 553.379L302.987 553.041C303.332 553.042 303.662 553.181 303.906 553.426C304.149 553.672 304.286 554.005 304.286 554.351C304.286 554.698 304.149 555.031 303.906 555.277C303.662 555.522 303.332 555.661 302.987 555.662Z" fill="#CACACA"/>
</g>
<defs>
<clipPath id="clip0_27_358">
<rect width="788" height="556" fill="white"/>
</clipPath>
</defs>
</svg>
