<svg width="253" height="30" viewBox="0 0 313 30" fill="none" xmlns="http://www.w3.org/2000/svg">
<path d="M39.584 24.24C38.608 24.24 37.712 24.12 36.896 23.88C36.08 23.624 35.344 23.248 34.688 22.752C34.032 22.256 33.448 21.656 32.936 20.952L34.976 18.648C35.76 19.736 36.528 20.488 37.28 20.904C38.032 21.32 38.88 21.528 39.824 21.528C40.368 21.528 40.864 21.448 41.312 21.288C41.76 21.112 42.112 20.88 42.368 20.592C42.624 20.288 42.752 19.944 42.752 19.56C42.752 19.288 42.696 19.04 42.584 18.816C42.488 18.576 42.336 18.368 42.128 18.192C41.92 18 41.664 17.824 41.36 17.664C41.056 17.504 40.712 17.368 40.328 17.256C39.944 17.144 39.52 17.04 39.056 16.944C38.176 16.768 37.408 16.536 36.752 16.248C36.096 15.944 35.544 15.576 35.096 15.144C34.648 14.696 34.32 14.2 34.112 13.656C33.904 13.096 33.8 12.464 33.8 11.76C33.8 11.056 33.952 10.408 34.256 9.816C34.576 9.224 35.008 8.712 35.552 8.28C36.096 7.848 36.728 7.512 37.448 7.272C38.168 7.032 38.944 6.912 39.776 6.912C40.72 6.912 41.56 7.024 42.296 7.248C43.048 7.472 43.704 7.808 44.264 8.256C44.84 8.688 45.312 9.216 45.68 9.84L43.616 11.88C43.296 11.384 42.936 10.976 42.536 10.656C42.136 10.32 41.704 10.072 41.24 9.912C40.776 9.736 40.288 9.648 39.776 9.648C39.2 9.648 38.696 9.728 38.264 9.888C37.848 10.048 37.52 10.28 37.28 10.584C37.04 10.872 36.92 11.224 36.92 11.64C36.92 11.96 36.992 12.248 37.136 12.504C37.28 12.744 37.48 12.96 37.736 13.152C38.008 13.344 38.352 13.512 38.768 13.656C39.184 13.8 39.656 13.928 40.184 14.04C41.064 14.216 41.856 14.456 42.56 14.76C43.264 15.048 43.864 15.4 44.36 15.816C44.856 16.216 45.232 16.68 45.488 17.208C45.744 17.72 45.872 18.296 45.872 18.936C45.872 20.04 45.608 20.992 45.08 21.792C44.568 22.576 43.84 23.184 42.896 23.616C41.952 24.032 40.848 24.24 39.584 24.24ZM54.5589 24.24C53.2949 24.24 52.1669 23.96 51.1749 23.4C50.1829 22.824 49.3989 22.04 48.8229 21.048C48.2469 20.056 47.9589 18.928 47.9589 17.664C47.9589 16.4 48.2469 15.272 48.8229 14.28C49.3989 13.288 50.1829 12.512 51.1749 11.952C52.1669 11.376 53.2949 11.088 54.5589 11.088C55.8069 11.088 56.9269 11.376 57.9189 11.952C58.9109 12.512 59.6869 13.288 60.2469 14.28C60.8229 15.272 61.1109 16.4 61.1109 17.664C61.1109 18.928 60.8229 20.056 60.2469 21.048C59.6869 22.04 58.9109 22.824 57.9189 23.4C56.9269 23.96 55.8069 24.24 54.5589 24.24ZM54.5589 21.624C55.2469 21.624 55.8549 21.448 56.3829 21.096C56.9269 20.744 57.3509 20.272 57.6549 19.68C57.9749 19.088 58.1269 18.416 58.1109 17.664C58.1269 16.896 57.9749 16.216 57.6549 15.624C57.3509 15.032 56.9269 14.568 56.3829 14.232C55.8549 13.88 55.2469 13.704 54.5589 13.704C53.8709 13.704 53.2469 13.88 52.6869 14.232C52.1429 14.568 51.7189 15.04 51.4149 15.648C51.1109 16.24 50.9589 16.912 50.9589 17.664C50.9589 18.416 51.1109 19.088 51.4149 19.68C51.7189 20.272 52.1429 20.744 52.6869 21.096C53.2469 21.448 53.8709 21.624 54.5589 21.624ZM63.7514 24V11.352H66.6554L66.7034 15.384L66.2954 14.472C66.4714 13.832 66.7754 13.256 67.2074 12.744C67.6394 12.232 68.1354 11.832 68.6954 11.544C69.2714 11.24 69.8714 11.088 70.4954 11.088C70.7674 11.088 71.0234 11.112 71.2634 11.16C71.5194 11.208 71.7274 11.264 71.8874 11.328L71.0954 14.568C70.9194 14.472 70.7034 14.392 70.4474 14.328C70.1914 14.264 69.9354 14.232 69.6794 14.232C69.2794 14.232 68.8954 14.312 68.5274 14.472C68.1754 14.616 67.8634 14.824 67.5914 15.096C67.3194 15.368 67.1034 15.688 66.9434 16.056C66.7994 16.408 66.7274 16.808 66.7274 17.256V24H63.7514ZM75.6898 24V8.136H78.6418V24H75.6898ZM73.1938 14.088V11.352H81.4018V14.088H73.1938ZM97.6886 24.24C97.1286 24.24 96.5766 24.16 96.0326 24C95.5046 23.824 95.0246 23.592 94.5926 23.304C94.1606 23.016 93.8006 22.696 93.5126 22.344C93.2246 21.976 93.0326 21.608 92.9366 21.24L93.6326 20.928L93.5606 23.952H90.7046V6.24H93.6566V14.28L93.1286 14.04C93.2086 13.656 93.3846 13.296 93.6566 12.96C93.9446 12.608 94.2966 12.296 94.7126 12.024C95.1286 11.736 95.5846 11.512 96.0806 11.352C96.5766 11.176 97.0806 11.088 97.5926 11.088C98.7286 11.088 99.7286 11.368 100.593 11.928C101.473 12.488 102.161 13.264 102.657 14.256C103.169 15.248 103.425 16.376 103.425 17.64C103.425 18.92 103.177 20.056 102.681 21.048C102.185 22.04 101.497 22.824 100.617 23.4C99.7526 23.96 98.7766 24.24 97.6886 24.24ZM97.0646 21.648C97.7366 21.648 98.3366 21.48 98.8646 21.144C99.3926 20.792 99.8086 20.32 100.113 19.728C100.417 19.12 100.569 18.424 100.569 17.64C100.569 16.872 100.417 16.192 100.113 15.6C99.8246 15.008 99.4166 14.544 98.8886 14.208C98.3606 13.872 97.7526 13.704 97.0646 13.704C96.3766 13.704 95.7686 13.872 95.2406 14.208C94.7126 14.544 94.2966 15.008 93.9926 15.6C93.6886 16.192 93.5366 16.872 93.5366 17.64C93.5366 18.424 93.6886 19.12 93.9926 19.728C94.2966 20.32 94.7126 20.792 95.2406 21.144C95.7686 21.48 96.3766 21.648 97.0646 21.648ZM107.507 29.52L110.195 23.304L110.219 25.272L103.979 11.352H107.387L110.867 19.608C110.979 19.816 111.091 20.096 111.203 20.448C111.315 20.784 111.411 21.12 111.491 21.456L110.891 21.648C111.003 21.344 111.123 21.024 111.251 20.688C111.379 20.336 111.499 19.976 111.611 19.608L114.587 11.352H118.019L112.739 24L110.579 29.52H107.507Z" fill="#111827"/>
<path d="M3 16H15V14H3M3 9V11H21V9M3 21H9V19H3V21Z" fill="#111827"/>
<path d="M302.165 12.4565L306.491 16.413C307.018 16.8949 307.136 17.4463 306.844 18.0672C306.552 18.688 306.033 18.999 305.285 19H296.716C295.968 19 295.447 18.6891 295.156 18.0672C294.864 17.4453 294.982 16.8939 295.51 16.413L299.836 12.4565C300.002 12.3043 300.183 12.1902 300.377 12.1141C300.571 12.038 300.779 12 301.001 12C301.223 12 301.431 12.038 301.625 12.1141C301.819 12.1902 301.999 12.3043 302.165 12.4565Z" fill="#111827"/>
</svg>
