<svg width="50" height="50" viewBox="0 0 50 50" fill="none" xmlns="http://www.w3.org/2000/svg">
<rect width="50" height="50" rx="5" fill="white"/>
<path d="M40 23.5C40 23.1022 39.842 22.7206 39.5607 22.4393C39.2794 22.158 38.8978 22 38.5 22H11.5C11.1022 22 10.7206 22.158 10.4393 22.4393C10.158 22.7206 10 23.1022 10 23.5C10 23.8978 10.158 24.2794 10.4393 24.5607C10.7206 24.842 11.1022 25 11.5 25H38.5C38.8978 25 39.2794 24.842 39.5607 24.5607C39.842 24.2794 40 23.8978 40 23.5ZM37 14.5V19H34V14.5C34 14.1022 33.842 13.7206 33.5607 13.4393C33.2794 13.158 32.8978 13 32.5 13H17.5C17.1022 13 16.7206 13.158 16.4393 13.4393C16.158 13.7206 16 14.1022 16 14.5V19H13V14.5C13 13.3065 13.4741 12.1619 14.318 11.318C15.1619 10.4741 16.3065 10 17.5 10H32.5C33.6935 10 34.8381 10.4741 35.682 11.318C36.5259 12.1619 37 13.3065 37 14.5ZM16 32.5V28H13V32.5C13 33.6935 13.4741 34.8381 14.318 35.682C15.1619 36.5259 16.3065 37 17.5 37H32.5C33.6935 37 34.8381 36.5259 35.682 35.682C36.5259 34.8381 37 33.6935 37 32.5V28H34V32.5C34 32.8978 33.842 33.2794 33.5607 33.5607C33.2794 33.842 32.8978 34 32.5 34H17.5C17.1022 34 16.7206 33.842 16.4393 33.5607C16.158 33.2794 16 32.8978 16 32.5Z" fill="#111827"/>
</svg>
